<?xml version="1.0" encoding="UTF-8" standalone="no"?>
<svg
   xmlns:dc="http://purl.org/dc/elements/1.1/"
   xmlns:cc="http://creativecommons.org/ns#"
   xmlns:rdf="http://www.w3.org/1999/02/22-rdf-syntax-ns#"
   xmlns:svg="http://www.w3.org/2000/svg"
   xmlns="http://www.w3.org/2000/svg"
   viewBox="0 0 4248.8638 5190.5278"
   height="5190.5278"
   width="4248.8638"
   xml:space="preserve"
   id="svg2"
   version="1.1"><metadata
     id="metadata8"><rdf:RDF><cc:Work
         rdf:about=""><dc:format>image/svg+xml</dc:format><dc:type
           rdf:resource="http://purl.org/dc/dcmitype/StillImage" /></cc:Work></rdf:RDF></metadata><defs
     id="defs6"><linearGradient
       id="linearGradient22"
       spreadMethod="pad"
       gradientUnits="userSpaceOnUse"
       y2="2875.8491"
       x2="645.68536"
       y1="2875.8508"
       x1="645.70972"><stop
         id="stop16"
         offset="0"
         style="stop-opacity:1;stop-color:#d6ccb2" /><stop
         id="stop18"
         offset="0.532609"
         style="stop-opacity:1;stop-color:#ffffff" /><stop
         id="stop20"
         offset="1"
         style="stop-opacity:1;stop-color:#000000" /></linearGradient><linearGradient
       id="linearGradient34"
       spreadMethod="pad"
       gradientUnits="userSpaceOnUse"
       y2="2875.6812"
       x2="645.74561"
       y1="2875.6831"
       x1="645.77002"><stop
         id="stop28"
         offset="0"
         style="stop-opacity:1;stop-color:#d6ccb2" /><stop
         id="stop30"
         offset="0.532609"
         style="stop-opacity:1;stop-color:#ffffff" /><stop
         id="stop32"
         offset="1"
         style="stop-opacity:1;stop-color:#000000" /></linearGradient></defs><g
     transform="matrix(1.3333333,0,0,-1.3333333,0,5190.528)"
     id="g10"><path
       id="path12"
       style="fill:#ffffff;fill-opacity:1;fill-rule:evenodd;stroke:none"
       d="m 909.633,5.47134 h 139.6904 125.6318 v 0.070865 l 58.3132,0.032892 c 37.6777,1.456911 74.2388,11.813419 105.9224,30.004184 V 5.47134 h 264.1534 97.5802 189.3489 88.6535 l 17.783,-3.770532 c 108.5059,-6.004665 201.9413,67.348615 208.6937,163.839132 0.6872,9.82021 0.4421,19.67445 -0.7326,29.45804 l -0.803,5.12188 c -9.3076,44.09696 -7.3637,191.31393 -7.3637,243.97441 h 135.5832 v 40.68398 l 7.6136,-10.25286 V 5.47134 h 240.777 123.2942 240.777 v 8.329621 c 78.4695,-28.37385 111.1957,-8.258332 184.8587,17.769662 l 49.2091,44.434566 c 9.8023,58.614111 7.8781,237.372751 7.8781,308.304381 l -3.5065,-2.3366 v 76.68862 l -51.4281,19.25851 v 233.8028 h -61.9475 v 152.28527 h 29.2205 v 267.62863 h -430.1259 -157.19 -139.8539 l -0.2552,-69.2329 -52.6264,69.9481 -126.9532,-1.371 v 0.6558 h -386.112 l -0.9219,141.2542 h 110.4153 l 0.2091,70.6786 h 114.167 l 0.3682,89.3876 h 172.9139 l 0.2452,149.6723 h 289.1223 l -6.7835,1724.0321 -556.1322,4.396 3.7176,231.2353 -473.3428,285.8928 v 64.7103 H 1126.9178 V 3380.4763 H 821.31255 l -1.46038,-279.213 -342.22008,-0.63 -9.58941,-1979.5229 c -97.51403,29.0098 -140.97853,23.1487 -231.56164,6.8448 C 69.543285,1097.9084 -10.495349,931.0224 46.239975,797.77301 l -20.65487,-4.3864 -3.446086,-128.33943 C 22.684753,606.03953 52.948137,544.20991 102.16451,503.84473 H 67.514254 V 5.47134 L 234.68299,5.47288 c 40.27797,0.189839 79.81421,9.652051 114.75856,27.465177 14.19798,7.358457 27.33657,16.225562 39.12624,26.405908 55.89516,-60.685617 156.862,-75.316427 234.13613,-37.611733 V 5.471337 H 810.884 909.633 Z" /><path
       id="path14"
       style="fill:#ffffff;fill-opacity:1;fill-rule:evenodd;stroke:none"
       d="m 2868.7957,444.09427 c -0.466,-0.51114 -0.9289,-1.02457 -1.3886,-1.54024 v 1.54024 z" /><path
       id="path24"
       style="fill:url(#linearGradient22);fill-opacity:1;fill-rule:evenodd;stroke:none"
       d="m 645.70936,2875.8229 c -0.007,0.019 -0.0133,0.037 -0.02,0.056 0.007,-0.019 0.0134,-0.037 0.02,-0.056 z" /><path
       id="path26"
       style="fill:#000000;fill-opacity:1;fill-rule:evenodd;stroke:none"
       d="m 647.87322,2876.4358 -0.02,0.056 -4.32772,-1.2257 0.02,-0.056 4.32772,1.2258 -0.02,0.056 -4.32772,-1.2257 0.02,-0.056 4.32772,1.2258 z" /><path
       id="path36"
       style="fill:url(#linearGradient34);fill-opacity:1;fill-rule:evenodd;stroke:none"
       d="m 645.74954,2875.711 c 0.007,-0.019 0.0134,-0.037 0.0201,-0.056 -0.007,0.019 -0.0134,0.037 -0.0201,0.056 z" /><path
       id="path38"
       style="fill:#000000;fill-opacity:1;fill-rule:evenodd;stroke:none"
       d="m 643.58657,2875.0956 0.0201,-0.056 4.32594,1.2307 -0.0201,0.056 -4.32594,-1.2307 0.0201,-0.056 4.32594,1.2307 -0.0201,0.056 z" /><path
       id="path40"
       style="fill:#ba1e1f;fill-opacity:1;fill-rule:evenodd;stroke:none"
       d="m 1260.5795,3214.8431 -5.8441,-1836.6036 63.1163,-1.0394 7.0129,2310.5659 396.2301,-239.7459 -7.0129,-411.9522 h 75.9733 l 7.1275,443.3391 -472.318,285.2739 v 8.3151 h -63.1163 V 3260.5763 H 955.51736 l -1.16882,-223.469 h 64.28516 v 177.7358 z" /><path
       id="path42"
       style="fill:#ba1e1f;fill-opacity:1;fill-rule:evenodd;stroke:none"
       d="m 2287.9726,1702.5295 h 68.9604 l -5.8441,1485.2895 -525.9692,4.1575 2.3376,-162.1449 74.8045,1.0394 -1.1688,109.136 381.0355,-3.1182 z" /><path
       id="path44"
       style="fill:#ba1e1f;fill-opacity:1;fill-rule:evenodd;stroke:none"
       d="M 1674.3713,601.81457 V 554.0026 h 208.0206 v 47.81197 z" /><path
       id="path46"
       style="fill:#ba1e1f;fill-opacity:1;fill-rule:evenodd;stroke:none"
       d="m 1500.9969,554.21526 173.3744,-0.21266 v 47.81197 h -0.029 l -15.1947,2328.23543 350.6461,-4.1575 -7.0129,-1373.0353 h 65.4539 l 2.3377,1427.0836 -586.7789,8.4559 17.4125,-2407.30446 -0.2087,-26.87698 z" /><path
       id="path48"
       style="fill:#ba1e1f;fill-opacity:1;fill-rule:evenodd;stroke:none"
       d="m 757.98463,815.32702 v -75.88666 c 0.38899,0.51148 0.90557,1.0703 1.58997,1.77295 0.37272,0.38266 13.33609,15.55225 18.13904,16.40188 0.5495,0.0972 0.80866,-0.2221 2.59166,-3.19312 L 900.5828,554.0026 h 170.9943 l -194.4546,320.11585 131.2088,147.61005 h -69.57482 z" /><path
       id="path50"
       style="fill:#ba1e1f;fill-opacity:1;fill-rule:evenodd;stroke:none"
       d="m 757.98463,739.44036 v 75.88666 l -0.005,-0.006 9.35785,2114.72888 354.15252,-2.0787 -4.6752,-1454.1078 h 54.9345 l 4.6753,1508.1561 -564.54022,-1.0394 L 600.12736,554.00253 H 756.8181 c 0,0 0,180.6387 0,180.6387 0,2.43866 0.14456,3.456 1.16673,4.79906 z" /><path
       id="path52"
       style="fill:#ba1e1f;fill-opacity:1;fill-rule:evenodd;stroke:none"
       d="m 1895.2489,1463.4696 5.8441,1418.7685 h -71.298 l -7.0129,-1418.7685 z" /><path
       id="path54"
       style="fill:#ba1e1f;fill-opacity:1;fill-rule:evenodd;stroke:none"
       d="m 953.17972,2879.1199 -12.85703,-1313.79 h 61.94751 l 12.857,1313.79 z" /><path
       id="path56"
       style="fill:#ba1e1f;fill-opacity:1;fill-rule:evenodd;stroke:none"
       d="m 1780.7045,1392.791 c 0,0 -0.1085,89.0782 0,178.5154 0.3336,274.9158 12.8571,1308.8529 12.8571,1308.8529 h -61.9475 L 1717.5882,1392.791 Z" /><path
       id="path58"
       style="fill:#ffffff;fill-opacity:1;fill-rule:nonzero;stroke:none"
       d="m 0.484342,455.95471 c 0,0 0.025998,0.006 0.025998,0.006 -0.008667,-0.002 -0.017333,-0.004 -0.025998,-0.006 z" /><path
       id="path60"
       style="fill:#ffffff;fill-opacity:1;fill-rule:nonzero;stroke:none"
       d="m 0,457.82933 c 0,0 0.051274,0.0111 0.051274,0.0111 -0.017091,-0.004 -0.034183,-0.007 -0.051274,-0.0111 z" /><path
       id="path62"
       style="fill:#ffffff;fill-opacity:1;fill-rule:nonzero;stroke:none"
       d="m 0.510341,455.96033 c 0,0 0.051996,0.0112 0.051996,0.0112 -0.017332,-0.004 -0.034664,-0.007 -0.051996,-0.0112 z" /><path
       id="path64"
       style="fill:#000000;fill-opacity:1;fill-rule:nonzero;stroke:none"
       d="m 219.37671,721.54248 -72.68304,-15.43543 -1.06052,-36.62937 c -0.0975,-3.36651 -0.0412,-4.11011 0.56301,-7.43594 8.53373,-46.9758 23.57193,-73.91706 71.21115,-95.56645 62.94523,-28.60514 173.98706,-27.65178 233.76407,1.03939 58.40691,28.03357 89.09469,76.76882 83.57065,137.24116 -5.1775,56.67873 -49.94984,99.03171 -104.02501,125.72472 -22.02128,10.87032 -113.0055,41.69451 -136.16757,53.00893 -29.61661,14.46739 -51.84459,32.88202 -47.33723,62.38424 6.39096,41.8309 56.59224,49.17466 101.36011,46.7518 53.05144,-2.87118 88.09885,-19.60585 97.33935,-65.6895 0.96969,-4.83595 1.43822,-8.95296 1.16882,-15.38299 -0.51156,-12.21024 -3.68407,-32.76118 -3.68407,-32.76118 l 69.13801,12.7079 c 0,0 -1.28967,24.48284 -4.09087,39.80171 -7.56848,41.38967 -37.58772,70.08473 -80.06419,85.74973 -7.12683,2.6283 -13.90765,4.5941 -21.03877,6.2364 -8.76531,2.0186 -66.10272,7.025 -77.3759,6.756 -11.06446,-0.264 -55.28855,-6.364 -64.05136,-8.8348 -81.96866,-23.1129 -128.6549,-83.34094 -111.62234,-161.6253 10.09727,-46.40869 42.43982,-79.63842 85.90829,-103.41939 31.14039,-17.03645 119.36333,-41.08767 152.53106,-70.15888 20.78232,-18.21551 27.40338,-38.83397 17.5323,-64.44223 -10.55862,-27.39194 -38.60988,-35.5921 -71.8357,-38.45746 -26.38943,-2.2758 -72.35757,2.2738 -95.89002,19.22873 -25.06601,18.05986 -33.42113,49.4569 -30.38933,77.82959 1.70975,16.00039 7.2291,41.37862 7.2291,41.37862 z" /><path
       id="path66"
       style="fill:#000000;fill-opacity:1;fill-rule:nonzero;stroke:none"
       d="m 1197.4632,554.0026 h 153.1154 v 173.24566 l 127.4015,294.48024 h -60.0073 L 1321.396,795.66704 1214.9955,1021.7285 h -158.9862 l 141.4539,-295.16624 z" /><path
       id="path68"
       style="fill:#000000;fill-opacity:1;fill-rule:nonzero;stroke:none"
       d="m 2068.2343,554.0026 v 467.7259 H 1916.2877 V 554.0026 Z" /><path
       id="path70"
       style="fill:#000000;fill-opacity:1;fill-rule:nonzero;stroke:none"
       d="M 2157.0647,1020.6891 V 554.0026 h 51.4281 V 850.66858 L 2428.7933,554.0026 h 116.3197 v 467.7259 h -50.2592 l -1.178,-319.48776 -240.3704,319.48776 z" /><path
       id="path72"
       style="fill:#000000;fill-opacity:1;fill-rule:nonzero;stroke:none"
       d="m 2946.0184,786.82614 v 47.81198 h -158.9595 v 139.27837 h 188.18 v 47.81201 H 2635.1122 V 554.0026 h 372.8537 v 47.81197 h -220.907 v 185.01157 z" /><path
       id="path74"
       style="fill:#000000;fill-opacity:1;fill-rule:nonzero;stroke:none"
       d="m 1978.2352,157.66988 v -30.58667 c 0,-3.36763 0.1027,-3.86305 1.0271,-4.95421 5.4125,-6.38905 28.7698,-10.52748 33.8037,-10.9069 41.3654,-3.11782 72.403,30.51972 69.1942,68.5998 -1.0025,11.89641 -6.7732,30.52699 -10.5194,39.49685 -15.0216,35.96787 -53.2968,81.95138 -57.2722,115.78814 -1.0792,9.18559 1.8974,20.64334 9.3506,25.04932 8.1199,4.80015 18.5721,6.79886 26.9062,4.67725 8.487,-2.16051 22.1842,-7.73046 22.1842,-7.73046 v 33.85697 c 0,0 -8.0664,2.83607 -14.0258,4.53552 -33.6932,9.6083 -64.4292,-6.4313 -76.5578,-31.70142 -8.8655,-18.4717 -7.568,-38.75031 -2.3376,-54.04832 5.5002,-16.08727 53.807,-101.80171 59.6098,-118.49055 6.0898,-17.51386 7.7337,-35.01255 -12.2726,-44.17411 -11.8136,-5.40986 -25.3446,-3.57695 -38.571,4.15756 -4.614,2.69816 -10.5194,6.43123 -10.5194,6.43123 z" /><path
       id="path76"
       style="fill:#000000;fill-opacity:1;fill-rule:nonzero;stroke:none"
       d="m 3062.9005,131.24077 v 33.36621 c 0,0 -14.6834,-11.05291 -23.9609,-15.96681 -22.6913,-12.01868 -44.4294,-0.90053 -53.7657,19.74843 -14.8604,32.86652 -13.7632,129.72816 -4.6753,160.06619 7.6033,25.38181 18.914,38.13572 44.2516,36.37867 3.7728,-0.26162 6.7121,-0.70227 11.2674,-2.59847 8.7244,-3.6317 23.3764,-12.60262 23.3764,-12.60262 v 36.18879 c 0,0 -15.8061,6.60318 -25.7141,9.67433 -31.6501,9.81056 -61.0229,-6.64904 -77.1421,-31.70142 -34.715,-53.95378 -30.8119,-170.13692 -1.7532,-217.23268 13.8821,-22.4989 36.6476,-37.3889 65.337,-35.33929 17.6584,1.26154 27.7479,5.6796 39.4764,13.94851 2.9722,2.09552 3.3025,2.70253 3.3025,6.07016 z" /><path
       id="path78"
       style="fill:#000000;fill-opacity:1;fill-rule:nonzero;stroke:none"
       d="M 191.10885,393.93641 V 115.37967 c 0,0 26.70733,-0.50029 42.91908,0 43.21456,1.33358 76.46382,17.9636 89.74203,55.08771 11.29877,31.58987 -0.23273,70.43591 -30.97374,87.82852 -5.3473,3.02539 -12.75042,6.68972 -12.75042,6.68972 0,0 8.71445,5.34291 14.50365,9.42084 31.88959,22.46313 32.84804,64.37397 10.51938,91.4664 -14.42813,17.50633 -39.10382,27.04391 -63.25656,28.06355 -18.95822,0.80034 -50.70342,0 -50.70342,0 z m 39.73989,-118.49056 v 85.23005 c 0,0 7.41549,0.28834 12.8804,0 23.08592,-1.21807 36.59636,-20.27394 37.37887,-40.53624 0.61842,-16.01302 -6.40421,-27.53365 -17.5323,-36.89838 -3.1711,-2.6686 -15.01945,-7.51066 -19.07515,-7.79543 -5.85529,-0.41112 -13.65182,0 -13.65182,0 z m 0,-126.80568 v 93.54518 c 0,0 8.16951,0.42267 14.44662,0 43.29419,-2.91527 52.928,-52.71556 33.41702,-76.51792 -8.17414,-9.97201 -17.17722,-16.39213 -33.41702,-17.02726 -6.27232,-0.24531 -14.44662,0 -14.44662,0 z" /><path
       id="path80"
       style="fill:#000000;fill-opacity:1;fill-rule:nonzero;stroke:none"
       d="m 600.2156,174.87436 1.14919,219.06205 H 561.6249 l -1.14925,-219.74805 c -0.0176,-3.36759 -0.13136,-4.10334 -1.13741,-7.35744 -5.07183,-16.40485 -16.80442,-25.15737 -32.80133,-22.34831 -16.60921,2.91657 -19.67457,9.48363 -23.71223,27.81731 -0.72866,3.30861 -0.80962,4.05041 -0.80962,7.41804 v 214.21845 h -39.73989 c 0,0 -2.36686,-199.83045 0,-218.99965 4.37629,-35.44358 30.22015,-66.60542 74.10321,-63.71466 33.33275,2.19577 56.22057,23.48178 63.04928,56.22633 0.69148,3.31574 0.77028,4.05834 0.78794,7.42593 z" /><path
       id="path82"
       style="fill:#000000;fill-opacity:1;fill-rule:nonzero;stroke:none"
       d="M 786.03841,115.37967 V 393.93641 H 746.29852 V 115.37967 Z" /><path
       id="path84"
       style="fill:#000000;fill-opacity:1;fill-rule:nonzero;stroke:none"
       d="m 1051.3606,115.37967 v 33.2605 h -77.14211 v 245.29624 h -39.7399 V 115.37967 Z" /><path
       id="path86"
       style="fill:#000000;fill-opacity:1;fill-rule:nonzero;stroke:none"
       d="M 1172.9179,393.93641 V 115.37967 c 0,0 35.7625,-1.08218 54.9814,0 84.6913,4.7688 100.5072,89.6306 95.7965,160.84573 -4.1778,63.15807 -29.5724,115.15593 -101.2432,117.71101 -17.7487,0.63274 -49.5347,0 -49.5347,0 z m 39.7399,-245.29624 V 360.6759 c 0,0 9.9311,0.36575 16.7843,0 19.6039,-1.04622 34.7783,-12.20537 41.6568,-25.46507 4.1086,-7.92024 6.7881,-16.25348 8.7661,-25.46508 1.8623,-8.67256 4.8185,-64.62857 4.0909,-77.43462 -2.0281,-35.69633 -11.1971,-81.80034 -55.6826,-83.67096 -6.603,-0.27765 -15.6155,0 -15.6155,0 z" /><path
       id="path88"
       style="fill:#000000;fill-opacity:1;fill-rule:nonzero;stroke:none"
       d="m 1566.8104,244.26413 v 33.2605 h -65.4539 v 83.15127 h 71.298 v 33.26051 H 1462.7854 V 115.37967 h 114.5444 v 33.2605 h -75.9733 v 95.62396 z" /><path
       id="path90"
       style="fill:#000000;fill-opacity:1;fill-rule:nonzero;stroke:none"
       d="m 1825.1197,115.37967 h 42.0008 c 0,0 -10.4869,46.17371 -19.7932,75.35583 -4.592,14.39925 -14.2498,42.63456 -23.9608,53.52863 -5.2051,5.83912 -13.391,13.15563 -13.391,13.15563 0,0 6.7919,4.21141 11.0533,7.63218 20.0397,16.08647 23.7037,48.92649 19.2856,71.19828 -7.3996,37.30137 -35.9122,56.3237 -74.7578,57.68619 -15.0209,0.52685 -38.6178,0 -38.6178,0 V 115.37967 h 39.7399 v 124.72689 c 0,0 4.7746,0.26778 7.8077,0 11.8429,-1.04555 22.4548,-22.48217 24.9193,-30.14233 9.4325,-29.31851 25.714,-94.58456 25.714,-94.58456 z m -58.441,157.9874 v 87.30883 c 0,0 3.6036,0.14345 6.5454,0 27.6034,-1.34602 32.2277,-40.21217 28.5192,-59.26606 -2.2061,-11.3346 -10.6158,-27.07602 -26.6491,-28.04277 -3.6467,-0.21988 -8.4155,0 -8.4155,0 z" /><path
       id="path92"
       style="fill:#000000;fill-opacity:1;fill-rule:nonzero;stroke:none"
       d="m 2580.1777,115.37967 v 33.2605 h -77.1422 v 245.29624 h -39.7399 V 115.37967 Z" /><path
       id="path94"
       style="fill:#000000;fill-opacity:1;fill-rule:nonzero;stroke:none"
       d="m 2820.9546,115.37967 v 33.2605 h -77.1421 v 245.29624 h -39.7399 V 115.37967 Z" /></g></svg>