<svg xmlns="http://www.w3.org/2000/svg" xmlns:xlink="http://www.w3.org/1999/xlink" xmlns:inkscape="http://www.inkscape.org/namespaces/inkscape" version="1.1" width="2753.2689" height="265.24244" viewBox="0 0 2753.2689 265.24244">
<g inkscape:groupmode="layer" inkscape:label="Layer 1">
<path transform="matrix(1,0,0,-1,0,265.24244)" d="M15.072542 59.381383H4.656194V3.862346H24.658127C24.473059 6.489167 24.35008 9.119994 24.289296 11.752625 27.912249 7.219698 34.303335 3.761086 39.840627 2.226184 51.22002-.928113 62.160749-.482261 73.28565 2.012055 99.770427 7.950208 115.71464 30.593266 116.56759 57.503366 117.237628 78.6426 111.374088 101.47387 99.63082 119.2011 91.8617 130.70818 83.5484 141.83832 74.71922 152.55362 66.087039 162.98709 57.954656 173.82419 50.349496 185.02835 42.74245 197.29129 33.84644 231.32085 50.0944 242.682 58.59169 248.62363 69.493709 241.93578 75.65514 235.42942 77.74022 233.31041 79.55361 230.94026 81.05355 228.37357 82.18674 225.67528 83.548877 223.07897 85.12504 220.61309L85.64205 219.80423 87.75248 217.88895C91.157428 215.17205 96.54009 215.58687 99.64599 218.52684L101.362499 220.26772C102.939899 222.06238 103.82836 224.35912 103.86935 226.74811L103.88775 250.53383C103.679409 253.53874 103.64529 253.08751 102.22711 255.66619 99.77521 260.00703 94.48131 261.85206 89.86253 259.9755 87.433658 258.91346 86.00348 256.9019 84.90823 254.53134 57.569925 276.9608 20.368496 260.91069 7.067634 232.62935 2.70067 223.3343 .310118 213.23418 .047178 202.96778-.783647 173.5376 9.397781 153.83252 27.514077 132.40006L46.401704 109.642719C52.745206 101.60999 58.567579 93.17912 63.833044 84.40191 72.750377 69.230289 79.03245 44.222089 70.605838 27.417742 67.84627 21.999186 62.140748 18.72818 56.07041 19.084502 47.690118 19.515343 39.908956 23.560786 34.742368 30.172997 30.355399 36.618677 26.988318 43.70213 24.759757 51.173799L23.91248 53.876287C22.48896 57.448854 18.90668 59.679727 15.072542 59.381383Z" fill="#b92320" fill-rule="evenodd"/>
<path transform="matrix(1,0,0,-1,0,265.24244)" d="M667.35427 211.22629C662.93746 207.69472 658.47207 204.22426 653.9594 200.81594L662.21566 192.48172 664.1405 191.11927C666.3457 189.81372 669.74697 189.98714 671.94729 190.67449 675.6686 192.12496 679.14389 194.14086 682.2504 196.6511L682.1976 196.60825C696.7013 208.25557 703.8001 238.94416 690.81668 255.18895 685.3969 261.97013 675.0757 266.67137 666.6802 264.78147 652.8197 261.48753 643.589 248.37812 645.15988 234.21848 646.60519 221.56386 656.04208 213.71292 667.35427 211.22629Z" fill="#b92320" fill-rule="evenodd"/>
<path transform="matrix(1,0,0,-1,0,265.24244)" d="M789.516 12.982219C790.8554 11.551189 792.2208 10.144696 793.6116 8.763441 799.2718 3.650091 808.55007 1.453254 815.913 .636846 859.9615-4.247262 885.9563 26.836035 882.48587 69.912578 880.1073 99.43578 867.1066 119.63104 849.1052 141.61113 839.11886 153.67813 829.56906 166.0999 820.4743 178.85242 814.85348 186.71062 810.74746 195.54822 808.3669 204.91191 805.85128 215.22238 806.8846 224.64665 810.1154 234.62952 812.2833 241.55789 819.2361 245.81957 826.3938 244.60721 831.9028 243.44162 836.0586 240.5773 840.41018 237.34818 841.5853 236.4192 842.5937 235.29688 843.39199 234.02933L848.0828 225.43354 850.55056 221.46643 851.54409 220.17954 852.6762 218.9643 854.9006 217.44039C858.3299 215.82875 865.78689 216.63445 869.50277 216.83545V260.07826C865.67416 260.53633 861.8164 260.70463 857.9625 260.5817 856.9809 260.52897 854.91787 259.8017 853.8414 259.44767L851.0253 256.05964 850.8803 255.3292C850.607 254.71569 850.4786 254.83238 850.35 254.9489 841.4767 262.52095 827.5631 266.473 816.0477 264.90138 803.0302 263.00517 791.1029 256.56584 782.37588 246.72257 772.9297 235.84226 767.99746 221.54068 766.75918 207.39879 765.549 196.12667 766.5233 184.72695 769.62869 173.82364 773.14407 161.92784 778.68899 150.72913 786.0187 140.72196 796.0889 126.62525 806.8288 113.019107 818.2013 99.950298 823.5057 93.727329 828.2213 87.025638 832.2875 79.93137 840.2116 65.80943 843.5122 47.010877 838.5438 31.340779 836.4561 24.893866 830.92739 20.16375 824.23507 19.098896 820.07229 18.827357 815.91329 19.68322 812.196 21.576375 808.4765 23.411847 802.98617 26.385272 800.82839 30.269444 798.11868 36.16687 795.52938 42.11889 793.0621 48.12179L790.6251 53.245615 789.6164 54.87813 788.40127 56.443758 785.88796 58.34927C780.4621 59.923849 776.5519 59.294897 771.108 58.99236V3.862346H787.74258L789.516 12.982219Z" fill="#b92320" fill-rule="evenodd"/>
<path transform="matrix(1,0,0,-1,0,265.24244)" d="M249.19634 93.5999 278.7767 22.636712H268.01466V3.862346H349.7854V22.636712H328.4086L271.04637 157.91553 312.90675 240.95296H335.7863V260.6022H282.01377V240.95296H291.0236L249.16672 158.98482V240.95296H265.79069V260.6022H185.7698V250.61154C185.69362 245.04372 190.10788 240.53749 195.48592 240.9587L195.29717 240.95296H203.2687V22.636712H185.7698V3.862346H265.79069V22.636712H249.16945L249.19634 93.5999Z" fill="#b92320" fill-rule="evenodd"/>
<path transform="matrix(1,0,0,-1,0,265.24244)" d="M518.5245 22.636712C518.05307 50.7943 517.8554 78.9558 517.9316 107.11723 517.8796 113.15113 518.098 119.18433 518.5863 125.19867 519.6732 132.45714 550.70187 227.84969 554.9817 240.95296H575.5212V260.6022H519.9988V250.59552C519.9693 248.14601 520.78329 245.77426 522.4406 243.93611 524.38467 241.97785 527.0465 240.90213 529.8053 240.95987L529.5261 240.95296H532.9204L507.36549 160.05849 480.06135 240.95296H482.78233C485.1993 240.92974 487.55699 241.74294 489.3803 243.36173 491.3602 245.2935 492.45127 247.9592 492.39405 250.72476L492.40144 250.48012V260.6022H412.38056V240.95296H433.02339C444.55049 208.70619 455.8044 176.36241 466.7839 143.92511 469.04753 137.47925 471.04969 130.94455 472.78556 124.337009 473.69679 118.173328 472.86967 44.187 472.6646 22.580588 467.14933 22.452017 461.631 22.58149 456.1278 22.968579V3.862346H536.1487V22.636712H518.5245Z" fill="#b92320" fill-rule="evenodd"/>
<path transform="matrix(1,0,0,-1,0,265.24244)" d="M1127.2106 240.89344V22.636712H1110.5867V3.862346H1190.6076V22.636712H1173.1087V241.15001C1175.8312 241.16246 1178.5535 241.10048 1181.2727 240.9641 1185.7483 240.68349 1189.9732 238.80022 1193.1737 235.65906 1196.7158 231.83533 1198.7692 226.86809 1198.9609 221.65937 1199.2448 214.38391 1199.1425 207.09854 1198.6547 199.83393H1218.6057V260.6022H1081.7135V199.83393H1101.5862C1101.2828 206.18215 1101.208 212.53925 1101.362 218.89286 1101.541 227.44702 1105.3394 238.45139 1115.267 239.9366 1119.2318 240.4341 1123.217 240.75336 1127.2106 240.89344Z" fill="#b92320" fill-rule="evenodd"/>
<path transform="matrix(1,0,0,-1,0,265.24244)" d="M1349.8733 22.545792 1349.849 135.96819H1388.8192L1388.8418 22.173106C1385.7711 22.320755 1382.699 22.437619 1379.626 22.523678L1375.593 21.512227 1372.7313 18.193089 1369.1932 4.862592 1448.8685 3.785987 1453.5817 22.636712H1433.8423V240.95296H1441.6946C1444.009 240.89537 1446.2669 241.67424 1448.0536 243.14669 1450.3301 244.94655 1451.5606 247.76201 1451.3353 250.65532L1451.3412 250.48012V260.6022H1371.3203V240.95296H1388.817L1388.7929 155.63 1349.8475 155.61939V240.95296H1367.3464V260.6022H1287.3256V250.61154C1287.2494 245.04372 1291.6636 240.53749 1297.0416 240.9587L1296.8529 240.95296H1304.8245V22.636712H1285.0851L1289.779 3.862346H1367.3464V22.972552C1361.5293 22.613755 1355.7009 22.471402 1349.8733 22.545792Z" fill="#b92320" fill-rule="evenodd"/>
<path transform="matrix(1,0,0,-1,0,265.24244)" d="M1618.9782 123.575267C1619.2152 120.07863 1619.2055 116.56965 1618.949 113.074398L1618.3822 105.347629H1638.5794V179.85938L1628.9751 180.20507 1626.3628 179.93653 1623.6705 178.54451C1621.4402 176.89196 1620.0296 173.8391 1619.2169 171.24602 1618.6929 168.93183 1618.5458 166.54822 1618.7814 164.18717L1618.9118 161.19895C1618.8038 159.47106 1616.1893 157.35199 1614.6115 156.46768 1610.757 154.32859 1606.5186 152.97016 1602.1387 152.47002 1597.3866 152.05686 1588.9253 152.11794 1583.4578 152.11794V240.95296L1618.6837 240.96189C1620.4557 241.00626 1620.7478 240.83608 1622.538 240.33867 1635.2694 236.80107 1637.5792 226.85854 1636.2908 213.62178 1635.8981 210.32204 1636.6276 206.98619 1638.3617 204.15152L1639.5776 202.39801 1641.1089 200.77227 1644.6826 198.74579 1649.3601 199.22281 1652.1909 201.16498 1653.8693 203.1409C1655.2673 204.89539 1656.0281 207.0727 1656.027 209.31612L1656.0867 260.6022H1520.9358V240.95296H1538.4338L1538.4052 22.595067C1532.5807 22.522786 1526.7553 22.614665 1520.9358 22.870596V3.862346H1656.0783V64.63062L1645.6442 64.62386C1640.4326 64.509288 1636.2642 60.238317 1636.4297 55.206758L1636.438 55.47216C1636.1881 50.59688 1636.0859 45.71514 1636.1318 40.83367 1636.0953 36.22069 1632.9114 28.7152 1628.2291 26.212832 1625.3008 24.861506 1622.2233 23.860507 1619.0603 23.230608 1617.5844 22.852087 1616.0687 22.650656 1614.5453 22.63057L1583.4578 22.636712V132.46869L1601.6083 132.47112C1603.2283 132.51322 1604.8484 132.39241 1606.4442 132.11052 1610.629 131.41278 1617.8446 128.5876 1618.9782 123.575267Z" fill="#b92320" fill-rule="evenodd"/>
<path transform="matrix(1,0,0,-1,0,265.24244)" d="M1956.4503 29.131146C1952.311 25.16916 1946.866 22.857344 1941.1405 22.631096 1933.6183 22.326403 1926.0884 22.25491 1918.5618 22.416718V240.95296H1926.4141C1928.7286 240.89537 1930.9863 241.67424 1932.7731 243.14669 1935.0496 244.94655 1936.2802 247.76201 1936.0549 250.65532L1936.0607 250.48012V260.6022H1856.0398V240.95296H1873.4933L1872.1201 22.636712H1858.4933L1854.1796 5.38346C1894.1554 1.928987 1940.3541 2.1008 1981.5578 4.217253V64.63062H1961.593C1962.0159 57.27118 1962.1229 49.89699 1961.9137 42.52838 1961.7348 37.55694 1959.799 32.809976 1956.4503 29.131146Z" fill="#b92320" fill-rule="evenodd"/>
<path transform="matrix(1,0,0,-1,0,265.24244)" d="M2067.7764 240.62799V22.636712H2050.2777V3.862346H2130.2984V22.636712H2112.7996V240.95296H2120.7064C2123.1129 240.93651 2126.0782 241.89919 2127.7479 243.66707L2129.796 246.75193 2130.2984 249.84676V259.63664L2058.7664 260.54344 2055.484 259.87803 2052.6253 257.6874C2050.8267 254.45442 2049.6153 251.59285 2050.6285 247.85007 2052.7823 239.89362 2061.4664 240.6024 2067.7764 240.62799Z" fill="#b92320" fill-rule="evenodd"/>
<path transform="matrix(1,0,0,-1,0,265.24244)" d="M2334.9049 158.28372 2335.4886 22.636712H2318.8858V3.862346H2398.0316V22.636712H2382.235L2380.5872 240.95296H2398.0316V260.6022H2336.8897L2301.8245 103.228939 2261.6749 260.6022H2199.893V240.95296H2217.392V22.636712H2199.893V3.862346H2253.6658V22.636712H2237.0418V177.01784L2282.5865 .362854H2298.8778L2334.9049 158.28372Z" fill="#b92320" fill-rule="evenodd"/>
<path transform="matrix(1,0,0,-1,0,265.24244)" d="M2547.6473 3.862346V22.636712H2531.8507L2530.203 240.95296H2547.6473V260.6022H2467.6263V240.95296H2485.1253V22.636712H2467.6263V3.862346H2547.6473Z" fill="#b92320" fill-rule="evenodd"/>
<path transform="matrix(1,0,0,-1,0,265.24244)" d="M2662.6949 241.13225 2661.3206 22.636712H2645.2403V3.862346H2725.261V22.636712H2707.7623V241.2287C2710.6995 241.25705 2713.6368 241.1739 2716.5677 240.97942 2722.8482 240.4137 2729.9317 236.12696 2731.6578 229.68816 2733.1019 223.3422 2733.8358 216.85529 2733.8458 210.34708 2733.7696 206.92035 2733.8804 206.72377 2734.322 204.13639L2736.7169 201.17449C2739.6614 199.62554 2740.089 199.4626 2743.3768 198.75493L2747.5528 199.5504 2750.2718 202.18393C2751.6405 203.92517 2752.915 207.3796 2753.202 209.66867L2753.2689 260.6022H2617.242V197.3766L2629.2225 199.7725 2631.428 200.51532C2633.7794 201.95507 2635.372 204.36214 2635.7784 207.08908L2635.7755 207.05767C2635.898 208.3044 2635.8917 209.56046 2635.7564 210.80588 2635.3045 216.27835 2637.103 231.98445 2643.0206 236.89586 2646.1912 239.17774 2649.908 240.58234 2653.7952 240.96778 2656.76 241.0949 2659.7274 241.14974 2662.6949 241.13225Z" fill="#b92320" fill-rule="evenodd"/>
<path transform="matrix(1,0,0,-1,0,265.24244)" d="M15.357724 52.18138H11.856194V11.062346H17.105864C17.105864 11.062346 16.846894 16.209832 17.105864 20.161026 17.498139 26.14608 18.894858 28.672865 20.955622 27.684935 23.536257 26.44778 26.44634 19.968377 30.23004 15.874148 42.221925 2.898084 73.9969 5.877469 87.97641 15.874148 120.3638 39.03423 110.96519 87.686969 93.66355 115.17224 81.94947 133.78116 54.248476 164.88074 44.22916 181.22516 33.53291 198.67386 26.718232 235.7369 45.97905 248.5904 57.73547 256.4359 71.008419 250.53502 80.976848 240.2791 83.41502 237.7706 85.85526 234.97162 87.53893 231.53037 89.783397 226.94292 91.87674 219.88367 96.03942 225.12017 96.65721 225.89733 96.72586 226.29863 96.72586 229.13321V247.92549C96.72586 250.76007 96.65896 251.16118 96.0569 251.93654 94.54657 253.88162 92.97568 254.15706 91.91366 252.52732 90.05659 249.67749 88.48495 239.95639 88.48495 239.95639 88.48495 239.95639 85.23767 244.17075 82.72674 246.84066 75.10412 254.94585 60.99118 259.2085 52.086168 257.77656 12.701634 251.44345-.507325 210.90103 11.418722 172.91387 20.767523 143.13582 46.03189 128.25873 70.04004 88.05118 79.67045 71.92268 87.02801 43.342409 77.0396 24.185442 67.27266 5.453237 41.151826 9.810017 28.917622 25.935189 25.543564 30.382332 19.659104 41.80434 17.860127 49.115858 17.181292 51.87483 16.93105 52.18138 15.357724 52.18138Z" fill-rule="evenodd"/>
<path transform="matrix(1,0,0,-1,0,265.24244)" d="M682.939 224.09395C682.939 224.09395 683.0077 221.43975 682.939 219.45713 682.8499 216.88565 681.03219 213.1697 679.0018 211.40828 674.44857 207.45839 664.83078 200.07244 664.83078 200.07244 664.83078 200.07244 666.5944 198.00583 667.71499 197.41031 669.66018 196.37653 676.6368 201.45215 677.68936 202.22212 688.92306 210.44 695.75527 238.00624 685.12637 250.77758 681.3673 255.29433 673.2993 258.9199 668.3449 257.77656 657.6025 255.29755 650.84078 244.53102 652.3159 235.01236 653.70187 226.06946 659.38766 220.81267 668.3449 218.40727 669.5918 218.07244 670.61648 217.95606 672.15969 218.40727 675.9693 219.52114 682.939 224.09395 682.939 224.09395Z" fill-rule="evenodd"/>
<path transform="matrix(1,0,0,-1,0,265.24244)" d="M778.308 52.18138V11.062346H781.8078L785.3194 29.120732C785.3194 29.120732 793.44827 18.512894 798.43179 14.124402 806.6137 6.919331 827.367 6.004884 838.6792 8.875163 877.4111 18.702727 882.7206 64.71981 867.98989 99.42453 857.45706 124.2392 834.8305 145.15888 814.6182 174.66362 801.74588 193.454 795.35989 213.95673 803.24398 236.7796 806.8282 247.15525 817.03109 253.8806 827.8999 251.65245 834.791 250.23973 846.2425 243.7511 849.616 237.65448 852.31979 232.76827 856.401 224.57607 857.928 224.09395 859.8048 223.50138 862.30276 223.65651 862.30276 223.65651V253.40219C862.30276 253.40219 859.65396 253.58354 858.50546 253.40219 857.73318 253.28025 857.6336 252.84578 857.49057 251.65245 857.1176 248.54288 855.1757 240.07949 855.1757 240.07949 855.1757 240.07949 849.6535 246.02591 845.6788 249.46527 838.25399 255.88996 825.5977 259.22767 817.0856 257.77656 790.27188 253.20554 776.52578 232.85848 773.9333 206.77146 771.63137 183.60767 778.13296 164.94165 791.8696 144.91793 818.67147 105.849597 842.1612 92.39522 847.42868 56.8707 850.3021 37.491357 845.81246 15.198687 825.0301 11.937219 815.28378 10.407691 798.97659 18.546826 794.4945 26.810063 790.10488 34.902765 784.9802 51.032537 782.68276 51.743947 780.7474 52.343225 778.308 52.18138 778.308 52.18138Z" fill-rule="evenodd"/>
<path transform="matrix(1,0,0,-1,0,265.24244)" d="M247.02829 117.51436 289.57844 15.436711H275.21464V11.062346H342.5854V15.436711H323.64109L263.115 158.17691 308.47325 248.15296H328.58628V253.40219H289.21376V248.15296H302.78468L241.96672 129.05339V248.15296H258.59068V253.40219H192.9698C192.9698 253.40219 192.9677 251.64679 192.9698 250.48012 192.97249 248.99272 193.80219 248.1631 195.29717 248.15296 199.34934 248.12546 210.4687 248.15296 210.4687 248.15296V15.436711H192.9698V11.062346H258.59068V15.436711H241.96672V114.94478C241.96672 117.779369 242.03362 118.18047 242.63568 118.95583 243.75652 120.39931 244.22171 120.60373 245.29204 120.481418 245.76404 120.427478 245.93767 120.13077 247.02829 117.51436Z" fill-rule="evenodd"/>
<path transform="matrix(1,0,0,-1,0,265.24244)" d="M463.32783 15.436711V11.062346H528.94869V15.436711H511.44978C511.44978 15.436711 509.678 114.27318 511.44978 126.26563 513.0951 137.40235 549.78506 248.15296 549.78506 248.15296H568.3212V253.40219H527.1988C527.1988 253.40219 527.17947 251.64385 527.1988 250.48012 527.2239 248.9703 527.9994 248.19487 529.5261 248.15296 532.89749 248.0604 541.19796 248.15296 541.19796 248.15296V243.25366L507.59196 136.87354 470.03208 248.15296C470.03208 248.15296 479.26979 248.06133 482.87409 248.15296 484.39765 248.1917 485.17646 248.97045 485.20143 250.48012 485.22068 251.64406 485.20143 253.40219 485.20143 253.40219H419.58058V248.15296H438.09358C438.09358 248.15296 477.59049 137.80587 479.95176 125.39076 481.0029 119.864078 480.2295 55.238309 479.97465 20.16208 479.95405 17.327492 479.78355 16.940152 478.26945 16.288683 477.14619 15.805387 476.25413 15.567659 474.7196 15.436711 470.95597 15.115544 463.32783 15.436711 463.32783 15.436711Z" fill-rule="evenodd"/>
<path transform="matrix(1,0,0,-1,0,265.24244)" d="M1134.4107 248.15296V15.436711H1117.7866V11.062346H1183.4075V15.436711H1165.9086V248.15296C1165.9086 248.15296 1175.791 248.64113 1181.6752 248.15296 1196.0408 246.9611 1205.2012 236.45056 1206.1561 221.92426 1206.5299 216.23883 1206.1561 207.03392 1206.1561 207.03392H1211.4058V253.40219H1088.9135V207.03392H1094.1631C1094.1631 207.03392 1093.9426 214.08528 1094.1631 219.01969 1094.8508 234.4056 1102.1045 244.9514 1114.2161 247.06111 1121.6752 248.36042 1134.4107 248.15296 1134.4107 248.15296Z" fill-rule="evenodd"/>
<path transform="matrix(1,0,0,-1,0,265.24244)" d="M1360.1464 15.436711C1360.1464 15.436711 1351.1008 15.065599 1347.3023 15.436711 1345.4219 15.620412 1343.7359 16.700482 1342.974 19.07387 1342.6802 19.98932 1342.6475 20.40599 1342.6475 23.24058V143.16819H1396.0192V23.817996C1396.0192 20.983407 1395.9872 20.51782 1395.6994 19.162125 1394.682 14.369513 1391.7238 14.680933 1382.545 15.24362 1379.7102 15.417402 1379.3661 15.320178 1379.1039 14.27138L1378.5203 11.937219 1443.2662 11.062346 1444.3599 15.436711H1426.6422V248.15296C1426.6422 248.15296 1437.7616 248.12546 1441.8137 248.15296 1443.3087 248.1631 1444.1384 248.99272 1444.1411 250.48012 1444.1432 251.64679 1444.1411 253.40219 1444.1411 253.40219H1378.5203V248.15296H1396.0192V155.34642C1396.0192 152.51183 1395.9719 152.09349 1395.547 151.16306 1394.8295 149.59209 1394.1923 149.0069 1392.9486 148.63152 1392.3103 148.43883 1391.9244 148.41742 1389.0896 148.41742H1342.6475V248.15296H1360.1464V253.40219H1294.5255C1294.5255 253.40219 1294.5234 251.64679 1294.5255 250.48012 1294.5282 248.99272 1295.3579 248.1631 1296.8529 248.15296 1300.905 248.12546 1312.0244 248.15296 1312.0244 248.15296V15.436711H1294.3068L1295.4005 11.062346H1360.1464V15.436711Z" fill-rule="evenodd"/>
<path transform="matrix(1,0,0,-1,0,265.24244)" d="M1614.2479 15.436711H1576.2578V139.66869H1601.4213C1604.2561 139.66869 1604.8837 139.6219 1607.6967 139.20076 1617.7589 137.69435 1625.3353 130.7883 1626.1296 124.51589 1626.6721 120.23233 1626.1296 112.54762 1626.1296 112.54762H1631.3794V172.91387C1631.3794 172.91387 1629.3959 173.10604 1628.457 172.91387 1627.4805 172.71399 1626.4536 170.32118 1626.1296 169.13442 1625.4367 166.59558 1626.3114 163.50463 1626.1296 160.9456 1625.498 152.05178 1613.612 146.5965 1602.7532 145.2939 1599.9323 144.95552 1599.3038 144.91793 1596.469 144.91793H1576.2578V248.15296H1618.3252C1621.16 248.15296 1621.7783 248.0652 1624.5077 247.27538 1635.474 244.10214 1642.6472 236.74074 1643.6286 223.97147 1644.3888 214.07993 1642.2235 211.5255 1644.5036 207.9088 1646.1109 205.35933 1646.8622 205.78209 1648.2384 207.62802 1648.8142 208.40039 1648.8783 208.80117 1648.8783 211.63576V253.40219H1528.1359V248.15296H1545.6348V23.24058C1545.6348 20.40599 1545.5892 19.973088 1545.1792 18.911555 1544.2223 16.433543 1542.7324 15.563832 1540.98 15.436711 1537.3742 15.175137 1528.1359 15.436711 1528.1359 15.436711V11.062346H1648.8783V57.43062C1648.8783 57.43062 1647.1185 57.54752 1645.9559 57.43062 1644.305 57.26462 1643.7389 56.388666 1643.6286 55.10346 1642.4718 41.622438 1645.5011 37.56643 1638.8164 26.810063 1634.844 20.418107 1630.2838 18.512806 1620.4666 16.169272 1617.7046 15.509967 1617.0828 15.436711 1614.2479 15.436711Z" fill-rule="evenodd"/>
<path transform="matrix(1,0,0,-1,0,265.24244)" d="M1969.1082 57.43062C1969.1082 57.43062 1969.507 47.973905 1969.1082 42.242826 1967.9585 25.725649 1956.7134 16.61182 1941.4248 15.436711 1931.3078 14.659086 1911.3617 15.436711 1911.3617 15.436711V248.15296C1911.3617 248.15296 1922.4811 248.12546 1926.5333 248.15296 1928.0283 248.1631 1928.8579 248.99272 1928.8606 250.48012 1928.8628 251.64679 1928.8606 253.40219 1928.8606 253.40219H1863.2398V248.15296H1880.7387L1879.2749 15.436711H1864.1148L1863.2398 11.937219C1863.2398 11.937219 1878.8787 10.741169 1895.1753 10.187473 1932.9953 8.902495 1974.3578 11.077091 1974.3578 11.077091V57.43062H1969.1082Z" fill-rule="evenodd"/>
<path transform="matrix(1,0,0,-1,0,265.24244)" d="M2123.0985 252.52732 2061.502 253.35964C2058.6676 253.39794 2058.312 253.30648 2057.948 252.44496 2056.9544 250.0942 2057.5159 248.48046 2059.805 248.15296 2063.9425 247.56098 2074.9766 248.15296 2074.9766 248.15296V15.436711H2057.4776V11.062346H2123.0985V15.436711H2105.5997V248.15296C2105.5997 248.15296 2116.7205 247.97565 2120.771 248.15296 2122.3436 248.22179 2123.0626 248.92452 2123.0985 250.42763 2123.1195 251.30342 2123.0985 252.52732 2123.0985 252.52732Z" fill-rule="evenodd"/>
<path transform="matrix(1,0,0,-1,0,265.24244)" d="M2288.1656 7.562854H2293.1353L2341.8348 221.03189 2342.7198 15.436711H2326.0858V11.062346H2390.8316V15.436711H2375.089L2373.3328 248.15296H2390.8316V253.40219H2342.662L2302.2979 72.24762 2256.081 253.40219H2207.0933V248.15296H2224.592V15.436711H2207.0933V11.062346H2246.4656V15.436711H2229.8419V233.78459L2288.1656 7.562854Z" fill-rule="evenodd"/>
<path transform="matrix(1,0,0,-1,0,265.24244)" d="M2540.4473 11.062346V15.436711H2524.7049L2522.9483 248.15296H2540.4473V253.40219H2474.8265V248.15296H2492.3253V15.436711H2474.8265V11.062346H2540.4473Z" fill-rule="evenodd"/>
<path transform="matrix(1,0,0,-1,0,265.24244)" d="M2669.939 248.15296 2668.4754 15.436711H2652.4403V11.062346H2718.061V15.436711H2700.562V248.15296C2700.562 248.15296 2711.0836 248.8457 2717.2037 248.15296 2727.5606 246.98065 2736.1793 240.46082 2738.6224 231.53037 2739.622 227.87575 2741.4617 215.72606 2741.046 210.18346 2740.8333 207.34888 2740.9112 206.9928 2741.8253 206.62273 2744.04 205.72599 2744.312 205.72753 2745.504 208.60004 2746.0037 209.80466 2746.0594 210.25345 2746.0594 213.08805V253.40219H2624.442V206.15904L2627.3599 206.74259C2628.671 207.00479 2628.793 207.34888 2628.5804 210.18346 2627.6849 222.12424 2632.07 237.64089 2638.441 242.46628 2642.669 245.66864 2648.2933 247.78395 2653.2977 248.15296 2659.3978 248.60276 2669.939 248.15296 2669.939 248.15296Z" fill-rule="evenodd"/>
</g>
</svg>
