<svg xmlns="http://www.w3.org/2000/svg" xmlns:xlink="http://www.w3.org/1999/xlink" xmlns:inkscape="http://www.inkscape.org/namespaces/inkscape" version="1.1" width="2782.6036" height="3892.896" viewBox="0 0 2782.6036 3892.896">
<g inkscape:groupmode="layer" inkscape:label="Layer 1">
<path transform="matrix(1,0,0,-1,0,3892.896)" d="M1316.8134 3.668896H1330.9317 1409.614 1570.684 1660.2189V34.09062C1691.1089 11.458387 1728.147-.106452 1766.2326 .003998 1785.582-.000144 1804.799 3.195863 1823.1055 9.462647 1840.4533 15.470846 1856.9271 23.754317 1872.0958 34.0962L1917.7424 64.97842V357.42759 361.46583C1967.4082 355.43135 2017.6597 372.1305 2052.2232 408.5059V3.668902H2261.7232 2361.9754 2571.4757V13.940715C2592.1336 4.690979 2614.5223-.060111 2637.1563 .002663 2656.5567-.093538 2675.8187 3.273755 2694.0357 9.946133 2712.0574 16.63855 2728.8663 26.2269 2743.7999 38.333215L2782.6036 69.50419V388.42109L2779.348 385.50218V422.3378L2735.7835 453.38829C2722.8328 462.61878 2708.7838 470.20137 2693.96 475.9612 2677.1507 482.61109 2659.3148 486.2936 2641.246 486.84486L2637.6082 486.89207C2616.8514 486.79777 2596.3013 482.76316 2577.0496 475.0026L2554.0462 525.29586C2555.059 528.7035 2556.0216 532.126 2556.9329 535.56228 2562.2667 555.17086 2565.8428 575.2156 2567.619 595.4588L2577.5252 708.35989H2565.8868V939.77267H2514.85V1076.8587H2538.924V1328.8065H2184.5567 2051.0523 1935.8374L1935.6421 1269.2192 1895.3231 1329.4822 1791.6709 1328.2234V1328.8065H1479.444L1478.7418 1449.7822H1569.9313V1515.2632H1663.8659L1664.1692 1598.0774H1806.645L1806.847 1736.7429H2045.0851L2039.4414 3349.7032 1581.4011 3353.7747 1584.4113 3564.3238 1194.3788 3829.2332V3892.896H904.4326V3418.1593H652.6905L651.48727 3159.463 369.53996 3158.8792 361.62763 1322.1622C356.05897 1324.0336 347.47126 1326.5997 342.07374 1327.8163 332.12 1329.7598 322.08155 1331.241 311.99067 1332.255 312.3231 1332.2233 312.6554 1332.19 312.9875 1332.155L298.60343 1333.6687C298.79634 1333.6483 298.98918 1333.6276 299.18193 1333.6062 284.01924 1335.2156 268.79878 1336.2241 253.55628 1336.6292 240.77964 1335.7725 228.04746 1334.3474 215.3976 1332.358 215.55184 1332.3833 215.70615 1332.4082 215.8605 1332.4328L204.3187 1330.5967C195.23313 1329.2092 186.22112 1327.3768 177.31519 1325.106L172.16857 1323.6515C148.97014 1316.4454 126.882999 1306.0574 106.53811 1292.7842 81.338977 1276.3677 59.620325 1255.1483 42.622385 1230.3378 7.242341 1178.6019-2.92988 1115.5194 9.158423 1054.5765 11.506114 1042.425 14.810954 1030.4783 19.042046 1018.8479L3.009159 1015.01907 .108888 902.37258C-.271717 893.03048 .346116 883.67446 1.951883 874.46359 3.783269 862.9292 6.223722 851.49996 9.263006 840.2235 13.983825 822.4631 20.980845 805.38748 30.080109 789.42117 62.465875 732.7645 122.9259 699.40798 185.32198 687.1021 206.44837 682.8697 227.90694 680.5093 249.44818 680.04837V483.22904H246.39585 16.95378V243.05805H58.87244V3.668896H246.39585 301.47355 488.99693 602.605L602.4823 4.211282C614.5183 1.398867 626.839-.013284 639.19918 .002925 652.18496-.07769 665.12747 1.5082 677.7096 4.721753 713.2645 13.790073 742.01437 31.761988 764.9848 60.073984 773.3646 49.878637 782.8588 40.65281 793.29019 32.56865 821.25057 11.194674 855.2409 .041014 890.3409 .002663 908.0466-.085134 925.6483 2.711897 942.4546 8.283873V3.668896H1057.2858 1167.013 1185.0557 1316.8134Z" fill-rule="evenodd"/>
<path transform="matrix(1,0,0,-1,0,3892.896)" d="M1475.9306 2874.9429 1470.4103 1619.0891H1560.4196L1565.3452 2963.8177H1476.3212L1476.3128 2961.8917H1395.493L1383.6835 1553.6082H1466.1052V1734.1047L1467.0629 1923.4651C1469.6124 2240.628 1472.5684 2557.7877 1475.9306 2874.9429Z" fill="#ffffff" fill-rule="evenodd"/>
<path transform="matrix(1,0,0,-1,0,3892.896)" d="M1363.3429 776.5034H1549.8823V851.094H1378.3887L1366.0473 2977.6143 1624.4818 2974.1685 1618.7031 1701.9033H1702.9702L1704.9398 3054.0916 1191.0951 3062.4185 1205.5398 816.75186 1205.2633 776.7215 1363.3429 776.5034Z" fill="#ffffff" fill-rule="evenodd"/>
<path transform="matrix(1,0,0,-1,0,3892.896)" d="M622.6558 952.6574 716.772 776.5034H892.12808L724.58987 1086.6535 845.9048 1240.1278H749.9008L623.6881 1078.076 631.1633 2977.719 892.6609 2975.993 888.8088 1628.7188H964.36398L968.2994 3056.2928 472.92054 3055.267 463.1039 776.5034H622.5473L622.6558 952.6574Z" fill="#ffffff" fill-rule="evenodd"/>
<path transform="matrix(1,0,0,-1,0,3892.896)" d="M1474.0441 3107.5267 1474.5248 3070.027 1566.3953 3071.4625 1565.4359 3172.1944 1848.9727 3169.5853 1853.788 1840.5689H1940.8953L1935.975 3246.7928 1476.0935 3250.8807 1479.7962 3509.8685 1090.5527 3774.242V3789.07H1008.2586V3314.3333H756.0346L754.9308 3077.0032H838.25857V3241.6685H1007.2527L1002.4387 1540.4055 1084.7335 1538.8816 1090.4757 3666.3853 1386.5781 3464.9134 1380.6912 3076.0404H1473.5939L1474.0441 3107.5267Z" fill="#ffffff" fill-rule="evenodd"/>
<path transform="matrix(1,0,0,-1,0,3892.896)" d="M754.1697 2960.9288 743.31356 1713.4588H824.64596L835.5021 2960.9288H754.1697Z" fill="#ffffff" fill-rule="evenodd"/>
<path transform="matrix(1,0,0,-1,0,3892.896)" d="M1022.44296 3256.816 1017.6282 1555.2742 1069.6277 1554.3112 1075.4055 3694.9605 1401.8473 3472.8453 1396.0696 3091.1876H1458.6616L1464.5337 3501.9239 1075.4055 3766.219V3773.9229H1023.4059V3299.1859H771.11166L770.1487 3092.1505H823.1112V3256.816H1022.44296Z" fill="#b92320" fill-rule="evenodd"/>
<path transform="matrix(1,0,0,-1,0,3892.896)" d="M1868.8805 1855.7162H1925.6948L1920.88 3231.779 1487.5503 3235.6309 1489.4762 3085.41 1551.1054 3086.3729 1550.1423 3187.4832 1864.0657 3184.5943 1868.8805 1855.7162Z" fill="#b92320" fill-rule="evenodd"/>
<path transform="matrix(1,0,0,-1,0,3892.896)" d="M1363.3533 835.9467V791.65078H1534.7351V835.9467H1363.3533Z" fill="#b92320" fill-rule="evenodd"/>
<path transform="matrix(1,0,0,-1,0,3892.896)" d="M1220.5155 791.8478 1363.3533 791.65078V835.9467H1363.3291L1350.8107 2992.966 1639.6972 2989.1143 1633.9194 1717.0507H1687.845L1689.7709 3039.188 1206.3418 3047.022 1220.6874 816.7482 1220.5155 791.8478Z" fill="#b92320" fill-rule="evenodd"/>
<path transform="matrix(1,0,0,-1,0,3892.896)" d="M608.37057 1033.7577V963.4516C608.691 963.9255 609.1166 964.44326 609.6805 965.0942 609.98757 965.4487 620.66769 979.50277 624.62466 980.2899 625.0774 980.37997 625.2909 980.0841 626.7598 977.3316L725.8528 791.65078H866.7297L706.52456 1088.2256 814.6235 1224.9806H757.30288L608.37057 1033.7577Z" fill="#b92320" fill-rule="evenodd"/>
<path transform="matrix(1,0,0,-1,0,3892.896)" d="M608.37057 963.4516V1033.7577L608.3662 1033.7522 616.07589 2992.966 907.85128 2991.0404 903.99948 1643.866H949.25839L953.11019 3041.1138 488.00288 3040.151 478.31663 791.65078H607.4093V959.0055C607.4093 961.2648 607.5284 962.20736 608.37057 963.4516Z" fill="#b92320" fill-rule="evenodd"/>
<path transform="matrix(1,0,0,-1,0,3892.896)" d="M1545.3275 1634.2365 1550.1423 2948.6702H1491.4021L1485.6244 1634.2365H1545.3275Z" fill="#b92320" fill-rule="evenodd"/>
<path transform="matrix(1,0,0,-1,0,3892.896)" d="M769.1857 2945.7813 758.59329 1728.6061H809.6299L820.22238 2945.7813H769.1857Z" fill="#b92320" fill-rule="evenodd"/>
<path transform="matrix(1,0,0,-1,0,3892.896)" d="M1450.958 1568.7555C1450.958 1568.7555 1450.8685 1651.283 1450.958 1734.1431 1451.2328 1988.8419 1461.5504 2946.7445 1461.5504 2946.7445H1410.5138L1398.9584 1568.7555H1450.958Z" fill="#b92320" fill-rule="evenodd"/>
<path transform="matrix(1,0,0,-1,0,3892.896)" d="M164.62804 946.86996 104.74672 932.5696 103.87299 898.6339C103.792697 895.51498 103.83907 894.82608 104.33684 891.7448 111.36751 848.2236 123.75702 823.26358 163.00551 803.20626 214.86415 776.70468 306.34809 777.5879 355.59654 804.1692 403.7162 830.1412 428.9989 875.2925 424.4478 931.31777 420.18226 983.82839 383.2957 1023.0668 338.7448 1047.7968 320.60218 1057.8677 245.64307 1086.4252 226.56055 1096.9075 202.16033 1110.311 183.84738 1127.3715 187.56087 1154.7041 192.82617 1193.4588 234.18546 1200.2625 271.06834 1198.0178 314.7758 1195.3578 343.65028 1179.8538 351.26325 1137.159 352.06214 1132.6787 352.44813 1128.8645 352.2262 1122.9074 351.80473 1111.595 349.19099 1092.5553 349.19099 1092.5553L406.15168 1104.3287C406.15168 1104.3287 405.08915 1127.0111 402.78135 1141.2035 396.5459 1179.5493 371.81398 1206.1342 336.8189 1220.6472 330.94734 1223.0823 325.36085 1224.9035 319.48573 1226.4249 312.26426 1228.2952 265.02574 1232.9334 255.73809 1232.6842 246.62242 1232.4396 210.18755 1226.7882 202.96814 1224.499 135.43669 1203.0859 96.973339 1147.287 111.00593 1074.7595 119.32476 1031.7637 145.9708 1000.97769 181.78313 978.9455 207.43874 963.1619 280.1229 940.8794 307.44877 913.94607 324.57069 897.07009 330.02558 877.9679 321.8931 854.24288 313.19419 828.86526 290.08363 821.2681 262.70988 818.6135 240.96843 816.50509 203.0967 820.7201 183.70905 836.42819 163.05792 853.1599 156.1744 882.24807 158.67221 908.53427 160.08081 923.358 164.62804 946.86996 164.62804 946.86996Z" fill="#ffffff" fill-rule="evenodd"/>
<path transform="matrix(1,0,0,-1,0,3892.896)" d="M970.44338 791.65078H1096.5905V952.1561L1201.5526 1224.9806H1152.1145L1072.5477 1015.54348 984.8877 1224.9806H853.9039L970.44338 951.52059V791.65078Z" fill="#ffffff" fill-rule="evenodd"/>
<path transform="matrix(1,0,0,-1,0,3892.896)" d="M1687.845 791.65078V1224.9806H1562.6608V791.65078H1687.845Z" fill="#ffffff" fill-rule="evenodd"/>
<path transform="matrix(1,0,0,-1,0,3892.896)" d="M1761.0296 1224.0176V791.65078H1803.3995V1066.5003L1984.8983 791.65078H2080.7308V1224.9806H2039.3235L2038.353 928.9876 1840.3192 1224.9806 1761.0296 1224.0176Z" fill="#ffffff" fill-rule="evenodd"/>
<path transform="matrix(1,0,0,-1,0,3892.896)" d="M2411.0242 1007.35269V1051.6487H2280.0623V1180.6846H2435.0982V1224.9806H2154.8782V791.65078H2462.0609V835.9467H2280.0623V1007.35269H2411.0242Z" fill="#ffffff" fill-rule="evenodd"/>
<path transform="matrix(1,0,0,-1,0,3892.896)" d="M353.27415 467.79103H386.1915C407.12528 468.04414 423.93119 471.96583 436.60923 479.55613 449.28727 487.1464 458.45909 496.88658 464.12464 508.7766 469.79023 520.6667 472.5712 533.1879 472.46763 546.3404 472.46797 562.422 469.013 576.08096 462.1028 587.31729 455.1926 598.5535 444.82508 607.4193 431.00028 613.9145 442.43333 620.9051 451.1727 629.4023 457.2184 639.40597 463.26414 649.40969 466.3123 660.4587 466.36296 672.55307 466.1025 690.5002 459.61326 706.0196 446.89518 719.1113 434.17713 732.203 416.7929 739.0657 394.74259 739.6992H353.27415V467.79103ZM388.2233 500.3101V591.964H394.33515C410.0366 591.4378 421.20585 586.4816 427.8429 577.09548 434.47999 567.70938 437.70515 557.0503 437.51844 545.11837 437.42509 530.9545 433.63969 519.9731 426.1623 512.1741 418.68489 504.3751 408.07554 500.4204 394.3343 500.3101H388.2233ZM388.2233 624.48306V707.1802H391.4825C404.19874 707.10379 414.01179 703.5901 420.92164 696.63919 427.8315 689.68826 431.3289 679.7585 431.4138 666.8498 431.27796 653.6781 427.6787 643.358 420.61613 635.88949 413.5535 628.42098 403.84245 624.61886 391.48295 624.48306H388.2233Z" fill="#ffffff"/>
<path transform="matrix(1,0,0,-1,0,3892.896)" d="M590.0418 739.6992V534.91567C590.4553 513.0892 596.3336 495.8976 607.67666 483.341 619.01968 470.78443 633.3461 464.37974 650.65597 464.1269 658.3298 463.95088 666.8271 465.97407 676.1479 470.19654 685.4687 474.41899 693.5674 481.89689 700.4439 492.63029 707.3205 503.36366 710.9292 518.40878 711.27017 537.7655V739.6992H676.321V533.6943C676.09188 520.7511 673.49478 511.3194 668.5298 505.39915 663.5648 499.47889 657.6069 496.56117 650.65597 496.64598 642.10098 496.80714 635.6847 500.35249 631.4072 507.2821 627.1297 514.2117 624.99099 523.5586 624.99099 535.3228V739.6992H590.0418Z" fill="#ffffff"/>
<path transform="matrix(1,0,0,-1,0,3892.896)" d="M838.20486 467.79103H873.154V739.6992H838.20486V467.79103Z" fill="#ffffff"/>
<path transform="matrix(1,0,0,-1,0,3892.896)" d="M1002.12356 467.79103H1104.224V500.3101H1037.0728V739.6992H1002.12356V467.79103Z" fill="#ffffff"/>
<path transform="matrix(1,0,0,-1,0,3892.896)" d="M1209.9959 467.79103H1253.4985C1266.7704 467.37837 1280.1344 470.77815 1293.5906 477.99034 1307.0468 485.2025 1318.3533 498.7031 1327.51 518.49209 1336.6668 538.28109 1341.4319 566.8344 1341.8056 604.15219 1342.2993 644.8975 1335.5208 677.5166 1321.4697 702.00936 1307.4187 726.5021 1283.1325 739.06539 1248.6109 739.6992H1209.9959V467.79103ZM1244.945 500.3101V707.1802H1251.0547C1271.3778 707.6298 1285.8204 699.8076 1294.3825 683.7137 1302.9445 667.61978 1307.1026 640.5563 1306.8565 602.52328 1307.0431 566.1955 1302.6985 539.99746 1293.8224 523.9291 1284.9464 507.8607 1270.419 499.9877 1250.24 500.3101H1244.945Z" fill="#ffffff"/>
<path transform="matrix(1,0,0,-1,0,3892.896)" d="M1463.0425 467.79103H1563.108V500.3101H1497.9917V593.18539H1554.5615V625.7044H1497.9917V707.1802H1559.8523V739.6992H1463.0425V467.79103Z" fill="#ffffff"/>
<path transform="matrix(1,0,0,-1,0,3892.896)" d="M1683.5311 467.79103H1718.4802V589.52127C1728.1371 590.62246 1735.8302 585.05807 1741.5597 572.82797 1747.2892 560.59786 1753.0388 541.19198 1758.8084 514.61038L1769.3744 467.79103H1805.9804L1793.3641 523.5671C1788.7438 544.0845 1783.4401 561.4701 1777.453 575.72378 1771.4658 589.9775 1764.4382 600.132 1756.37 606.1873 1765.7169 612.67459 1772.727 620.74478 1777.4005 630.39797 1782.0739 640.0512 1784.4107 651.3873 1784.4107 664.40646 1784.5668 676.1085 1782.5387 687.68478 1778.3263 699.13516 1774.114 710.5855 1766.7808 720.13479 1756.3267 727.7831 1745.8724 735.43136 1731.3606 739.4034 1712.791 739.6992H1683.5311V467.79103ZM1718.4802 622.0403V707.1802C1729.0452 707.0273 1736.8584 703.3609 1741.92 696.181 1746.9816 689.00119 1749.4954 678.00228 1749.4614 663.1843 1749.4359 649.7073 1746.9391 639.48916 1741.971 632.52999 1737.0028 625.5708 1729.7161 622.0742 1720.1109 622.0403H1718.4802Z" fill="#ffffff"/>
<path transform="matrix(1,0,0,-1,0,3892.896)" d="M1903.2033 474.6952C1909.036 471.05387 1914.7424 468.37794 1920.3224 466.66737 1925.9024 464.9568 1931.7125 464.11 1937.7529 464.1269 1954.7059 464.42213 1968.2407 470.23365 1978.3574 481.56147 1988.474 492.8893 1993.6585 507.96226 1993.9108 526.7803 1993.6056 541.0774 1990.5532 555.3428 1984.7538 569.5763 1978.9544 583.8098 1972.2393 597.74429 1964.6084 611.3797 1956.9776 625.01516 1950.2625 638.0843 1944.463 650.5871 1938.6636 663.08999 1935.6113 674.7593 1935.306 685.5951 1935.3402 694.34188 1937.6168 700.8746 1942.1361 705.19326 1946.6554 709.51187 1953.2128 711.667 1961.808 711.65859 1965.7192 711.6839 1969.478 711.022 1973.0846 709.6726 1976.691 708.32327 1981.0595 706.1342 1986.1897 703.10549V736.0469C1980.6026 738.6635 1975.5225 740.54348 1970.9497 741.68667 1966.3768 742.82986 1961.7003 743.38876 1956.9199 743.36337 1940.3577 743.0597 1927.0608 737.2651 1917.0292 725.9795 1906.9976 714.6939 1901.8472 699.7393 1901.5778 681.1157 1901.883 667.1049 1904.9354 652.9541 1910.7348 638.66329 1916.5342 624.3725 1923.2494 610.3235 1930.8801 596.51626 1938.511 582.70907 1945.2261 569.5254 1951.0255 556.9653 1956.825 544.40518 1959.8773 532.85037 1960.1825 522.30087 1959.9955 514.7843 1957.413 508.5403 1952.4348 503.56886 1947.4567 498.5974 1941.2052 496.01838 1933.6804 495.83174 1928.5756 495.87416 1923.4452 497.21458 1918.2894 499.853 1913.1338 502.49143 1908.105 506.17335 1903.2033 510.89878V474.6952Z" fill="#ffffff"/>
<path transform="matrix(1,0,0,-1,0,3892.896)" d="M2430.0164 464.1269H2467.853L2441.8067 521.0734C2447.7757 533.9657 2452.727 547.774 2456.6612 562.49838 2460.5953 577.22268 2463.105 591.23458 2464.1903 604.53396H2433.2669C2432.454 597.8503 2431.337 590.8613 2429.9149 583.567 2428.493 576.2727 2426.766 568.4695 2424.7347 560.15737H2423.922L2397.4749 622.4474C2411.2523 634.5595 2421.3636 646.2674 2427.8087 657.57107 2434.2537 668.87466 2437.4422 680.3836 2437.374 692.09799 2437.0689 706.6721 2432.5909 718.6441 2423.94 728.01388 2415.289 737.3836 2404.2955 742.2287 2390.9593 742.54916 2376.758 742.1106 2364.9517 736.3842 2355.5404 725.3699 2346.129 714.3556 2341.2454 700.68447 2340.89 684.3565 2340.8558 676.8947 2342.0416 668.59378 2344.4473 659.45358 2346.8529 650.31338 2350.683 639.8779 2355.9378 628.14718 2341.801 615.50088 2331.471 602.422 2324.9473 588.9105 2318.4237 575.3991 2315.2037 560.38638 2315.2874 543.8724 2315.7039 521.13497 2321.5858 502.29695 2332.9337 487.35844 2344.2816 472.41996 2358.5972 464.67613 2375.8809 464.1269 2383.7786 464.11 2391.317 466.0749 2398.4964 470.02168 2405.6759 473.96846 2412.7967 479.9987 2419.8594 488.11244L2430.0164 464.1269ZM2405.6339 520.25918C2401.0487 512.60867 2396.6673 507.1464 2392.4896 503.87245 2388.312 500.59849 2383.7269 499.0039 2378.734 499.0887 2370.4293 499.34318 2363.6517 503.82154 2358.4014 512.5238 2353.1512 521.2261 2350.4415 532.6256 2350.2725 546.7223 2350.12 556.0861 2351.5423 564.3304 2354.5389 571.4551 2357.5357 578.5798 2363.021 587.0276 2370.995 596.7986L2405.6339 520.25918ZM2383.639 651.3533C2379.9727 658.50906 2377.2232 665.3847 2375.3902 671.9803 2373.5572 678.5758 2372.6407 684.73849 2372.6407 690.4682 2372.751 697.5646 2374.465 703.43869 2377.7833 708.0904 2381.1014 712.7421 2385.3616 715.1529 2390.5638 715.32266 2395.5367 715.1868 2399.542 713.01376 2402.58 708.8034 2405.6182 704.5931 2407.1795 699.1604 2407.2645 692.50546 2407.4512 685.72317 2405.8558 679.4247 2402.4783 673.61007 2399.1009 667.7955 2392.821 660.3765 2383.639 651.3533Z" fill="#ffffff"/>
<path transform="matrix(1,0,0,-1,0,3892.896)" d="M162.6984 107.49485H197.64757V346.884H239.56624V379.40309H120.77973V346.884H162.6984V107.49485Z" fill="#ffffff"/>
<path transform="matrix(1,0,0,-1,0,3892.896)" d="M350.2218 107.49485H385.171V229.22505C394.82777 230.3263 402.52088 224.76186 408.2504 212.53176 413.97993 200.30167 419.72947 180.8958 425.49903 154.31417L436.0651 107.49485H472.6711L460.0548 163.27089C455.43446 183.78833 450.13075 201.1739 444.14366 215.42761 438.15657 229.68132 431.1289 239.83585 423.0607 245.89118 432.40763 252.37837 439.41777 260.44859 444.0912 270.1018 448.7646 279.75505 451.1013 291.09117 451.1013 304.11027 451.25743 315.81239 449.22935 327.3886 445.01704 338.83897 440.80473 350.2893 433.4715 359.83863 423.0173 367.48689 412.5631 375.13517 398.05125 379.1072 379.4817 379.40309H350.2218V107.49485ZM385.171 261.7441V346.884C395.73585 346.7311 403.54908 343.06477 408.6107 335.8849 413.67228 328.70503 416.1861 317.70613 416.15214 302.88816 416.12666 289.4111 413.62983 279.193 408.66166 272.2338 403.69346 265.27464 396.40678 261.77806 386.80158 261.7441H385.171Z" fill="#ffffff"/>
<path transform="matrix(1,0,0,-1,0,3892.896)" d="M578.8499 379.40309V174.61949C579.2635 152.79297 585.1417 135.60143 596.48477 123.044849 607.82778 110.48826 622.15426 104.083568 639.4641 103.830738 647.1379 103.6547 655.6352 105.6779 664.956 109.90035 674.27688 114.1228 682.37557 121.600719 689.2521 132.3341 696.1286 143.06749 699.7373 158.11258 700.07827 177.46936V379.40309H665.1291V173.39812C664.89999 160.45496 662.3029 151.02324 657.33798 145.10298 652.373 139.18271 646.41506 136.26499 639.4641 136.3498 630.90908 136.51096 624.49288 140.05632 620.21536 146.98593 615.93789 153.91551 613.7991 163.26242 613.7991 175.02661V379.40309H578.8499Z" fill="#ffffff"/>
<path transform="matrix(1,0,0,-1,0,3892.896)" d="M931.9622 155.89655C923.6531 148.49016 916.7684 143.34896 911.3081 140.47295 905.84786 137.59693 900.3876 136.22255 894.92727 136.3498 879.86068 136.25647 869.19448 144.99483 862.9287 162.56484 856.6629 180.13484 853.62759 207.09645 853.8226 243.44966 853.5513 277.84306 856.3323 304.24449 862.1656 322.654 867.99899 341.0635 878.5125 350.36155 893.70639 350.54814 899.48886 350.49729 905.4239 348.97044 911.5116 345.96757 917.5993 342.9647 923.3309 338.79087 928.70639 333.4461V368.8402C922.288 373.3455 915.79336 376.83448 909.22238 379.30726 902.65139 381.78 896.6654 383.03334 891.26449 383.0672 873.82949 382.77885 859.6581 376.39418 848.7503 363.91313 837.8425 351.43208 829.8503 334.5847 824.77359 313.37098 819.69686 292.15724 817.18746 268.30717 817.2455 241.82077 817.3714 197.41037 823.72378 163.36609 836.3024 139.68791 848.8811 116.00974 866.9304 104.05736 890.4505 103.830738 897.87789 103.7884 904.8982 104.99094 911.5116 107.43835 918.125 109.88576 924.94186 113.83211 931.9622 119.27739V155.89655Z" fill="#ffffff"/>
<path transform="matrix(1,0,0,-1,0,3892.896)" d="M1046.2805 107.49485H1081.2297V379.40309H1046.2805V107.49485ZM1130.881 107.49485H1167.1019L1113.788 249.9623 1156.5205 379.40309H1120.7066L1082.4507 245.48476 1130.881 107.49485Z" fill="#ffffff"/>
<path transform="matrix(1,0,0,-1,0,3892.896)" d="M1270.8389 107.49485H1305.7881V379.40309H1270.8389V107.49485Z" fill="#ffffff"/>
<path transform="matrix(1,0,0,-1,0,3892.896)" d="M1434.7576 107.49485H1466.8579V276.8276H1467.6726L1527.9496 107.49485H1556.393V379.40309H1524.2926V211.69962H1523.4779L1463.2008 379.40309H1434.7576V107.49485Z" fill="#ffffff"/>
<path transform="matrix(1,0,0,-1,0,3892.896)" d="M1813.9165 253.60163H1754.9373V221.08257H1778.9673V137.5719C1776.3961 137.16454 1774.2069 136.85901 1772.3995 136.65534 1770.5922 136.45165 1768.7085 136.3498 1766.7485 136.3498 1747.3347 136.52051 1733.2156 145.75222 1724.3912 164.04489 1715.5668 182.33757 1711.2224 208.66696 1711.3582 243.03307 1711.2649 278.95283 1715.4225 306.16987 1723.8312 324.68424 1732.2399 343.1986 1745.4595 352.49845 1763.4902 352.58375 1771.1688 352.70259 1778.8154 350.73387 1786.4303 346.6776 1794.0452 342.62135 1803.2073 335.7646 1813.9165 326.10737V363.55784C1803.5204 370.59443 1794.2395 375.6242 1786.0735 378.64714 1777.9076 381.67005 1769.8368 383.1434 1761.8611 383.0672 1735.3167 382.57734 1714.5078 369.9281 1699.4346 345.11949 1684.3612 320.31089 1676.686 286.28208 1676.409 243.03307 1676.7537 198.0444 1684.9035 163.64728 1700.8583 139.8417 1716.8131 116.03612 1738.505 104.03247 1765.934 103.830738 1773.9655 103.79687 1781.8139 105.08408 1789.4789 107.6924 1797.144 110.30071 1805.2899 114.43337 1813.9165 120.09037V253.60163Z" fill="#ffffff"/>
<path transform="matrix(1,0,0,-1,0,3892.896)" d="M2156.049 107.49486H2258.1495V140.01392H2190.998V379.40309H2156.049V107.49486Z" fill="#ffffff"/>
<path transform="matrix(1,0,0,-1,0,3892.896)" d="M2365.549 107.49486H2467.6497V140.01392H2400.4984V379.40309H2365.549V107.49486Z" fill="#ffffff"/>
<path transform="matrix(1,0,0,-1,0,3892.896)" d="M2678.7777 155.89655C2670.4686 148.49016 2663.5838 143.34896 2658.1236 140.47295 2652.6634 137.59693 2647.2032 136.22255 2641.7427 136.3498 2626.676 136.25647 2616.01 144.99483 2609.7442 162.56484 2603.4783 180.13484 2600.443 207.09645 2600.638 243.44966 2600.3668 277.84306 2603.1478 304.24449 2608.981 322.654 2614.8145 341.0635 2625.328 350.36155 2640.5218 350.54814 2646.3043 350.49729 2652.2393 348.97044 2658.3272 345.96757 2664.4149 342.9647 2670.1463 338.79087 2675.522 333.4461V368.8402C2669.1036 373.3455 2662.609 376.83448 2656.0379 379.30726 2649.4669 381.78 2643.481 383.03334 2638.0799 383.0672 2620.645 382.77885 2606.4737 376.39418 2595.5657 363.91313 2584.658 351.43208 2576.6658 334.5847 2571.589 313.37098 2566.5123 292.15724 2564.003 268.30717 2564.061 241.82077 2564.187 197.41037 2570.5394 163.36609 2583.118 139.68791 2595.6966 116.00974 2613.7459 104.05736 2637.2659 103.830738 2644.6934 103.7884 2651.7137 104.99094 2658.3272 107.43835 2664.9405 109.88576 2671.7574 113.83211 2678.7777 119.27739V155.89655Z" fill="#ffffff"/>
</g>
</svg>
