<?xml version="1.0" encoding="UTF-8" standalone="no"?>
<svg
   xmlns:dc="http://purl.org/dc/elements/1.1/"
   xmlns:cc="http://creativecommons.org/ns#"
   xmlns:rdf="http://www.w3.org/1999/02/22-rdf-syntax-ns#"
   xmlns:svg="http://www.w3.org/2000/svg"
   xmlns="http://www.w3.org/2000/svg"
   viewBox="0 0 2374.2798 2789.4407"
   height="2789.4407"
   width="2374.2798"
   xml:space="preserve"
   id="svg2"
   version="1.1"><metadata
     id="metadata8"><rdf:RDF><cc:Work
         rdf:about=""><dc:format>image/svg+xml</dc:format><dc:type
           rdf:resource="http://purl.org/dc/dcmitype/StillImage" /></cc:Work></rdf:RDF></metadata><defs
     id="defs6"><linearGradient
       id="linearGradient20"
       spreadMethod="pad"
       gradientUnits="userSpaceOnUse"
       y2="1447.7054"
       x2="464.83743"
       y1="1447.7062"
       x1="464.84625"><stop
         id="stop14"
         offset="0"
         style="stop-opacity:1;stop-color:#d6ccb2" /><stop
         id="stop16"
         offset="0.532609"
         style="stop-opacity:1;stop-color:#ffffff" /><stop
         id="stop18"
         offset="1"
         style="stop-opacity:1;stop-color:#000000" /></linearGradient><linearGradient
       id="linearGradient34"
       spreadMethod="pad"
       gradientUnits="userSpaceOnUse"
       y2="1134.7455"
       x2="1951.2896"
       y1="1106.8535"
       x1="102.26775"><stop
         id="stop28"
         offset="0"
         style="stop-opacity:1;stop-color:#ff7f00" /><stop
         id="stop30"
         offset="0.894096"
         style="stop-opacity:1;stop-color:#00007f" /><stop
         id="stop32"
         offset="1"
         style="stop-opacity:1;stop-color:#00007f" /></linearGradient><linearGradient
       id="linearGradient46"
       spreadMethod="pad"
       gradientUnits="userSpaceOnUse"
       y2="1134.7455"
       x2="1951.2896"
       y1="1106.8535"
       x1="102.26775"><stop
         id="stop40"
         offset="0"
         style="stop-opacity:1;stop-color:#ff7f00" /><stop
         id="stop42"
         offset="0.894096"
         style="stop-opacity:1;stop-color:#00007f" /><stop
         id="stop44"
         offset="1"
         style="stop-opacity:1;stop-color:#00007f" /></linearGradient><linearGradient
       id="linearGradient56"
       spreadMethod="pad"
       gradientUnits="userSpaceOnUse"
       y2="1447.6368"
       x2="464.85928"
       y1="1447.6376"
       x1="464.86816"><stop
         id="stop50"
         offset="0"
         style="stop-opacity:1;stop-color:#d6ccb2" /><stop
         id="stop52"
         offset="0.532609"
         style="stop-opacity:1;stop-color:#ffffff" /><stop
         id="stop54"
         offset="1"
         style="stop-opacity:1;stop-color:#000000" /></linearGradient></defs><g
     transform="matrix(1.3333333,0,0,-1.3333333,0,2789.4407)"
     id="g10"><path
       id="path12"
       style="fill:#ffffff;fill-opacity:1;fill-rule:evenodd;stroke:none"
       d="m 130.03241,1124.2189 c 0.18558,-1.8773 0.48604,-3.7416 0.89969,-5.5822 0.74677,-6.809 2.99902,-13.3665 6.59352,-19.1973 0.92296,-1.8796 1.96429,-3.6987 3.11773,-5.4463 l 0.10199,-0.5251 c 0.92206,-4.4973 2.47665,-8.8412 4.6174,-12.9024 0.46288,-1.4061 0.94512,-2.8058 1.4466,-4.1986 0.85535,-3.0369 2.0197,-5.9781 3.47479,-8.7776 0.30365,-1.0286 0.63776,-2.0479 1.00187,-3.0566 0.74968,-2.4878 1.70799,-4.9078 2.86473,-7.2343 1.24234,-4.5199 2.50696,-9.0336 3.79382,-13.5411 0.43736,-2.0816 1.01803,-4.1305 1.73787,-6.1321 0.5445,-2.5376 1.30197,-5.0248 2.26437,-7.4351 1.1612,-4.3024 2.93911,-8.4141 5.2784,-12.2071 l 1.05359,-2.7393 c 0.60556,-1.9963 1.3457,-3.9493 2.21535,-5.8455 1.07603,-3.1311 2.48571,-6.1375 4.20469,-8.9671 0.70692,-1.7628 1.52191,-3.4803 2.44035,-5.14271 l 0.9276,-2.42875 c 0.66771,-2.47396 1.54019,-4.88804 2.60841,-7.21725 0.47941,-1.39501 1.02538,-2.76624 1.63605,-4.10899 0.51919,-2.25537 1.12934,-4.48883 1.82897,-6.69491 0.27598,-0.90663 0.57984,-1.80465 0.91113,-2.69268 0.56968,-2.56187 1.34685,-5.07315 2.32381,-7.50898 0.33893,-1.20942 0.72341,-2.40561 1.15263,-3.58601 l 0.51835,-2.90909 c 0.63933,-3.67496 1.71919,-7.2595 3.21623,-10.67607 l 11.19706,-64.19651 c 0.12796,-0.73359 0.27363,-1.46398 0.43691,-2.19052 0.30559,-2.7863 0.86424,-5.53899 1.66905,-8.22397 0.23984,-2.30749 0.65324,-4.59363 1.23669,-6.83899 l 0.44852,-7.17643 c -1.36561,-2.18411 -2.54606,-4.47866 -3.52901,-6.85963 -0.94434,-1.87085 -1.76747,-3.80046 -2.46429,-5.7769 l -0.44324,-0.91505 c -0.82082,-1.47808 -1.56397,-2.99798 -2.22642,-4.5535 -1.44185,-2.34418 -2.67125,-4.81257 -3.67351,-7.3757 -4.00439,-5.97955 -7.98852,-11.97265 -11.95231,-17.9792 -4.96486,-7.59854 -9.65947,-15.37023 -14.07506,-23.30053 -2.87769,-3.56834 -5.20799,-7.54531 -6.91424,-11.80006 -1.68808,-2.77878 -3.07795,-5.72808 -4.1465,-8.79882 -1.8878,-3.6716 -3.27468,-7.5798 -4.12356,-11.62009 -0.51861,-1.84707 -1.01663,-3.69986 -1.49399,-5.55802 -2.0012,-4.15006 -3.37001,-8.57626 -4.06096,-13.13152 -0.411,-1.64907 -0.73065,-3.31957 -0.95748,-5.00388 -1.46832,-4.68898 -2.17883,-9.58226 -2.10473,-14.4952 0.0261,-2.02202 0.005,-4.04439 -0.0642,-6.06542 -0.23924,-0.88323 -0.45217,-1.77337 -0.63852,-2.66924 -0.68612,-3.25829 -1.01022,-6.37551 -1.15637,-9.66973 -0.0876,-1.90794 -0.14267,-3.81723 -0.16515,-5.72704 -0.019,-3.81975 -0.0157,-7.63958 0.01,-11.4593 0.0196,-2.05356 0.0691,-4.10673 0.14872,-6.15884 0.0669,-2.39617 0.2,-4.7901 0.39902,-7.17899 1.01333,-9.99272 2.36951,-19.94769 4.06615,-29.84732 0.25483,-1.4445 0.53649,-2.88413 0.84484,-4.31816 0.24366,-1.19623 0.5306,-2.38329 0.86023,-3.5588 l 0.0655,-0.6038 c 0.47822,-4.00167 1.43882,-7.93079 2.86084,-11.70171 0.38485,-2.24286 0.81485,-4.47773 1.28975,-6.70326 0.52256,-2.63599 1.273,-5.22178 2.24284,-7.7281 0.68583,-2.68518 1.612,-5.30317 2.76731,-7.82226 0.40365,-1.17457 0.85452,-2.33237 1.35152,-3.47058 l 3.68504,-16.31947 c -0.19501,-20.02525 -0.27718,-40.05145 -0.24649,-60.07763 0.0146,-4.72883 0.0788,-7.68604 0.28872,-12.25179 0.0713,-1.74821 0.24193,-3.49104 0.51105,-5.21997 0.11307,-0.76013 0.24444,-1.51749 0.39401,-2.27136 l -0.0947,-2.27636 c -1.21073,-3.02543 -2.0978,-6.17053 -2.64639,-9.38272 -1.25586,-3.77946 -2.01749,-7.70552 -2.26592,-11.68043 l -0.84842,-13.57473 c -0.29503,-4.72041 0.13691,-9.45813 1.28071,-14.04737 l 0.13753,-0.85284 c -0.12413,-6.93793 -0.17021,-13.87705 -0.13824,-20.81602 0.009,-1.72336 0.0595,-3.44624 0.15071,-5.1672 0.11149,-1.88558 0.29353,-3.76627 0.54574,-5.63817 0.25908,-2.10845 0.66337,-4.1966 1.20998,-6.24948 0.0928,-2.21969 0.13223,-4.44128 0.11824,-6.66286 -0.0352,-5.5889 0.94457,-11.13775 2.89157,-16.37666 l 1.12948,-6.77685 c 0.67116,-4.02699 1.87341,-7.94719 3.5753,-11.65808 0.24449,-0.71144 0.50633,-1.4168 0.78529,-2.11545 0.81461,-3.01824 1.93363,-5.94596 3.33984,-8.73808 l 2.83898,-9.93468 c 0.63959,-3.04419 1.58516,-6.01596 2.82228,-8.87003 0.17303,-0.72433 0.36355,-1.44436 0.57141,-2.15947 0.88838,-4.22831 2.36581,-8.31101 4.38906,-12.12864 0.41802,-1.00077 0.86904,-1.98743 1.35231,-2.95838 1.02456,-2.05843 2.20143,-4.03746 3.52079,-5.92058 0.58065,-0.82874 1.18724,-1.639 1.81887,-2.42957 l 1.16172,-1.92448 c 0.81682,-2.39811 1.67611,-4.78154 2.57747,-7.14917 0.4987,-1.3136 1.02893,-2.61501 1.59023,-3.90311 0.70099,-2.79767 1.64946,-5.52744 2.8342,-8.15703 l 0.53358,-2.11551 c 0.54824,-2.57993 1.1766,-5.14218 1.88417,-7.68303 l 0.27336,-1.0198 c 0.61708,-3.14599 1.56011,-6.21917 2.81384,-9.1698 0.40236,-2.03938 0.87857,-4.06349 1.4277,-6.06834 0.31718,-1.1339 0.67737,-2.25528 1.0798,-3.36175 0.65108,-2.29447 1.47578,-4.53608 2.46697,-6.70543 l 0.82236,-2.9407 c 0.40971,-1.3839 0.84664,-2.75959 1.31053,-4.12628 0.50597,-1.43651 1.07695,-2.84929 1.71119,-4.23396 0.74854,-3.54488 1.64376,-7.05718 2.68336,-10.52787 0.40765,-1.37706 0.87933,-2.73437 1.4135,-4.0675 l 0.61978,-1.4967 c 0.42116,-1.67783 0.92802,-3.33297 1.5186,-4.95891 0.65575,-3.2876 1.66569,-6.4945 3.01215,-9.56458 l 0.58273,-1.69349 c 0.51674,-1.71476 1.1328,-3.39801 1.84507,-5.04121 0.39615,-1.65836 0.88384,-3.2935 1.46085,-4.89792 0.94907,-4.42306 2.54294,-8.68266 4.73055,-12.64228 0.38911,-0.86538 0.8048,-1.71857 1.24647,-2.55834 1.19702,-2.52227 2.62031,-4.93078 4.25241,-7.19594 2.4608,-4.04224 5.4199,-7.75918 8.80773,-11.06341 2.59942,-2.57793 4.79969,-4.50196 7.70155,-6.49465 1.02844,-0.71057 2.06266,-1.41275 3.10255,-2.10647 2.32054,-1.69009 4.79363,-3.16009 7.38716,-4.39092 5.10338,-2.68413 10.66435,-4.38865 16.39527,-5.02542 l 7.63579,-0.84842 c 5.07885,-0.56432 10.21614,-0.28168 15.20242,0.83639 L 1189.7547,84.812488 c 0.3824,-0.800625 0.7879,-1.590059 1.2159,-2.367319 l 1.4402,-6.121157 c 1.1122,-4.726639 2.9629,-9.248279 5.484,-13.398243 0.6078,-1.515592 1.2955,-2.997878 2.0603,-4.440611 l 2.7437,-5.727091 c 0.6931,-1.446254 1.461,-2.855419 2.3007,-4.221767 l 0.1617,-0.334777 c 1.8673,-4.315579 4.3828,-8.320629 7.4594,-11.876595 0.9573,-1.181597 1.9245,-2.355193 2.9013,-3.520666 1.0327,-1.213802 2.0897,-2.406756 3.1702,-3.578142 2.6694,-2.951919 5.4358,-5.814678 8.2948,-8.583502 2.1811,-2.156894 4.5337,-4.133399 7.0345,-5.910014 l 2.3571,-1.569388 c 2.6044,-1.907163 5.4015,-3.535983 8.3456,-4.859741 2.3421,-1.293941 4.7922,-2.381862 7.3226,-3.251481 3.1219,-1.43176 6.3938,-2.510747 9.755,-3.216938 C 1265.9895,0.617823 1270.3286,0 1274.6898,0 h 14.4231 c 6.618,0 13.1586,1.422532 19.1787,4.171207 2.7878,0.909466 5.4826,2.082423 8.048,3.502977 2.9431,1.635692 5.7623,3.484936 8.4351,5.532872 2.9749,2.252347 5.8031,4.692189 8.4674,7.304636 1.9602,1.944261 3.7687,4.035483 5.41,6.255424 1.3241,1.800641 2.5171,3.694079 3.5698,5.665695 2.2981,3.058654 4.221,6.382002 5.7273,9.89879 1.0432,1.69473 1.9758,3.455131 2.7919,5.27019 0.4589,0.83054 0.892,1.675026 1.2989,2.532256 0.6932,1.375965 1.335,2.777192 1.9242,4.200785 2.1334,5.156294 2.9801,9.949992 3.3826,15.50708 3.037,6.0891 4.3145,12.128623 5.2814,18.730433 3.1131,21.359825 6.1105,42.736345 8.9921,64.128635 0.5463,1.83208 0.9885,3.69364 1.3242,5.57574 l 0.3404,2.12163 c 0.9003,3.05798 1.4815,6.20096 1.7343,9.37867 l 2.9072,-1.12206 c 2.342,-1.29389 4.7921,-2.38177 7.3225,-3.25136 3.0618,-1.40423 6.2682,-2.46921 9.5617,-3.17592 4.0993,-1.47425 8.3867,-2.36099 12.7345,-2.63384 l 52.0341,-3.26542 c 0.8357,-0.0524 1.6727,-0.0821 2.5101,-0.0891 4.0428,-0.0334 8.0739,0.44181 11.9981,1.41456 1.1605,0.0841 2.323,0.13823 3.4862,0.16241 4.6257,0.0962 9.2106,0.88694 13.6012,2.34588 2.7581,0.47102 5.4676,1.19175 8.0952,2.15329 1.2851,0.38728 2.5528,0.83042 3.7993,1.32815 4.0818,1.10165 7.993,2.75866 11.6238,4.92457 3.161,1.03138 6.2013,2.40115 9.0681,4.08549 l 1.9971,0.95771 c 2.44,1.22882 4.7966,2.6169 7.0543,4.15524 2.5175,1.70052 4.9527,3.51991 7.2973,5.45198 6.8742,5.75205 13.4738,11.82451 19.7768,18.19726 3.9254,3.89222 7.2145,8.37744 9.7468,13.29133 1.5516,2.37956 2.8916,4.89056 4.0046,7.50416 1.0397,1.69028 1.9693,3.44583 2.7831,5.25571 1.6873,3.05405 3.023,6.2895 3.9815,9.6444 l 1.0838,3.79314 c 2.7454,5.45113 4.3828,11.39244 4.8177,17.48036 l 0.2257,3.16067 c 0.2069,0.76821 0.3939,1.54163 0.5608,2.3195 1.8482,5.13907 2.77,10.56525 2.7228,16.02635 -0.039,4.50389 0.019,9.0081 0.1733,13.50951 0.5617,2.1418 0.9686,4.32123 1.2175,6.52142 0.3916,3.4366 0.592,6.89229 0.6005,10.35112 0.047,8.68204 0.045,17.36431 0,26.04636 5.849,5.34956 16.016,15.22871 21.4196,22.11924 5.8538,7.55023 11.2321,15.4573 16.1039,23.67542 3.0593,4.20033 5.3877,8.88693 6.887,13.86229 0.2915,0.79647 0.561,1.60083 0.8081,2.41214 1.3022,3.02875 2.2873,6.1842 2.9396,9.41587 l 2.5652,13.17726 c 0.2612,0.66712 0.5075,1.33998 0.7387,2.01807 0.8681,2.5519 1.5338,5.16822 1.9909,7.82469 0.2513,1.42725 0.4667,2.8606 0.6461,4.29868 0.7908,6.78386 1.489,13.5782 2.0944,20.38112 0.534,1.6586 0.979,3.34452 1.3333,5.05057 0.4421,2.09777 0.7807,4.21604 1.0147,6.34711 0.2249,0.67115 0.4344,1.34738 0.6283,2.02816 0.7327,2.5782 1.3251,5.19422 1.7746,7.83654 1.2266,6.96331 2.3335,13.94722 3.3203,20.94859 0.7876,5.38994 1.2922,8.85895 1.8017,13.91533 0.193,1.8638 0.3132,3.73446 0.3606,5.60767 0.1132,7.64871 0.1983,15.2978 0.2554,22.94713 l 0.6343,2.96028 c 0.4201,0.99097 0.8054,1.99634 1.1552,3.01424 0.8813,1.92175 1.6297,3.90176 2.2397,5.92605 l 0.6051,1.66379 c 1.8384,3.10288 3.307,6.41046 4.3756,9.8551 0.9997,2.28311 1.8195,4.64079 2.4521,7.05154 l 1.8746,7.54557 c 2.2551,3.11405 4.1124,6.49755 5.5288,10.07195 l 2.8519,5.79559 c 2.6123,3.1479 5.131,6.37228 7.5529,9.66893 1.1346,1.54761 2.1877,3.15328 3.1552,4.81049 11.5115,12.69594 22.9817,25.42924 34.4105,38.1997 4.0032,4.40031 7.879,8.91488 11.6227,13.53805 0.8815,1.15308 1.7094,2.34621 2.4809,3.5756 1.6201,2.55544 3.2027,5.13452 4.7472,7.73638 0.7632,1.27734 1.5343,2.54997 2.3133,3.8178 0.3802,0.6 0.8296,1.15341 1.3388,1.64876 3.5187,3.43512 6.8217,7.77985 9.6835,11.9406 2.2058,3.20693 5.196,7.583 7.2662,11.32874 l 0.6143,1.13448 c 2.4211,3.76293 4.2825,7.8578 5.5257,12.15618 l 0.296,0.71143 c 0.7786,1.94741 1.4681,3.92926 2.0664,5.93941 l 0.4786,0.93684 c 1.7008,3.54471 3.0302,7.25596 3.9669,11.0744 1.251,5.1721 2.1624,10.42045 2.7284,15.71148 0.5143,4.80742 0.2703,9.66578 -0.7229,14.39751 -0.3303,4.28762 -1.258,8.50807 -2.756,12.53901 l -1.1295,6.77685 c -0.4702,2.82078 -1.2013,5.59178 -2.184,8.2773 -1.2694,4.21206 -3.1341,8.22113 -5.5376,11.90563 l -1.5808,2.68067 c -1.5355,2.70746 -3.3107,5.27175 -5.3043,7.66203 -1.8767,2.31121 -3.852,4.54067 -5.9204,6.68209 -2.8218,2.96764 -5.7847,5.79791 -8.8784,8.48094 -4.2196,3.7648 -8.9054,6.97217 -13.9422,9.54334 -2.8811,1.57015 -5.8918,2.88971 -8.9989,3.94413 -3.1558,1.06433 -7.0514,2.02344 -10.48,2.79558 -9.1612,2.06974 -18.3341,4.08791 -27.518,6.05441 l -3.3977,1.53126 -1.4625,3.18703 c -0.592,1.72253 -1.2853,3.40853 -2.0765,5.04916 l -1.2178,4.56689 -0.4863,7.04625 c 0.3216,2.73062 0.6264,5.46319 0.9144,8.19755 0.5953,5.35771 0.2478,10.77833 -1.0267,16.01624 -0.3931,7.72138 -0.8683,15.43836 -1.4257,23.14962 -0.1334,1.61569 -0.289,3.22946 -0.4669,4.84085 -0.3038,2.91249 -0.8144,5.79973 -1.5281,8.63977 l -0.3828,1.39294 c -0.166,5.36058 -1.2645,10.65128 -3.2463,15.63481 l -1.7893,9.3935 c -0.6971,3.66016 -1.8348,7.2225 -3.388,10.60928 -0.8696,2.53048 -1.9576,4.98058 -3.2515,7.32265 -0.3585,0.7973 -0.7396,1.58426 -1.1427,2.35993 -1.1531,3.91382 -2.8,7.6648 -4.901,11.16239 -0.5891,1.46903 -1.2534,2.90679 -1.9901,4.3076 -1.3924,2.93388 -3.0904,5.71269 -5.0658,8.29034 -2.0016,2.9974 -4.1489,5.8951 -6.4339,8.6826 -2.4199,2.944 -5.1385,5.8721 -8.0574,8.3978 -5.9059,5.0868 -12.3853,9.4671 -19.3066,13.0519 -2.9618,1.5326 -5.9544,3.005 -8.9759,4.4163 -1.9277,1.3256 -3.9529,2.5034 -6.0583,3.5233 -0.9266,0.6312 -1.8758,1.2284 -2.8458,1.7905 l -12.2849,11.395 -1.7377,10.4852 c -0.2646,1.5656 -0.5611,3.1255 -0.8892,4.6789 -0.3592,1.7209 -0.7805,3.4282 -1.2631,5.1186 -0.4396,1.5006 -0.9525,2.9787 -1.537,4.429 l -2.4607,12.0965 c -0.2028,0.9928 -0.4351,1.9795 -0.6965,2.9585 -0.2698,1.045 -0.5759,2.0803 -0.9178,3.1039 -0.3875,6.8156 -0.7169,13.6344 -0.9881,20.4557 0.6351,3.4077 0.999,6.8603 1.0884,10.3255 l 0.01,0.2996 c 0.1404,6.835 0.032,13.6728 -0.3259,20.4999 -0.1854,3.5379 -0.7772,7.0427 -1.764,10.4453 -0.3544,4.2124 -1.256,8.3607 -2.6819,12.3402 -0.3873,1.2852 -0.8304,2.5529 -1.3282,3.7994 -1.0937,4.0524 -2.7349,7.9368 -4.8781,11.5458 -0.451,1.2694 -0.9445,2.5233 -1.4797,3.7596 -0.8888,2.0749 -1.9276,4.0824 -3.1082,6.0063 -0.4858,1.0005 -1.0035,1.9853 -1.5524,2.9526 -0.6637,1.1779 -1.3515,2.342 -2.063,3.4915 -2.6089,4.1137 -5.3742,8.1261 -8.2898,12.0285 -0.6305,0.844 -1.2898,1.6661 -1.9766,2.465 -3.8972,4.5333 -8.1847,8.7159 -12.813,12.4999 l -2.5974,2.3611 c -7.3923,6.8054 -14.8621,13.5262 -22.4078,20.161 -3.9649,3.477 -7.967,6.9114 -12.0055,10.3026 -4.4742,3.7591 -9.0097,7.4443 -13.6049,11.0544 -5.7459,4.5701 -11.8353,8.6909 -18.2141,12.3259 l -0.6384,0.3582 c -3.2615,2.1593 -6.7843,3.8955 -10.4835,5.1668 -0.6802,0.3119 -1.3679,0.6073 -2.0624,0.8858 -2.1655,1.3155 -4.4356,2.4506 -6.7874,3.3937 -2.1655,1.3155 -4.4356,2.4506 -6.7873,3.3937 -3.0358,1.8442 -6.2742,3.3319 -9.6511,4.4337 -1.9659,1.1728 -4.0163,2.1977 -6.1342,3.0663 -0.9975,0.5438 -2.0145,1.0514 -3.0488,1.5215 -0.1878,0.037 -0.37,0.099 -0.5416,0.1833 -2.1805,4.0845 -4.6219,8.0243 -7.3089,11.7949 l -0.9953,1.4663 -0.669,1.4055 c -0.7762,1.9879 -1.6881,3.92 -2.7293,5.7827 -0.3196,0.6584 -0.6544,1.3093 -1.0041,1.9522 -0.4584,1.3272 -0.9771,2.6329 -1.5546,3.9129 -0.2757,1.576 -0.6332,3.1367 -1.071,4.6756 l -1.8003,21.0041 c -0.3419,3.9887 -1.2011,7.916 -2.5558,11.6831 -0.7067,3.2935 -1.7717,6.4998 -3.176,9.5617 -0.2444,0.7115 -0.5063,1.4168 -0.7852,2.1155 -1.2659,4.6901 -3.264,9.1512 -5.9205,13.2185 -0.9241,1.6956 -1.9537,3.3315 -3.0826,4.8982 -1.5848,2.1848 -3.2842,4.2842 -5.0912,6.2892 -2.0045,2.2276 -4.0514,4.4168 -6.1394,6.5664 -2.3693,2.4734 -4.771,4.9156 -7.2045,7.3259 -3.2903,3.2781 -7.1333,6.7696 -11.1405,9.4072 -2.5298,1.6385 -5.0932,3.224 -7.6888,4.7558 -2.058,1.4967 -4.2362,2.8208 -6.5123,3.9587 -2.2126,1.3725 -4.5349,2.5598 -6.9431,3.5498 -1.3347,1.0279 -2.7185,1.9904 -4.1465,2.884 -1.0807,0.6697 -2.1835,1.303 -3.3065,1.899 l -0.3232,0.3111 c -1.4686,1.4542 -3.0115,2.8312 -4.6227,4.1255 l -0.6804,0.9875 c -0.6967,2.1332 -1.548,4.2128 -2.5471,6.2223 l -3.6689,13.1033 c -1.1343,4.0512 -2.817,7.9284 -5.0013,11.524 -0.5613,1.3997 -1.1908,2.771 -1.8863,4.1091 l -0.029,0.096 c -1.0757,5.1088 -3.01,9.9982 -5.7207,14.4601 -0.943,2.3518 -2.0781,4.6219 -3.3936,6.7874 -0.979,2.4412 -2.1648,4.7943 -3.5444,7.0337 -0.7346,1.7801 -1.5792,3.5128 -2.5288,5.1881 -2.4774,5.1622 -5.6263,9.9744 -9.3649,14.3113 -1.1868,1.4267 -2.3313,2.8882 -3.4318,4.3825 -4.1295,5.6425 -10.0146,12.9039 -15.6803,17.518 -3.5142,2.8376 -7.1712,5.4933 -10.957,7.9569 -2.7317,1.8084 -5.4951,3.5686 -8.2889,5.2797 -4.2144,3.0792 -8.9203,5.4215 -13.9177,6.9275 l -0.1784,0.065 c -2.961,1.4548 -6.0654,2.5976 -9.2629,3.4101 -0.7668,0.195 -1.5381,0.3719 -2.3132,0.5307 -1.2762,0.4106 -2.5689,0.7678 -3.8749,1.0706 -2.104,1.2188 -4.3009,2.2696 -6.5704,3.1425 l -3.3664,1.2947 c -3.0476,1.8796 -6.3036,3.3984 -9.7022,4.5256 -1.0822,0.5342 -2.185,1.0258 -3.3058,1.4736 -4.7583,3.8481 -9.6159,7.5717 -14.568,11.167 l -1.53,1.156 c -0.7095,0.9055 -1.4459,1.7897 -2.2081,2.6513 -3.2645,3.9065 -6.692,7.6738 -10.2734,11.2919 l -1.128,1.7317 c -0.7425,2.0676 -1.6316,4.0796 -2.6606,6.0207 -1.1051,2.553 -2.4368,5.0018 -3.979,7.3171 -1.0645,2.415 -2.3263,4.7382 -3.7728,6.9457 -0.5987,1.1983 -1.242,2.3739 -1.9284,3.5242 -0.7835,1.3002 -1.5821,2.5912 -2.3957,3.8727 -0.871,1.3914 -1.7886,2.7533 -2.7512,4.0831 -1.4517,1.9479 -2.6966,4.0418 -3.7145,6.2477 -0.6451,1.3798 -1.3458,2.733 -2.1003,4.0563 l -2.7766,4.8117 c -0.2477,0.7226 -0.5133,1.4389 -0.7966,2.1483 -0.3274,1.213 -0.7041,2.4122 -1.1293,3.5944 -1.1643,5.4261 -3.2972,10.5978 -6.2963,15.2671 l -0.4056,1.294 c -0.6625,3.2291 -1.6688,6.3779 -3.0018,9.3927 l -0.6322,2.7396 c -0.7039,3.0502 -1.7161,6.0209 -3.0211,8.8663 l -0.3055,0.8613 c -1.0902,3.6176 -2.6203,7.0878 -4.5559,10.3326 -0.9047,2.7728 -2.0701,5.4537 -3.4806,8.0066 l -0.1422,0.3131 c -0.8696,2.5304 -1.9575,4.9805 -3.2513,7.3225 l -0.448,1.1747 c -1.2414,4.1197 -3.0526,8.0457 -5.3809,11.664 -1.0938,2.6044 -2.419,5.1055 -3.9596,7.4731 -0.8095,1.9077 -1.7465,3.7588 -2.8046,5.5406 -0.451,1.2695 -0.9445,2.5234 -1.4798,3.7597 -1.1534,2.6928 -2.559,5.2705 -4.1979,7.6987 l -0.1301,0.2686 c -1.4063,3.2503 -3.1819,6.3281 -5.2917,9.1725 -0.1817,0.2611 -0.8135,1.2585 -0.8956,1.4407 -1.0556,2.6317 -2.3494,5.1615 -3.8653,7.5578 -1.7801,3.6306 -3.9581,7.0523 -6.4938,10.2021 -1.0655,1.9251 -2.2309,3.7933 -3.4912,5.597 -0.7761,1.1107 -1.6007,2.1866 -2.4714,3.2248 -1.5417,3.0038 -3.4083,5.8294 -5.5662,8.4262 -1.1084,1.3626 -2.2754,2.6766 -3.4977,3.9383 -3.2144,3.2778 -6.5306,6.4542 -9.9437,9.5246 -3.5955,3.2732 -6.758,6.1183 -10.5043,8.9548 -1.922,1.4478 -3.8891,2.8348 -5.8984,4.1589 -2.4735,1.631 -4.9653,3.2339 -7.475,4.8085 -4.7362,3.5893 -10.1206,6.2307 -15.8579,7.7791 l -0.2567,0.1016 c -3.558,1.7877 -7.3254,3.1237 -11.2147,3.977 l -8.57414,1.8187 c -4.29068,0.8856 -8.62564,1.5411 -12.98632,1.9636 l -15.47505,1.534 -9.33203,1.0479 c -1.47566,0.4927 -2.97367,0.9158 -4.48906,1.2679 l -2.17836,0.4689 -2.5574,0.443 -0.094,0.033 c -1.2592,0.716 -2.53572,1.401 -3.8284,2.0546 -2.12858,1.6634 -4.39904,3.1369 -6.78524,4.4034 l -2.10957,1.3928 -3.47002,5.9038 c 1.25994,1.8648 2.38918,3.8146 3.37962,5.8355 l 0.18551,0.3834 c 4.1297,4.5238 8.38026,8.9357 12.74708,13.2311 1.02895,1.0258 2.02286,2.0863 2.98002,3.1795 5.53984,6.3073 9.2564,11.5572 14.45225,18.463 2.1097,2.7873 4.06985,5.6846 5.87218,8.6798 1.42582,2.5191 2.74324,5.0976 3.94879,7.7289 l 1.9262,2.4794 c 2.93318,3.9933 5.55311,8.2074 7.83636,12.6048 0.40014,0.7639 0.82457,1.5148 1.27264,2.2517 l 9.13834,10.0341 c 3.2131,3.4439 6.16927,7.1189 8.8447,10.9953 0.44331,0.6423 0.8703,1.2958 1.2805,1.9597 0.7696,1.2458 1.5097,2.5097 2.2195,3.7905 1.8251,2.4453 3.4034,5.0655 4.7116,7.8221 2.6842,5.1034 4.3887,10.6644 5.0255,16.3953 l 0.8484,7.6358 c 0.6048,5.4437 0.2364,10.9516 -1.0882,16.2662 -0.9904,6.5294 -3.3698,12.7703 -6.9777,18.3017 -0.8846,1.4983 -1.7838,2.988 -2.6976,4.4687 -0.9474,1.4959 -1.9813,2.9352 -3.09653,4.3106 -3.83548,4.7359 -8.29115,8.8368 -13.10185,12.5376 -1.12823,0.8767 -2.27073,1.735 -3.427,2.5745 l -0.35757,0.2221 c -0.69456,0.401 -1.37054,0.8333 -2.02584,1.2957 -2.42379,1.8014 -5.01846,3.3607 -7.74673,4.6555 -1.65585,0.8382 -3.35001,1.5984 -5.07692,2.2782 -1.93814,0.7576 -3.93257,1.3624 -5.96504,1.8088 -2.05762,0.4442 -4.13632,0.7843 -6.2282,1.0191 -2.25195,0.2703 -4.50563,0.5262 -6.76088,0.7677 -4.66725,0.5186 -9.38634,0.3222 -13.99439,-0.5824 -4.54367,-0.051 -9.08641,-0.1646 -13.62689,-0.3422 -3.73494,-0.1286 -7.45767,-0.4989 -11.14476,-1.1088 l -2.00929,-0.3761 -62.34886,-0.4411 -136.04572,-0.6159 -267.40429,-0.9802 -378.485438,-1.2101 c -3.71486,-0.012 -7.414713,-0.4719 -11.019325,-1.3703 -6.529994,-0.9905 -12.771527,-3.3703 -18.30333,-6.9788 l -3.035099,-1.8082 c -2.83669,-1.6578 -5.525075,-3.5572 -8.035257,-5.6772 -1.614672,-1.4088 -3.165996,-2.8884 -4.649513,-4.4345 -1.495039,-1.5258 -2.897188,-3.14 -4.198817,-4.8339 -1.424786,-1.8724 -2.779172,-3.7974 -4.060329,-5.7709 -1.688518,-2.319 -3.157259,-4.7904 -4.387175,-7.382 -2.396162,-4.5559 -4.013679,-9.4803 -4.785644,-14.5697 -1.439667,-5.7764 -1.748791,-11.7767 -0.910349,-17.6704 23.562458,-165.6304 47.292483,-331.2369 71.190038,-496.8192 16.165982,-112.3839 22.505563,-153.1522 38.032848,-256.1592 6.40833,-42.5925 12.39996,-85.2466 17.97405,-127.9562 0.53704,-3.9326 1.10145,-6.846 2.3752,-10.4919 z" /><path
       id="path22"
       style="fill:url(#linearGradient20);fill-opacity:1;fill-rule:evenodd;stroke:#000000;stroke-width:1.64844;stroke-linecap:butt;stroke-linejoin:miter;stroke-miterlimit:4;stroke-dasharray:none;stroke-opacity:1"
       d="m 464.84612,1447.6947 c -0.002,0.01 -0.005,0.015 -0.007,0.023 0.002,-0.01 0.005,-0.015 0.007,-0.023 z" /><path
       id="path24"
       style="fill:#081e26;fill-opacity:1;fill-rule:evenodd;stroke:none"
       d="m 199.00235,484.51381 c 0.0104,-0.003 0.0209,-0.006 0.0314,-0.009 -0.0105,0.003 -0.0209,0.006 -0.0314,0.009 z" /><path
       id="path26"
       style="fill:#7f7f00;fill-opacity:1;fill-rule:evenodd;stroke:none"
       d="m 230.66874,460.06457 c 0,0 0.009,0.002 0.009,0.002 -0.003,-7.6e-4 -0.006,-0.002 -0.009,-0.002 z" /><path
       id="path36"
       style="fill:url(#linearGradient34);fill-opacity:1;fill-rule:evenodd;stroke:none"
       d="m 230.49296,460.82966 c 0,0 0.0186,0.005 0.0186,0.005 -0.006,-0.002 -0.0124,-0.003 -0.0186,-0.005 z" /><path
       id="path38"
       style="fill:#7f7f00;fill-opacity:1;fill-rule:evenodd;stroke:none"
       d="m 230.67818,460.06686 c 0,0 0.0189,0.005 0.0189,0.005 -0.006,-0.002 -0.0126,-0.003 -0.0189,-0.005 z" /><path
       id="path48"
       style="fill:url(#linearGradient46);fill-opacity:1;fill-rule:evenodd;stroke:none"
       d="m 1422.4349,461.51913 c 0,0 0.011,7.4e-4 0.011,7.4e-4 0,-2.4e-4 -0.01,-4.9e-4 -0.011,-7.4e-4 z" /><path
       id="path58"
       style="fill:url(#linearGradient56);fill-opacity:1;fill-rule:evenodd;stroke:#000000;stroke-width:1.64844;stroke-linecap:butt;stroke-linejoin:miter;stroke-miterlimit:4;stroke-dasharray:none;stroke-opacity:1"
       d="m 464.86071,1447.649 c 0.002,-0.01 0.005,-0.015 0.007,-0.023 -0.002,0.01 -0.005,0.015 -0.007,0.023 z" /><path
       id="path60"
       style="fill:#000000;fill-opacity:1;fill-rule:evenodd;stroke:none"
       d="m 46.175891,2022.1489 c 0,0 70.358049,-494.6246 91.629489,-636.3159 12.86567,-85.6997 24.91978,-162.1722 35.63941,-245.1464 0.17611,-1.3631 0.21218,-1.5281 0.3607,-1.65 0.11019,-0.09 0.19708,-0.1824 0.2783,-0.3218 0.80439,-1.3807 1.05212,-7.4082 1.05212,-7.4082 h 0.84842 v -2.5453 h 0.84842 v -5.0905 c 0,0 0.49349,0.065 0.84843,0 0.57006,-0.1041 0.82759,-1.8687 1.03638,-3.1529 0.30334,-1.8659 3.70819,-3.8876 4.70244,-6.4105 0.71106,-1.8042 0.27134,-4.3701 1.24866,-5.4774 0.14008,-0.1587 0.30926,-0.2875 0.44617,-0.4598 1.02292,-1.287 0.24453,-5.0039 1.25269,-6.3294 0.13721,-0.1804 0.3075,-0.3164 0.4677,-0.4767 0.85617,-0.8567 2.19138,-5.6086 3.10744,-8.4776 0.41835,-1.3101 0.49309,-1.4557 0.74736,-1.4557 h 0.56589 v -2.5453 h 0.84843 l 2.54526,-8.4842 h 0.84842 v -2.5452 h 0.84842 l 5.93895,-21.2106 h 0.84842 v -3.3937 h 0.84842 l 0.84842,-5.9389 h 0.84842 v -1.6968 h 0.84843 v -3.3937 h 0.84842 l 4.2421,-11.0295 h 0.84842 v -2.5453 h 0.84843 l 0.84842,-4.2421 h 0.84842 l 2.54526,-6.7873 h 0.84842 l 0.84842,-3.3937 h 0.84842 l 0.84843,-4.2421 h 0.84842 v -1.6969 h 0.84842 v -3.3937 h 0.84842 l 0.84842,-4.2421 h 0.5659 c 0.25427,0 0.31816,-0.1485 0.63893,-1.48555 0.95624,-3.9859 2.5163,-11.14997 3.2374,-11.85842 0.15358,-0.15089 0.31704,-0.27394 0.44818,-0.46148 0.77202,-1.104 0.4242,-4.44278 1.24866,-5.47747 0.139,-0.17444 0.31131,-0.28339 0.45088,-0.46379 0.70909,-0.91655 0.57276,-3.67743 1.24326,-4.62442 0.13535,-0.19115 0.30357,-0.3084 0.45358,-0.4661 0.65471,-0.68827 1.23512,-5.60088 1.66516,-8.43703 0.20619,-1.35988 0.25736,-1.51098 0.51163,-1.51098 h 0.5659 v -1.69684 h 0.84842 l 12.72632,-72.96422 h 0.84842 v -5.09053 h 0.84842 l 0.84842,-8.48421 h 0.84842 l 1.69684,-27.14948 h -0.84842 l -0.84842,-6.78737 h -0.84842 l -0.5659,-2.26359 c -0.25427,-1.01708 -0.31077,-1.12686 -0.56505,-1.0978 -0.18863,0.0216 -0.43694,0.0722 -0.56589,-0.0323 -0.26345,-0.21338 -0.0288,-1.07386 -0.21598,-1.48087 -0.0893,-0.1942 -0.27467,-0.28516 -0.46121,-0.46889 -0.50698,-0.49935 -1.02268,-1.68395 -1.36114,-2.60688 -0.45624,-1.24408 -0.53519,-1.38231 -0.78946,-1.38231 h -0.5659 v -2.54527 c 0,0 -0.48254,0.0842 -0.84842,0 -1.02356,-0.23556 -1.08983,-3.12875 -1.9012,-4.66651 -0.3861,-0.73177 -1.02724,-1.17646 -1.2103,-1.89837 -0.42634,-1.68124 0.25039,-2.07715 -0.84808,-1.95162 -0.25427,0.0291 -0.33615,-0.1107 -0.81875,-1.39763 l -2.00904,-5.35745 h -0.84842 v -1.35815 c 0,-0.61025 -0.085,-0.80494 -0.85001,-1.94687 -14.52524,-21.68179 -20.36002,-29.72828 -30.66399,-48.80162 -0.6534,-1.2095 -0.75426,-1.34389 -1.00853,-1.34389 h -0.5659 l -2.54526,-6.78737 h -0.84842 l -0.84842,-4.24211 h -0.84842 v -1.69684 h -0.84843 v -3.39368 h -0.84842 l -3.39368,-12.72632 h -0.84842 v -4.24211 h -0.84842 l -0.84842,-7.63579 h -0.84843 c 0,0 0.20397,-12.9919 -0.84842,-16.79874 -0.24612,-0.89031 -0.55797,-1.42273 -0.81662,-2.03571 -0.51052,-1.20991 -0.53124,-18.23259 -0.0318,-26.13187 0.39035,-6.17378 3.85412,-29.80748 4.44268,-30.31281 0.1536,-0.13189 0.31371,-0.24347 0.4429,-0.45682 0.81519,-1.34615 0.39985,-6.74394 1.25832,-8.03128 0.13303,-0.1995 0.29665,-0.30029 0.44841,-0.4615 0.66859,-0.71026 1.77464,-7.8645 2.47496,-11.83517 0.23883,-1.35408 0.29362,-1.50454 0.54789,-1.50454 h 0.5659 v -1.69684 h 0.84842 v -3.39368 h 0.84842 l 0.84842,-4.24211 h 0.84842 l 5.93895,-26.30106 h 0.84842 c 0,0 -0.84858,-77.59555 0.0107,-79.58196 0.27245,-0.62983 0.58309,-0.95627 0.76249,-2.03337 0.70918,-4.25778 -0.77321,-21.89205 -0.77321,-21.89205 h -0.84842 v -2.54526 h -0.84842 v -1.69685 h -0.84842 l -0.84842,-6.78737 h -0.84843 l -0.84842,-13.57474 h 0.84842 v -4.2421 h 0.84843 c 0,0 -0.83607,-31.23356 0.0248,-33.76747 0.25238,-0.74284 0.57438,-1.04064 0.8236,-2.03591 0.91811,-3.66652 0.84842,-16.79874 0.84842,-16.79874 h 0.84842 l 2.54526,-15.27158 h 0.84842 l 0.84843,-4.2421 h 0.84842 v -1.69685 h 0.84842 v -3.39368 h 0.84842 l 5.09053,-17.81685 h 0.84842 v -3.39368 h 0.84842 l 1.69684,-7.63579 h 0.84842 v -3.39369 c 0,0 0.50544,0.0959 0.84842,0 0.95724,-0.26765 0.42042,-2.98852 1.04206,-4.0059 0.12677,-0.20746 0.31152,-0.34683 0.49573,-0.49695 1.1186,-0.91159 6.74611,-10.59426 7.54003,-12.97333 1.60151,-4.79913 3.81766,-11.17535 4.67449,-11.97005 0.16311,-0.15127 0.33337,-0.28479 0.47073,-0.47925 0.80527,-1.13996 0.47981,-4.37415 1.24866,-5.47747 0.13412,-0.19246 0.30154,-0.32008 0.46034,-0.47148 0.70694,-0.674 2.83747,-10.12928 4.07168,-15.24279 0.32255,-1.3364 0.38664,-1.48489 0.64092,-1.48489 h 0.56589 v -3.39369 h 0.84842 l 2.22528,-10.38463 c 0.28799,-1.34394 0.34824,-1.49003 0.60251,-1.46097 0.18863,0.0216 0.42787,0.0946 0.5659,-0.0323 0.40843,-0.3756 -0.0693,-2.50258 0.21597,-3.17771 0.0949,-0.2246 0.27427,-0.28852 0.44852,-0.45982 1.33955,-1.31687 2.4781,-9.74586 3.76154,-11.39021 0.15858,-0.20317 0.32037,-0.30375 0.47653,-0.48459 1.32038,-1.52904 3.34106,-15.11283 4.61804,-16.48693 0.15641,-0.16831 0.31847,-0.25576 0.46934,-0.479 0.79469,-1.17592 1.27856,-6.11951 2.07907,-7.15929 0.15097,-0.19609 0.3132,-0.25334 0.45719,-0.46899 0.43711,-0.65465 0.70613,-2.76903 0.87144,-4.18803 0.15939,-1.36816 0.20535,-1.52018 0.45962,-1.52018 h 0.5659 l 0.84842,-4.2421 h 0.84842 v -2.54527 h 0.84842 l 0.84842,-3.39368 h 0.84843 v -4.24211 h 0.84842 l 0.84842,-5.93895 h 0.84842 l 0.84842,-3.39368 h 0.84842 c 0,0 -0.19727,-1.31134 0,-1.69684 0.12938,-0.25283 0.42846,-0.10744 0.63245,-0.21597 0.23364,-0.12431 0.34254,-0.58172 0.5022,-1.0349 1.00867,-2.86311 4.71716,-6.3711 7.18985,-6.98362 0.90732,-0.22475 1.00813,-0.27798 1.00813,-0.53225 v -0.5659 h 1.69685 v -0.84842 l 7.63579,-0.84842 v 0.84842 h 4.2421 v 0.84842 l 927.32438,-70.41895 4.2421,-16.96843 h 0.8485 l 0.8484,-4.2421 h 0.8484 v -2.54527 h 0.8484 l 0.8484,-3.39368 h 0.8485 l 3.3936,-14.423162 h 0.8485 l 2.5452,-6.78737 h 0.8485 l 0.5658,-2.263588 c 0.2543,-1.017087 0.3108,-1.126868 0.5651,-1.097808 0.1886,0.02156 0.4023,0.07418 0.5659,-0.03229 0.6306,-0.410373 0.5171,-3.184326 1.0421,-4.005902 0.1289,-0.201767 0.2963,-0.285783 0.4835,-0.489122 0.4533,-0.492281 1.0227,-1.683943 1.3611,-2.606871 0.4563,-1.244085 0.5352,-1.382317 0.7895,-1.382317 h 0.5659 c 0,0 -0.2257,-1.318736 0,-1.696842 0.1347,-0.225566 0.43,-0.116368 0.6324,-0.215973 0.2541,-0.125004 0.3619,-0.57888 0.5001,-1.029366 0.34,-1.108018 10.5264,-11.989604 12.0915,-12.91663 0.6213,-0.368018 1.2119,-0.691392 1.8861,-0.858831 0.9089,-0.225703 1.0099,-0.279034 1.0099,-0.533306 v -0.565897 l 3.3937,-0.848421 v -0.848421 l 4.2421,-0.848421 v -0.848421 h 3.3937 v -0.848422 h 14.4231 c 0,0 -0.066,0.485971 0,0.848422 0.099,0.542119 2.7543,0.901591 4.8575,1.045844 0.8777,0.0602 7.1761,5.210914 7.5911,6.207905 1.4553,3.496188 1.663,5.702108 3.3889,5.504857 0.2543,-0.02906 0.3362,0.110704 0.8188,1.397634 l 2.009,5.357447 h 0.8484 l 0.8484,3.393685 h 0.8485 v 1.696842 h 0.8484 l 0.8484,11.029476 h 0.5659 c 0.2543,0 0.3284,0.145849 0.7413,1.45849 1.519,4.828686 1.4645,5.20312 2.7341,6.407402 0.5947,0.564134 7.0425,48.440637 10.3748,72.687907 0.1871,1.36166 0.2244,1.52648 0.3727,1.64815 0.11,0.0903 0.1969,0.18347 0.2778,0.32137 0.8785,1.49672 1.0534,8.25775 1.0534,8.25775 h 0.8484 l -0.8484,37.33053 h 0.8484 v 3.39369 c 0,0 0.5131,-0.10391 0.8485,0 0.9737,0.30168 0.4496,2.35517 1.0363,3.15294 0.1296,0.17608 0.3132,0.29099 0.4445,0.45671 0.2158,0.27227 0.2905,0.68169 0.445,1.04126 0.698,1.62495 3.2753,2.44132 5.0465,2.73457 1.3607,0.22528 1.5119,0.27856 1.5119,0.53283 v 0.5659 l 3.3937,0.84842 v 0.84842 h 1.6968 v 0.84842 l 19.5137,-1.69684 v -0.84842 h 3.3937 v -0.84842 l 4.2421,-0.84842 v -0.84843 l 5.0905,-0.84842 v -0.84842 h 3.3937 v -0.84842 l 7.6358,-1.69684 v -0.84842 h 2.5452 v -0.84842 l 3.3937,-0.84843 v -0.84842 l 4.2421,-0.84842 v -0.84842 l 3.3937,-0.84842 v -0.84842 l 4.2421,-0.84842 v -0.84842 l 5.939,-0.84842 v -0.84843 l 50.911,-3.2229 c 1.3717,-0.0868 1.5889,-0.063 2.1718,0.23869 0.4325,0.22378 0.8424,0.33676 1.3858,0.43895 3.3375,0.62767 11.7082,0.84842 11.7082,0.84842 v 0.84842 l 6.7874,0.84842 v 0.84843 h 2.5453 v 0.84842 h 1.6968 v 0.84842 h 3.3937 v 0.84842 l 6.7874,2.54526 v 0.84842 h 2.5452 c 0,0 -0.068,0.49111 0,0.84842 0.1085,0.5715 1.768,0.92415 3.153,1.03639 4.43,0.35902 22.9597,18.90451 23.7616,19.76673 0.6877,0.73931 1.3175,1.47206 1.6721,2.60443 0.7179,2.29293 0.4785,3.06242 1.674,2.9258 0.2542,-0.0291 0.3361,0.1107 0.8187,1.39763 l 2.009,5.35745 h 0.8485 l 0.8484,3.39369 h 0.8484 l 3.3937,11.87789 h 0.8484 l 0.8484,11.8779 h 0.8485 l 0.8484,5.93895 h 0.8484 c 0,0 -0.163,19.36584 0.8484,23.58611 0.249,1.03873 0.5672,1.33528 0.8335,2.0361 0.8596,2.26221 0.015,56.67464 0.015,56.67464 h 0.8485 v 1.69685 h 3.3936 c 0,0 -0.076,0.49465 0,0.84842 0.1248,0.57686 1.7458,0.86539 3.153,1.03638 5.5955,0.67994 22.6738,19.78979 23.9965,21.36194 3.1429,3.7356 9.8808,13.69155 13.3136,19.67213 0.351,0.61134 0.6914,1.21184 0.8588,1.88606 0.2257,0.90883 0.279,1.00981 0.5333,1.00981 h 0.5659 v 2.54527 h 0.8484 l 0.8484,4.2421 h 0.5659 c 0.2543,0 0.3115,0.14997 0.5719,1.49974 1.2577,6.51786 3.4692,18.73838 4.1464,19.47459 0.1488,0.16169 0.3051,0.30208 0.4508,0.46348 1.0019,1.11028 2.8089,29.901 3.8017,30.93702 0.1475,0.15388 0.3056,0.28677 0.4443,0.45802 1.1059,1.36574 0.7871,7.64445 1.8244,10.63164 0.28,0.80623 0.6826,1.40221 1.0585,2.02429 0.6867,1.13644 5.4341,32.52651 5.4969,36.34583 0.2309,14.04096 0.3045,31.36752 0.3045,31.36752 h 0.8484 l 2.5453,11.87789 h 0.8484 l 0.8484,4.24211 h 0.8485 v 2.54526 h 0.8484 l 3.3937,9.33264 h 0.8484 l 0.8484,4.2421 h 0.5659 c 0.2543,0 0.3181,0.14859 0.6379,1.48584 2.538,10.61124 2.8382,11.92745 7.433,20.90961 0.6263,1.22431 0.7241,1.36035 0.9784,1.36035 h 0.5659 l 0.8484,3.39368 h 0.5659 c 0.2543,0 0.2984,0.1161 0.4417,1.16093 0.1063,0.77512 0.2882,1.89231 0.6892,2.23276 0.2016,0.17117 0.4586,0.14599 0.6605,0.24074 0.6336,0.29742 0.7245,1.78565 1.0364,3.15294 0.462,2.02593 8.3321,10.47583 11.8779,15.61095 0.5062,0.7332 0.9459,1.49336 1.2465,2.32211 0.4053,1.11713 0.5527,1.35461 1.4738,2.37476 15.8737,17.58047 45.6899,50.3881 47.3365,52.99577 5.7925,9.17315 7.6071,14.06346 15.0287,21.39571 1.8727,1.85012 9.0653,12.43484 9.2934,13.67613 0.1702,0.92653 0.2821,1.91933 0.2821,1.91933 0,0 0.5014,-0.0824 0.8485,0 0.946,0.22471 0.4096,3.00621 1.042,4.0059 0.124,0.19592 0.3071,0.32681 0.4762,0.48398 1.4002,1.30144 2.0157,6.45607 3.3254,8.94557 0.3698,0.70298 0.8289,1.22495 1.2299,1.99688 1.4521,2.79552 2.4107,11.71714 2.4107,11.71714 h -0.8485 v 5.93895 h -0.8484 l -2.5452,15.27158 h -0.8485 v 2.54527 c 0,0 -0.5124,-0.10179 -0.8484,0 -0.9839,0.29811 -0.4541,2.34235 -1.0364,3.15294 -0.1264,0.17602 -0.3053,0.29387 -0.4445,0.45672 -0.2276,0.26632 -0.349,0.653 -0.4956,1.03247 -0.8296,2.14705 -11.4554,13.24634 -15.4252,14.66064 -0.9926,0.35363 -1.0267,0.32823 -1.5016,0.86797 -0.5732,0.65152 -27.0989,6.25802 -40.6904,9.20082 -1.3433,0.29086 -1.4926,0.35143 -1.4926,0.6057 v 0.5659 l -3.3937,0.84842 v 0.5659 c 0,0.25427 -0.1161,0.29844 -1.1609,0.44171 -4.6859,0.64252 -14.7142,9.23484 -14.9591,9.51282 -2.1258,2.41289 -4.3622,6.50328 -6.5097,10.30823 -0.3433,0.60828 -0.6986,1.22547 -0.8697,1.90675 -0.2308,0.91835 -0.2846,1.02038 -0.5389,1.02038 h -0.5659 l -0.8484,3.39369 h -0.8485 l -0.8484,4.24211 h -0.8484 l -3.3937,12.72631 h -0.8484 l -1.6968,24.60422 h 0.8484 l 0.8484,7.63579 h -0.8484 c 0,0 -1.4873,34.12313 -2.4991,36.31348 -0.2986,0.64654 -0.6327,0.99793 -0.8946,2.03516 -0.6398,2.53429 -0.8484,9.16295 -0.8484,9.16295 h -0.8484 l -3.3937,17.81684 h -0.8485 l -0.8484,4.24211 h -0.8484 l -0.8484,3.39368 h -0.8484 l -2.5453,8.48421 h -0.8484 l -2.5453,6.78737 h -0.8484 c 0,0 0.176,1.3065 0,1.69685 -0.113,0.25042 -0.4214,0.0961 -0.6325,0.21597 -0.2233,0.12683 -0.3496,0.58744 -0.5039,1.03973 -0.5149,1.50902 -4.895,7.22548 -6.8388,8.92535 -6.1762,5.40128 -12.9395,8.49896 -22.8708,12.94999 -1.2546,0.56227 -1.3908,0.653 -1.3617,0.90727 0.022,0.18864 0.072,0.43807 -0.032,0.5659 -0.2132,0.26115 -1.0726,0.0148 -1.4809,0.21597 -0.1969,0.097 -0.2889,0.29809 -0.4689,0.46122 -0.8429,0.76394 -3.6348,0.75364 -3.9892,1.86814 -0.1158,0.3643 0,0.8484 0,0.8484 h -1.1318 c -0.5085,0 -0.6771,0.1038 -1.6855,1.0378 -8.1982,7.5933 -24.0596,22.0977 -24.3321,23.0573 -0.084,0.2969 -0.1472,0.5913 -0.281,0.8984 -0.5678,1.3027 -2.4136,2.8322 -3.7525,4.2811 -0.4872,0.5273 -0.9072,1.0439 -1.1993,1.6675 -0.3937,0.8405 -0.4613,1.0848 -0.6765,2.4424 -1.3648,8.6127 -3.8333,25.077 -4.4707,25.7732 -0.1497,0.1635 -0.3066,0.2961 -0.4568,0.4687 -0.7,0.8044 -2.8802,12.3911 -4.1338,18.6277 -0.2709,1.3477 -0.3293,1.4975 -0.5835,1.4975 h -0.5659 v 1.6968 h -0.8485 c 0,0 -2.3926,37.2649 -1.6333,39.7081 0.2276,0.7325 0.5335,1.0683 0.7442,2.0334 0.8671,3.9705 0.041,20.1933 0.041,20.1933 h -0.8484 l -0.8484,9.3326 h -0.8484 v 2.5453 h -0.8485 v 1.6968 h -0.8484 v 3.3937 h -0.8484 l -2.8718,7.8974 c -0.4697,1.2917 -0.5501,1.432 -0.8044,1.4029 -1.2458,-0.1423 -1.0264,0.73 -1.6023,3.1853 -0.3876,1.6524 -6.9952,10.8611 -7.6552,11.6933 -2.1983,2.772 -5.0134,5.1052 -7.8287,7.4981 -2.9112,2.4745 -45.8257,42.9189 -61.6611,51.1903 -0.6909,0.3609 -1.3836,0.7013 -2.1377,0.8715 -1.0164,0.2294 -1.1294,0.2831 -1.1294,0.5374 v 0.5659 l -4.2421,0.8484 v 0.8484 l -6.7873,2.5453 v 0.8484 l -6.7874,2.5453 v 0.8484 l -6.7874,2.5453 v 0.8484 h -2.5452 v 0.8484 l -6.7874,2.5453 v 0.8484 l -2.8295,0.5659 c -1.2713,0.2543 -1.4094,0.3108 -1.3803,0.565 0.1438,1.2582 -0.8038,1.1776 -3.1852,1.6023 -1.1675,0.2083 -11.4511,7.5525 -11.8755,8.4811 -0.1658,0.3627 -0.2892,0.7145 -0.4975,1.0635 -0.6382,1.0694 -2.0723,2.1116 -3.1394,3.3332 -1.5611,1.7871 -2.3363,3.9582 -3.3937,6.1086 -2.4343,4.9508 -6.3641,9.7921 -9.0729,14.4143 -0.3559,0.6073 -0.6907,1.2108 -0.8578,1.8845 -0.2253,0.9081 -0.2786,1.009 -0.5328,1.009 h -0.5659 l -0.5659,2.2636 c -0.2543,1.0171 -0.3108,1.1268 -0.5651,1.0978 -0.1886,-0.022 -0.4309,-0.077 -0.5659,0.032 -0.3616,0.2933 0.047,1.7724 -0.2159,2.3293 -0.094,0.1985 -0.2733,0.2798 -0.4613,0.4688 -0.4831,0.486 -1.0226,1.684 -1.3611,2.6069 -0.4562,1.2441 -0.5352,1.3823 -0.7895,1.3823 h -0.5659 v 2.5453 h -0.8484 l -0.8484,4.2421 h -0.8484 l -0.8484,6.7874 h -0.8485 l -2.5452,29.6947 h -0.8485 l -0.8484,5.939 h -0.8484 l -0.8484,4.2421 H 1350.2 l -0.8485,5.0905 c 0,0 -0.4912,-0.062 -0.8484,0 -0.5684,0.099 -0.9094,1.6967 -1.0364,3.1529 -0.07,0.8056 -15.3787,16.6589 -17.215,17.8277 -2.3886,1.5203 -4.3694,2.7822 -6.8257,4.1973 -0.5973,0.3442 -1.2227,0.6973 -1.9025,0.8678 -0.9165,0.2298 -1.0183,0.2836 -1.0183,0.5379 v 0.5659 l -2.2636,0.5659 c -1.0171,0.2542 -1.1268,0.3107 -1.0978,0.565 0.1729,1.513 -1.2254,0.9436 -4.0382,1.608 -2.0025,0.473 -4.9876,4.1839 -7.3629,5.7453 -1.2895,0.8476 -2.7811,1.1519 -4.2499,1.9558 -3.678,2.0132 -7.2255,7.1787 -10.2852,8.7895 -0.3474,0.1829 -0.6885,0.32 -1.0296,0.5001 -1.0279,0.5431 -7.9853,10.0547 -10.1373,13.859 -0.3548,0.6271 -0.6908,1.2108 -0.8578,1.8845 -0.2253,0.9081 -0.2786,1.009 -0.5328,1.009 h -0.5659 l -0.8485,4.2421 h -0.8484 l -5.9389,21.2105 H 1269.6 l -2.5453,6.7874 h -0.8484 l -2.5453,8.4842 h -0.8484 v 3.3937 h -0.8484 l -2.5453,6.7874 h -0.8484 l -2.5453,6.7873 h -0.8484 l -2.0091,5.3575 c -0.4826,1.2869 -0.5644,1.4267 -0.8187,1.3976 -0.9092,-0.1039 -0.7027,0.1663 -0.7819,1.5132 -0.064,1.0915 -1.8745,3.8666 -3.4499,5.7166 -4.7984,5.6346 -7.9019,10.9197 -12.7935,15.7099 -1.9269,1.887 -13.9384,9.8434 -16.2102,10.7377 -0.2738,0.1077 -0.545,0.2101 -0.8342,0.2428 -0.3897,0.044 -0.433,0.077 -0.433,0.3315 v 0.5659 h -2.5453 v 0.8484 l -2.8295,0.5659 c -1.2713,0.2543 -1.4094,0.3108 -1.3803,0.565 0.022,0.1887 0.053,0.4017 -0.032,0.5659 -0.4359,0.8378 -3.9176,0.4034 -4.8575,1.0459 -0.195,0.1332 -0.2806,0.3129 -0.462,0.4488 -1.1377,0.8526 -6.101,0.1073 -6.5584,1.0506 -0.08,0.1653 -0.054,0.3773 -0.032,0.5659 0.029,0.2543 -0.1107,0.3361 -1.3976,0.8187 l -5.3575,2.0091 v 0.8484 l -11.0295,4.2421 v 0.8484 h -2.5452 v 0.8484 l -2.2636,0.5659 c -1.0171,0.2543 -1.1269,0.3108 -1.0978,0.5651 0.1023,0.8957 -0.1979,0.8016 -1.5132,0.7819 -0.9639,-0.014 -6.1944,3.1302 -8.5515,5.1413 -8.281,7.0654 -22.7383,16.7753 -23.6885,18.6145 -0.1745,0.3377 -0.3251,0.6792 -0.4996,1.0282 -0.8732,1.7464 -8.2856,10.0727 -12.2022,13.7066 -1.4896,1.3821 -9.0492,13.1862 -9.2799,14.4903 -0.1665,0.9411 -0.2932,1.9505 -0.2932,1.9505 h -0.8484 l -0.5659,2.2636 c -0.2543,1.017 -0.3108,1.1268 -0.5651,1.0978 -0.1886,-0.022 -0.4024,-0.047 -0.5659,0.032 -0.6677,0.3224 -0.4949,2.3808 -1.0364,3.1529 -0.1387,0.1978 -0.3243,0.3112 -0.4892,0.4937 -0.8389,0.9284 -1.1415,3.6455 -1.868,3.9891 -0.2714,0.1284 -0.6019,-0.074 -0.8485,0 -0.5562,0.1679 -0.6852,1.7464 -1.0364,3.153 -0.3954,1.5839 -4.0122,6.8103 -6.3447,10.0814 -2.1675,3.0395 -3.7802,6.6106 -5.5026,10.0072 -0.6219,1.2264 -0.7193,1.3594 -0.9735,1.3304 -0.1887,-0.022 -0.4023,-0.046 -0.5659,0.032 -0.6686,0.3213 -0.5043,2.3693 -1.0364,3.1529 -0.1352,0.1991 -0.3154,0.3166 -0.4892,0.4937 -0.5421,0.5521 -1.0227,1.6839 -1.3612,2.6068 -0.4562,1.2441 -0.5352,1.3823 -0.7894,1.3823 h -0.5659 l -0.8485,4.2422 h -0.8484 l -0.8484,5.0905 h -0.8484 v 1.6968 h -0.8484 v 4.2421 c 0,0 -0.5065,-0.1177 -0.8485,0 -0.9837,0.3387 -0.6071,2.6256 -1.0363,3.153 -0.1563,0.192 -0.4194,0.1507 -0.6605,0.2407 -0.6158,0.2299 -2.0956,5.7698 -2.9623,8.7151 -0.3883,1.3194 -0.4596,1.466 -0.7139,1.466 h -0.5659 v 3.3937 h -0.8484 l -2.5453,11.0294 h -0.8484 l -0.8484,4.2421 h -0.8485 v 2.5453 h -0.8484 l -2.5452,6.7874 h -0.8485 v 2.5452 h -0.8484 l -0.8484,3.3937 h -0.8484 l -0.8484,4.2421 h -0.8485 l -0.8484,3.3937 h -0.8484 l -0.8484,4.2421 h -0.8485 v 2.5453 c 0,0 -0.5105,-0.104 -0.8484,0 -0.9847,0.303 -0.5038,2.3724 -1.0364,3.1529 -0.1313,0.1925 -0.3243,0.3066 -0.4892,0.4937 -0.8142,0.9236 -0.9433,3.6258 -1.8681,3.9892 -0.1744,0.068 -0.3772,0.054 -0.5659,0.032 -0.2542,-0.029 -0.3361,0.1107 -0.8187,1.3976 l -2.009,5.3574 h -0.8485 l -2.8718,7.8975 c -0.4697,1.2916 -0.5501,1.4319 -0.8044,1.4029 -0.1886,-0.022 -0.4369,-0.072 -0.5659,0.032 -0.2634,0.2133 -0.029,1.0738 -0.2159,1.4808 -0.089,0.1942 -0.2747,0.2852 -0.4613,0.4689 -0.5069,0.4994 -1.0226,1.684 -1.3611,2.6069 -0.4562,1.2441 -0.5352,1.3823 -0.7895,1.3823 h -0.5659 c 0,0 0.2219,1.3277 0,1.6969 -0.1339,0.2229 -0.4297,0.096 -0.6324,0.2159 -0.2334,0.1377 -0.3433,0.6015 -0.5032,1.0376 -0.6046,1.6495 -1.9226,2.9008 -2.836,4.3182 -0.3833,0.5949 -0.6954,1.219 -0.865,1.897 -0.2285,0.9139 -0.2821,1.0155 -0.5364,1.0155 h -0.5659 l -0.5659,2.2636 c -0.2543,1.017 -0.3108,1.1268 -0.5651,1.0978 -1.2847,-0.1469 -0.9512,0.7812 -1.6022,3.1852 -0.6337,2.3398 -2.5749,3.6987 -3.8829,5.5842 -1.1548,1.6644 -1.8161,3.7392 -2.9545,5.2432 -0.7044,0.9306 -1.5915,1.6426 -2.3073,2.479 -1.4826,1.7323 -2.2308,3.998 -3.3937,6.1087 -0.7775,1.4113 -13.6405,13.2943 -16.612,15.3463 -3.0552,2.1099 -5.9595,4.1022 -9.0935,6.0323 -0.8339,0.5136 -1.684,1.0227 -2.60695,1.3612 -1.24409,0.4562 -1.38232,0.5352 -1.38232,0.7894 v 0.5659 l -5.09053,0.8484 v 0.8485 l -3.39368,0.8484 v 0.5659 c 0,0.2543 -0.14966,0.3131 -1.49653,0.5887 -5.14961,1.0537 -9.81463,2.2634 -15.5171,2.7854 -12.17727,1.1149 -33.11629,3.3247 -33.66518,3.9007 -0.14435,0.1515 -0.27645,0.3098 -0.45951,0.4461 -1.66064,1.2362 -8.44425,0.9394 -9.71496,2.0917 -0.16332,0.1481 -0.28006,0.3178 -0.4661,0.4535 -0.93077,0.6793 -3.59638,0.5092 -4.62442,1.2433 -0.19943,0.1424 -0.33724,0.3188 -0.49496,0.4939 -1.06459,1.1813 -7.34503,4.2691 -11.11045,6.2369 -1.21857,0.6368 -1.35396,0.7358 -1.35396,0.9901 v 0.5659 c 0,0 -1.25464,-0.1447 -1.69685,0 -0.23851,0.078 -0.21198,0.3671 -0.21597,0.6324 -0.009,0.6232 -4.76359,3.5524 -7.87554,5.3857 -6.35228,3.7424 -10.94478,13.8404 -15.49305,21.3843 -0.51282,0.8506 -1.02268,1.6839 -1.36114,2.6069 -0.45624,1.244 -0.53518,1.3823 -0.78946,1.3823 h -0.56589 l -0.84842,3.3937 h -0.84843 l -0.84842,4.2421 h -0.84842 v 1.6968 h -0.84842 l -0.84842,11.0295 h 0.84842 v 3.3937 h 0.84842 l 0.84842,4.2421 h 0.84842 c 0,0 -0.19294,1.2921 0,1.6968 0.11944,0.2506 0.38672,0.1611 0.63245,0.216 0.66539,0.1485 1.30872,1.705 1.65758,2.9762 0.43611,1.5892 0.55444,2.7644 1.10366,3.9346 0.92928,1.9799 3.09212,3.9456 4.24211,5.9389 0.84705,1.4682 1.14457,2.9514 1.69684,4.4118 0.47625,1.2594 14.56413,16.4038 20.36211,21.8893 2.27564,2.1529 14.93812,18.8141 16.12,21.2105 1.72726,3.5022 3.32104,7.4243 5.33659,10.1698 0.90757,1.2362 1.94542,2.3466 2.88835,3.5664 3.04768,3.9425 5.10384,9.0277 8.11459,13.4978 4.20115,6.2374 14.97174,16.1947 18.18943,21.2815 1.16309,1.8387 2.12643,3.7741 3.01967,5.748 0.56729,1.2536 0.65857,1.3929 0.91285,1.3929 h 0.56589 v 1.6969 h 0.84843 l 0.84842,7.6358 h -0.84842 v 4.2421 c 0,0 -0.51515,-0.1163 -0.84843,0 -0.90864,0.317 -0.46528,2.3626 -1.03638,3.1529 -0.12876,0.1782 -0.30908,0.2925 -0.44449,0.4567 -0.21676,0.2629 -0.31842,0.6534 -0.4805,1.0319 -0.53045,1.2389 -7.1693,7.1919 -9.75513,7.834 -0.90883,0.2257 -1.00981,0.279 -1.00981,0.5333 v 0.5659 h -1.69685 v 0.8484 l -7.63579,0.8484 v -0.8484 c 0,0 -21.40861,0.1644 -26.13137,-0.8484 -1.12918,-0.2422 -1.56564,-0.5488 -2.03621,-0.8515 -1.34399,-0.8643 -851.645194,-3.3906 -851.645194,-3.3906 v -0.8484 H 59.75189 c 0,0 0.11607,-0.5152 0,-0.8484 -0.31646,-0.9087 -2.358539,-0.4655 -3.152942,-1.0364 -0.178659,-0.1284 -0.294212,-0.3081 -0.456716,-0.4445 -0.262374,-0.2202 -0.647143,-0.3274 -1.028878,-0.4879 -2.052156,-0.8627 -5.567877,-4.9047 -6.139274,-7.2009 -0.226499,-0.9103 -0.279918,-1.0114 -0.53419,-1.0114 h -0.565897 v -1.6968 h -0.848421 v -4.2421 h -0.848421 z" /><path
       id="path62"
       style="fill:#ffffff;fill-opacity:1;fill-rule:evenodd;stroke:none"
       d="m 840.29813,1893.1888 c 0,0 0.92036,-17.2879 1.9028,-18.4397 0.14598,-0.1711 0.30313,-0.2684 0.45134,-0.4638 0.68519,-0.903 1.17952,-3.9011 1.58431,-5.8989 0.27329,-1.3488 0.33191,-1.4986 0.58618,-1.4986 h 0.56589 l 0.84843,-4.2421 h 0.84842 l 2.54526,-6.7874 h 0.84842 l 0.5659,-2.2636 c 0.25427,-1.0171 0.31077,-1.1269 0.56505,-1.0978 0.18863,0.022 0.43295,0.054 0.56589,-0.032 0.3068,-0.1989 0.0205,-1.0293 0.21598,-1.4809 0.0906,-0.2092 0.28469,-0.3371 0.47339,-0.4767 1.01638,-0.7518 4.49909,-6.9719 6.36016,-11.121 5.92605,-13.2119 12.7461,-16.9389 22.98458,-25.9488 1.97913,-1.7416 24.33592,-14.7612 25.73921,-14.9894 0.94048,-0.1529 1.91932,-0.2821 1.91932,-0.2821 v -0.8485 l 3.39369,-0.8484 v -0.5659 c 0,-0.2543 0.1511,-0.3054 1.51097,-0.5116 2.83615,-0.43 7.74741,-1.0102 8.43703,-1.6652 0.15697,-0.1491 0.2855,-0.3158 0.46379,-0.4509 1.14496,-0.8672 4.3422,-0.4273 5.47747,-1.2486 0.17906,-0.1296 0.30683,-0.2905 0.45755,-0.4438 0.95608,-0.9723 24.37741,-2.7498 24.37741,-2.7498 v -0.8484 h 12.72632 v -0.8484 l 8.48421,-0.8484 v -0.5659 c 0,-0.2543 0.14375,-0.2983 1.43755,-0.4404 0.95981,-0.1054 1.84584,-0.3662 2.80455,-0.6906 1.83587,-0.6212 13.80666,-8.6724 14.24457,-9.5804 0.49397,-1.0242 0.74571,-2.0224 1.87884,-2.4356 0.32917,-0.12 0.45821,-0.255 1.2904,-1.3491 1.45502,-1.9131 11.46769,-13.0712 12.12769,-17.7812 0.1379,-0.9843 0.1815,-1.0937 0.4358,-1.0937 h 0.5659 l 0.5659,-2.2636 c 0.2542,-1.0171 0.3107,-1.1268 0.565,-1.0978 1.2399,0.1417 0.8698,-0.6632 1.6023,-3.1852 0.4447,-1.5313 2.5555,-3.6958 3.8829,-5.5842 0.5622,-0.7998 1.0227,-1.6839 1.3611,-2.6069 0.4563,-1.2441 0.5352,-1.3823 0.7895,-1.3823 h 0.5659 l 0.8484,-3.3937 h 0.8484 l 0.5659,-2.8295 c 0.2543,-1.2713 0.3108,-1.4094 0.5651,-1.3803 0.1886,0.022 0.3913,0.035 0.5659,-0.032 0.9463,-0.3673 1.0691,-3.134 1.9012,-4.6665 0.4105,-0.756 0.9935,-1.2116 1.2103,-1.8984 0.2282,-0.723 0.05,-1.7023 0.2822,-1.9193 0.1733,-0.1623 0.5757,0.1018 0.8484,0 0.5464,-0.2039 0.5722,-1.8768 1.0364,-3.1529 0.6439,-1.7702 2.1316,-2.7768 2.9354,-4.2857 0.4668,-0.8764 0.703,-1.9222 0.8695,-2.9299 0.2243,-1.3585 0.2775,-1.5062 0.5317,-1.4771 0.1887,0.022 0.4257,0.072 0.5659,-0.032 0.4062,-0.3005 0,-1.89 0.216,-2.3293 0.1084,-0.2219 0.3747,-0.1503 0.6325,-0.216 0.6119,-0.1557 3.16,-7.4811 4.5628,-11.2925 0.4749,-1.2904 0.5559,-1.4338 0.8102,-1.4338 h 0.5659 v -2.5452 h 0.8484 l 2.5453,-6.7874 h 0.8484 l 3.3937,-13.5747 h 0.8484 c 0,0 -0.3221,-7.0122 0.8484,-11.0295 0.7642,-2.6226 4.9337,-6.2792 6.5963,-9.5709 0.9817,-1.9436 1.3142,-4.5318 2.0791,-7.1593 1.7254,-5.9273 5.7024,-12.1642 8.8638,-17.6732 0.3525,-0.6142 0.6986,-1.2255 0.8698,-1.9068 0.2307,-0.9183 0.2846,-1.0171 0.5388,-0.9881 0.1887,0.022 0.437,0.072 0.5659,-0.032 0.2635,-0.2133 0.029,-1.0738 0.216,-1.4808 0.089,-0.1942 0.2747,-0.2852 0.4612,-0.4689 0.507,-0.4994 1.0227,-1.684 1.3612,-2.6069 0.4562,-1.2441 0.5351,-1.3823 0.7894,-1.3823 h 0.5659 c 0,0 -0.1572,-1.2568 0,-1.6968 0.086,-0.2413 0.3667,-0.2185 0.6325,-0.216 0.6004,0.01 5.403,-7.5146 5.9836,-9.3696 0.9596,-3.0653 1.1242,-4.1712 2.434,-4.0215 0.2543,0.029 0.3362,-0.1107 0.8188,-1.3976 l 2.009,-5.3575 h 0.8484 l 2.0091,-5.3574 c 0.4826,-1.2869 0.5644,-1.4267 0.8187,-1.3976 1.1184,0.1278 1.0487,-0.5017 1.6023,-3.1853 0.2651,-1.285 12.5683,-19.1973 15.0836,-21.9603 2.9802,-3.2736 5.6453,-6.3686 8.6084,-9.4238 0.9573,-0.9869 1.1088,-1.0966 1.5157,-1.0966 h 0.9054 v -1.6969 h 1.6968 c 0,0 -0.1029,-0.6006 0,-0.8484 0.1026,-0.2469 0.4222,-0.1391 0.6325,-0.2159 0.2886,-0.1055 0.3754,-0.5681 0.4945,-1.0161 1.4585,-5.491 30.8657,-24.6915 33.9112,-25.7462 1.7789,-0.6161 3.7593,-1.1984 3.9892,-1.8681 0.092,-0.2692 -0.043,-0.5679 0,-0.8484 0.09,-0.5814 6.3453,-2.6121 9.5864,-3.74 1.2988,-0.4519 1.4431,-0.5304 1.4431,-0.7846 v -0.5659 h 2.5453 v -0.8485 l 5.3574,-2.009 c 1.2869,-0.4826 1.4267,-0.5645 1.3976,-0.8188 -0.022,-0.1886 -0.044,-0.4027 0.032,-0.5659 0.3098,-0.6648 2.2499,-0.4818 3.153,-1.0363 0.1351,-0.083 0.247,-0.1825 0.3431,-0.3015 0.1295,-0.1605 0.2892,-0.2253 1.5973,-0.648 24.5572,-7.9356 29.873,-8.8535 40.0306,-28.8914 0.6217,-1.2265 0.719,-1.3628 0.9733,-1.3628 h 0.5659 l 2.5452,-6.7873 h 0.8485 l 3.3937,-11.8779 h 0.8484 l 2.5452,-6.7874 h 0.8485 l 0.8484,-4.2421 h 0.8484 l 0.8484,-3.3937 h 0.8484 l 3.3937,-15.2716 h 0.8485 l 0.8484,-4.2421 h 0.8484 v -2.5452 h 0.5659 c 0.2543,0 0.2984,-0.1161 0.4417,-1.161 0.1063,-0.7751 0.347,-1.8802 0.6892,-2.2327 0.2119,-0.2182 0.4626,-0.1481 0.6605,-0.2408 0.5321,-0.2491 0.6818,-1.6748 1.0364,-3.1529 0.3101,-1.2928 13.646,-19.6455 14.6391,-20.1461 0.349,-0.176 0.6762,-0.3075 1.0165,-0.4947 1.5443,-0.8494 5.4197,-5.3632 8.6424,-8.8256 1.6923,-1.8182 19.1535,-14.148 21.7382,-15.35 4.3691,-2.0317 9.2329,-3.9922 12.9107,-6.3763 2.9599,-1.9188 5.8145,-4.3712 8.6038,-6.7068 1.0543,-0.8828 1.1714,-1.0261 1.1714,-1.433 v -0.9054 h 0.8484 v -3.3937 h 0.8484 v -1.6968 h 0.8485 l 0.8484,-22.059 h 0.8484 c 0,0 0.2316,-7.0194 1.0534,-8.2577 0.1419,-0.2139 0.3015,-0.2554 0.4433,-0.4572 0.4372,-0.6223 0.7062,-2.7691 0.8715,-4.1881 0.1594,-1.3681 0.2053,-1.5201 0.4596,-1.5201 h 0.5659 v -3.3937 h 0.8484 l 1.6969,-7.6358 h 0.8484 l 2.5452,-6.7874 h 0.8485 l 2.5452,-6.7874 h 0.8484 l 0.5659,-2.2635 c 0.2543,-1.0171 0.3108,-1.1269 0.5651,-1.0979 0.1886,0.022 0.4315,0.066 0.5659,-0.032 0.3012,-0.2206 0.058,-1.1591 0.216,-1.4809 0.1012,-0.2063 0.3672,-0.1593 0.6324,-0.216 0.6529,-0.1396 4.1819,-7.5133 6.1044,-11.3598 0.6147,-1.2299 0.7112,-1.3633 0.9655,-1.3342 0.8887,0.1015 0.855,-0.2131 0.7819,-1.5132 -0.048,-0.8523 8.9972,-14.5756 11.6619,-17.6934 4.3274,-5.0634 11.1842,-12.3221 12.3389,-12.7855 0.3713,-0.1491 0.7532,-0.2768 1.0199,-0.4962 0.1617,-0.133 0.281,-0.2997 0.449,-0.435 0.9928,-0.7996 3.6841,-0.5017 4.6244,-1.2433 0.1809,-0.1426 0.297,-0.3237 0.486,-0.4797 0.9302,-0.768 3.6271,-0.9296 3.9892,-1.8681 0.067,-0.1751 0.054,-0.3773 0.032,-0.5659 -0.029,-0.2543 0.1102,-0.3374 1.393,-0.8308 l 9.6041,-3.6938 v -0.8485 l 2.2636,-0.5659 c 1.0171,-0.2542 1.1269,-0.3107 1.0978,-0.565 -0.121,-1.0591 0.3197,-0.7377 2.3616,-0.7819 1.2575,-0.027 7.2092,-3.2385 10.7321,-5.0303 1.2256,-0.6234 1.3618,-0.7209 1.3618,-0.9752 v -0.5659 l 6.7874,-2.5452 v -0.8485 l 4.2421,-0.8484 v -0.5659 c 0,-0.2543 0.1161,-0.2984 1.1609,-0.4417 5.1262,-0.7029 16.8119,-10.9532 16.9694,-11.1049 5.7031,-5.4937 14.6436,-13.9745 16.2597,-14.7535 0.3467,-0.1672 0.6913,-0.3136 1.0277,-0.4994 1.3251,-0.7322 4.1898,-4.3439 6.4282,-7.2835 1.2776,-1.6779 17.4854,-14.6835 18.8518,-15.1273 0.3924,-0.1274 0.7828,-0.2404 1.021,-0.4966 0.2381,-0.256 0.3244,-0.6552 0.497,-1.0218 0.7175,-1.5238 2.927,-2.4857 3.6989,-4.3487 0.9007,-2.1738 0.3841,-3.0777 1.6765,-2.93 0.2543,0.029 0.3362,-0.1107 0.8188,-1.3977 l 2.009,-5.3574 h 0.8484 l 0.8485,-5.0905 h 0.8484 c 0,0 -1.6295,-42.5649 -0.8108,-44.7974 0.2518,-0.6864 0.5664,-1.0103 0.8108,-2.0355 0.891,-3.7379 0.8484,-16.7987 0.8484,-16.7987 h 0.8484 l 5.939,-27.9979 h 0.8484 v -1.6969 h 0.8484 v -9.3326 h 0.8484 c 0,0 1.6795,-15.5499 2.7446,-16.737 0.1521,-0.1695 0.3126,-0.2973 0.4517,-0.4645 0.7349,-0.8832 0.874,-2.8667 1.2433,-4.6244 0.3272,-1.5577 4.9424,-9.388 7.4383,-12.62 2.8048,-3.632 12.1214,-13.26425 13.187,-13.63381 1.1034,-0.38262 1.0946,-0.40298 1.4979,-1.53895 1.8132,-5.10656 19.9491,-18.99594 20.5247,-19.38858 4.1892,-2.85758 8.8724,-5.30956 13.4034,-8.02786 0.8446,-0.50672 1.6839,-1.02268 2.6068,-1.36115 1.2441,-0.45623 1.3823,-0.53518 1.3823,-0.78945 v -0.5659 l 2.2636,-0.5659 c 1.0171,-0.25427 1.1269,-0.31077 1.0978,-0.56504 -0.022,-0.18864 -0.053,-0.40325 0.032,-0.5659 0.3805,-0.72342 3.0801,-0.41908 4.0059,-1.04206 0.2,-0.13457 0.3173,-0.3124 0.4794,-0.46996 0.5551,-0.53944 1.6365,-0.84131 2.6543,-1.29533 1.2351,-0.55094 3.5105,-2.91966 3.6064,-3.7544 0.183,-1.59151 -0.2258,-2.07763 0.8494,-1.95475 0.2543,0.0291 0.3347,-0.11124 0.8044,-1.40293 l 2.8718,-7.89742 h 0.8484 l 0.8485,-4.2421 h 0.5659 c 0.2542,0 0.3168,-0.14887 0.626,-1.48869 0.8587,-3.72092 1.5327,-6.89519 2.2017,-11.23763 2.1461,-13.92859 4.2421,-39.8758 4.2421,-39.8758 h -0.8484 c 0,0 -0.9997,-7.46981 -0.6936,-10.02321 0.1216,-1.0141 0.4491,-1.25272 0.73,-2.02372 1.0773,-2.95773 1.6605,-22.73834 1.6605,-22.73834 h 0.8484 c 0,0 0.8232,-10.39849 1.897,-11.64715 0.1514,-0.17608 0.3147,-0.2928 0.4571,-0.46899 1.0502,-1.29917 0.9615,-5.83164 2.0791,-7.15929 0.1488,-0.17676 0.319,-0.29672 0.4662,-0.4765 1.1936,-1.45756 0.8786,-6.84776 1.888,-7.39754 0.241,-0.1313 0.5576,0.0135 0.8484,0 0.5571,-0.0258 2.426,-4.98735 3.574,-9.09355 0.4749,-1.69867 11.7265,-19.43171 13.3944,-21.11025 3.6071,-3.63013 9.0256,-8.96953 14.0749,-11.95759 0.58,-0.3432 1.2108,-0.69073 1.8845,-0.85783 0.9081,-0.22524 1.009,-0.27852 1.009,-0.53279 v -0.5659 l 2.2636,-0.56589 c 1.0171,-0.25427 1.1269,-0.31078 1.0978,-0.56505 -0.022,-0.18863 -0.047,-0.40259 0.032,-0.5659 0.3229,-0.66712 2.3853,-0.48908 3.153,-1.03639 0.1966,-0.14022 0.3083,-0.32804 0.4936,-0.48922 0.9151,-0.7959 3.6252,-0.94183 3.9892,-1.86807 0.069,-0.17475 0.054,-0.37727 0.032,-0.5659 -0.029,-0.25427 0.1107,-0.33615 1.3976,-0.81875 l 3.9276,-1.47282 c 1.2869,-0.4826 1.4266,-0.56447 1.3976,-0.81874 -0.022,-0.18864 -0.076,-0.40148 0.032,-0.5659 0.4729,-0.71601 4.0434,-0.51377 4.8575,-1.04584 0.1948,-0.12739 0.2317,-0.29686 0.462,-0.44887 1.0945,-0.72256 6.5584,-1.05055 6.5584,-1.05055 v -0.84842 l 11.0294,-0.84843 v -0.56589 c 0,-0.25427 0.151,-0.30624 1.5092,-0.51964 4.5348,-0.71251 12.829,-1.8641 13.536,-2.5131 0.1754,-0.16109 0.3124,-0.33659 0.4742,-0.46488 0.6191,-0.49097 1.6007,-0.29043 2.2975,-1.02701 1.0571,-1.11758 1.6968,-10.18106 1.6968,-10.18106 h -0.8484 v -2.54526 h -0.5659 c -0.2543,0 -0.2983,-0.14376 -0.4404,-1.43755 -0.1054,-0.95981 -0.2294,-2.40942 -0.6905,-2.80456 -0.1961,-0.16799 -0.4531,-0.14538 -0.6579,-0.23871 -0.6143,-0.27997 -0.7873,-1.95143 -1.039,-3.49434 -0.1801,-1.10434 -14.6067,-20.72507 -16.7524,-22.78398 -5.8301,-5.59427 -28.5438,-35.25545 -40.9402,-48.65308 -14.1879,-15.33377 -19.7157,-20.56449 -29.8521,-40.54943 -0.622,-1.22632 -0.7193,-1.36258 -0.9736,-1.36258 h -0.5659 l -2.5453,-6.78737 h -0.8484 l -2.5452,-6.78737 h -0.8485 l -0.8484,-3.39368 h -0.8484 l -4.671,-16.34845 c -0.3776,-1.32156 -0.4478,-1.46517 -0.7021,-1.43611 -0.1886,0.0216 -0.4018,0.074 -0.5659,-0.0323 -0.6315,-0.40918 -0.5336,-3.17096 -1.042,-4.0059 -0.1319,-0.21657 -0.3046,-0.30351 -0.4762,-0.48399 -0.8268,-0.86932 -1.6294,-3.90899 -2.2651,-5.92952 -0.4129,-1.31264 -0.487,-1.45849 -0.7413,-1.45849 h -0.5659 v -2.54526 h -0.8484 l -0.8484,-3.39368 h -0.8484 v -3.39369 h -0.8485 l -3.3937,-14.42316 h -0.8484 c 0,0 -0.5369,-29.59893 -2.0004,-42.38737 -1.572,-13.73638 -10.5204,-54.21378 -10.7259,-60.27159 -0.2182,-6.43085 -1.3239,-16.16458 -1.9018,-16.74196 -0.1476,-0.14749 -0.3081,-0.25876 -0.446,-0.45952 -1.046,-1.52205 -0.9136,-8.32436 -2.0917,-9.71495 -0.1452,-0.17139 -0.3098,-0.27804 -0.435,-0.44903 -0.2729,-0.37265 -0.3586,-1.05089 -0.5086,-1.73247 -0.2859,-1.29994 -9.8527,-14.35017 -14.9355,-21.41593 -0.8027,-1.11585 -0.9484,-1.23984 -1.457,-1.23984 h -1.1318 v -1.69684 c 0,0 -0.6053,0.0941 -0.8484,0 -0.2441,-0.0945 -0.1035,-0.42083 -0.216,-0.63245 -0.1295,-0.24373 -0.6181,-0.34434 -1.026,-0.49873 -1.2423,-0.47025 -1.7353,-1.43944 -2.8385,-1.98465 -2.2424,-1.1083 -10.2773,-0.25505 -10.3426,-1.12628 -0.019,-0.24873 0.2529,-0.6106 0,-0.84842 -0.4293,-0.40354 -2.369,-0.44991 -3.153,-1.03638 -0.1925,-0.14401 -0.3153,-0.32057 -0.4839,-0.47563 -0.5822,-0.53552 -1.7105,-0.81464 -2.6572,-1.29706 -1.6161,-0.82353 -4.4936,-4.20945 -5.3048,-6.13877 -0.1101,-0.26176 -0.2024,-0.53066 -0.2331,-0.81193 -0.041,-0.37915 -0.074,-0.42128 -0.3285,-0.42128 h -0.5659 v -2.54526 h -0.8484 v -7.6358 h -0.8484 l -0.8484,-4.2421 h -0.8485 l -1.6968,-83.14528 h -0.8484 v -4.2421 h -0.8484 l -0.8485,-6.78737 h -0.8484 v -6.78737 h -0.8484 l -1.3656,-6.145 c -0.2981,-1.34172 -0.3595,-1.48756 -0.6138,-1.45851 -0.1886,0.0216 -0.4023,0.036 -0.5659,-0.0323 -0.7406,-0.30934 -0.4543,-2.31599 -1.0363,-3.15295 -0.1356,-0.19485 -0.3181,-0.3263 -0.4757,-0.4839 -0.6333,-0.63352 -0.8623,-1.68961 -1.2901,-2.64584 -0.471,-1.05304 -7.5521,-6.45809 -11.1574,-9.26791 -0.5636,-0.43927 -1.0766,-0.89167 -1.8122,-1.15816 -2.1497,-0.7787 -3.0722,-0.39302 -2.9258,-1.67399 0.029,-0.25427 -0.1146,-0.32448 -1.4361,-0.70206 l -10.4095,-2.97415 v -0.84842 l -27.9979,-1.69684 v 0.84842 l -26.3011,2.54527 v 0.84842 l -4.2421,0.84842 v 0.56589 c 0,0.25428 -0.1432,0.33577 -1.4322,0.81495 -3.1664,1.1771 -8.4304,2.94965 -9.3546,3.88462 -0.1623,0.16425 -0.2957,0.33438 -0.4809,0.48237 -1.4164,1.13194 -5.8606,0.96822 -7.1593,2.07908 -0.1716,0.14677 -0.2883,0.3158 -0.469,0.45718 -0.7832,0.6128 -2.769,0.70613 -4.188,0.87144 -1.3682,0.15939 -1.5202,0.20535 -1.5202,0.45963 v 0.56589 h -1.6968 v 0.84842 h -3.3937 v 0.84842 l -4.2421,0.84843 v 0.84842 c 0,0 -3.425,0.38917 -5.0391,0.84842 -1.0525,0.29947 -1.335,0.62873 -1.9145,0.93297 -2.0932,1.09898 -29.5285,3.30913 -29.5285,3.30913 v -0.84842 h -5.0906 v -0.84842 h -2.5452 v -0.84842 l -8.4842,-2.54526 v -0.84842 l -6.145,-1.36556 c -1.3418,-0.29816 -1.4876,-0.35954 -1.4586,-0.61381 0.1378,-1.20523 -0.6528,-1.02801 -3.1852,-1.60229 -1.144,-0.25944 -7.4588,-5.28146 -8.7249,-6.93877 -2.0548,-2.68966 -3.8964,-5.35977 -5.7678,-8.39776 -0.5102,-0.8283 -1.0226,-1.68394 -1.3611,-2.60687 -0.4562,-1.24408 -0.5352,-1.38232 -0.7895,-1.38232 h -0.5658 l -0.8485,-3.39368 h -0.5659 c -0.2542,0 -0.3129,-0.14986 -0.5861,-1.49861 -0.4048,-1.99778 -0.9043,-5.07077 -1.5844,-5.89893 -0.1529,-0.18632 -0.3151,-0.25901 -0.4571,-0.46899 -0.4568,-0.67506 -0.7062,-2.76903 -0.8715,-4.18803 -0.1594,-1.36816 -0.2053,-1.52018 -0.4596,-1.52018 h -0.5659 l 0.8484,-37.33053 -9.3326,-54.29896 -0.8484,-19.51369 h -0.8485 v -3.39368 h -0.8484 l -0.8484,-3.393686 h -0.8484 l -0.8484,-4.242106 h -0.8485 v -2.545263 h -1.6968 l -0.8484,4.242106 h -0.8484 l -0.8485,3.393685 h -0.8484 l -0.8484,5.090524 h -0.8484 v 3.39369 h -0.8484 l -0.8485,4.2421 h -0.8484 v 2.54527 h -0.8484 l -2.5453,8.48421 h -0.8484 l -4.2421,20.36211 h -0.8484 v 2.54526 h -0.8484 l -0.8485,3.39369 h -0.8484 c 0,0 0.1786,1.30038 0,1.69684 -0.1128,0.25038 -0.4271,0.11101 -0.6324,0.21597 -0.2269,0.11602 -0.3361,0.56485 -0.501,1.03177 -0.441,1.2479 -6.6277,8.09976 -7.8141,8.65417 -0.387,0.18084 -0.7572,0.31187 -1.0176,0.49511 -0.1806,0.12714 -0.3085,0.27941 -0.4432,0.42837 -0.5154,0.56988 -51.0093,6.21782 -54.9201,6.14303 -9.0603,-0.17327 -882.35806,67.02528 -882.35806,67.02528 v 0.84842 h -4.24211 l -2.54526,6.78737 h -0.84842 l -0.84842,5.93895 h -0.84842 v 3.39368 h -0.84842 l -5.93895,21.21053 h -0.84843 v 2.54526 h -0.84842 v 1.69685 h -0.84842 v 3.39368 h -0.56589 c -0.25428,0 -0.31817,0.14856 -0.63893,1.48559 -0.95625,3.9859 -2.50319,11.10189 -3.2374,11.85841 -0.15259,0.15722 -0.30812,0.23355 -0.44819,0.46148 -0.42396,0.68995 -0.70613,2.76903 -0.87144,4.18803 -0.15939,1.36816 -0.20535,1.52018 -0.45962,1.52018 h -0.5659 v 3.39368 h -0.56589 c -0.25428,0 -0.31284,0.14976 -0.58568,1.49756 -0.69088,3.413 -1.70757,9.26642 -2.44425,10.15136 -0.14836,0.17823 -0.30671,0.29851 -0.45832,0.46972 -0.76187,0.8604 -2.27375,7.86576 -3.22626,11.84817 -0.31985,1.33725 -0.38364,1.48583 -0.63791,1.48583 h -0.5659 l -2.97414,10.4095 c -0.37759,1.32156 -0.4478,1.46517 -0.70207,1.43611 -0.18863,-0.0216 -0.43464,-0.0593 -0.56589,0.0323 -0.28943,0.20199 -0.0208,1.03302 -0.21598,1.48086 -0.0913,0.20953 -0.28407,0.33517 -0.47339,0.47673 -1.04123,0.77853 -5.20065,8.69239 -7.53517,12.96574 -0.34337,0.62854 -0.69073,1.21082 -0.85783,1.8845 -0.22524,0.90811 -0.27852,1.00901 -0.53279,1.00901 h -0.28337 c -0.25428,0 -0.30024,0.15202 -0.45963,1.52018 -0.16531,1.419 -0.27275,3.38708 -0.87144,4.18803 -0.13999,0.18728 -0.30684,0.31075 -0.46034,0.47148 -1.27971,1.34 -2.4899,11.75325 -3.76961,13.09325 -0.1535,0.16073 -0.32035,0.28421 -0.46034,0.47149 -0.59869,0.80095 -0.70613,2.76903 -0.87144,4.18803 -0.15939,1.36816 -0.20535,1.52018 -0.45962,1.52018 h -0.5659 v 1.69684 h -0.84842 v 3.39368 h -0.84842 l -0.84842,4.24211 h -0.84842 l -0.84843,5.09053 h -0.84842 v 1.69684 h -0.84842 l -5.09053,65.32843 h 0.84843 v 3.39369 h 0.84842 l 1.69684,7.63579 h 0.84842 c 0,0 3.1501,35.41723 2.45707,38.01309 -0.21013,0.78706 -0.49768,1.27686 -0.76023,2.03239 -0.55488,1.59679 -1.25702,26.17018 -0.79034,27.66019 0.23991,0.76594 0.52911,1.26505 0.77114,2.03437 0.86022,2.73434 0.0192,43.9484 0.0192,43.9484 h -0.84842 v 4.2421 h -0.56589 c -0.25428,0 -0.30544,0.1511 -0.51163,1.51098 -0.43004,2.83614 -1.01038,7.74837 -1.66517,8.43703 -0.14934,0.15707 -0.31641,0.28572 -0.45087,0.46379 -0.86384,1.14394 -0.38177,4.32692 -1.24866,5.47747 -0.13496,0.17911 -0.30261,0.30897 -0.45325,0.46577 -1.14797,1.19495 -1.78495,11.89877 -2.93538,13.10467 -0.1496,0.15681 -0.31614,0.2867 -0.45594,0.46808 -0.5455,0.70779 -0.68382,2.19977 -0.83912,3.33984 -0.18605,1.36588 -0.23497,1.51764 -0.48925,1.51764 h -0.56589 v 1.69684 h -0.84842 v 3.39369 h -0.84842 v 1.69684 h -0.84843 c 0,0 -0.68225,6.46624 -1.61229,9.16647 -0.33858,0.98301 -0.71,1.46691 -1.05332,2.02555 -0.67101,1.09183 -4.60642,28.5063 -4.97018,34.62273 -0.33669,5.66129 0.30523,26.71619 0.84842,27.82821 0.27754,0.56817 0.59808,1.05825 0.84843,2.03621 0.69354,2.70928 0.84842,9.16295 0.84842,9.16295 h 0.84842 v 3.39368 h 0.56589 c 0.25428,0 0.30993,0.1504 0.55655,1.50396 1.23941,6.80236 2.71379,10.19583 5.89965,17.45902 0.55233,1.25922 0.64195,1.39591 0.89622,1.36684 1.1383,-0.13009 1.16322,0.57643 1.60229,3.18524 0.22021,1.30845 16.21286,26.78956 19.54535,31.14163 3.77753,4.93328 7.11016,10.06838 9.69091,14.54661 0.35484,0.61574 0.69547,1.21906 0.86501,1.89705 0.22853,0.91391 0.28218,1.01546 0.53645,1.01546 h 0.5659 l 0.84842,3.39368 h 0.84842 l 0.84842,4.24211 h 0.84842 l 0.5659,2.26358 c 0.25427,1.01709 0.31077,1.12687 0.56505,1.09781 0.18863,-0.0216 0.39065,-0.0379 0.56589,0.0323 0.94966,0.38029 1.11266,3.30097 1.9012,4.66651 0.38901,0.67366 0.93025,0.96884 1.21031,1.89838 0.22657,0.75204 0.28218,1.91932 0.28218,1.91932 h 0.84842 l 0.84842,3.39369 h 0.84842 c 0,0 -0.23062,1.29819 0,1.69684 0.12746,0.22033 0.39582,0.16588 0.63245,0.21597 0.66244,0.14025 1.24895,1.57025 1.65318,2.94589 1.13576,3.86506 2.91836,8.43382 3.83191,9.31668 0.16091,0.1555 0.32926,0.29619 0.46971,0.47852 0.68495,0.88921 0.70613,2.76903 0.87144,4.18803 0.15939,1.36816 0.20535,1.52018 0.45963,1.52018 h 0.56589 c 0,0 1.46168,23.49215 0.84842,33.08842 -0.40074,6.27094 -8.37947,36.83197 -9.33263,45.81475 -0.45687,4.30562 -0.39437,8.77081 -0.84842,13.57474 -0.38955,4.12145 -5.99678,27.72324 -9.18155,41.54361 -0.30865,1.33939 -0.36002,1.50214 -0.51375,1.62749 -0.11404,0.093 -0.20679,0.20351 -0.28833,0.33143 -0.7371,1.15633 -0.55778,3.7331 -1.24327,4.62442 -0.13745,0.17872 -0.30966,0.28968 -0.44886,0.46203 -0.93669,1.15979 -0.37838,5.09972 -1.25269,6.32942 -0.13411,0.18862 -0.30193,0.31347 -0.45832,0.46972 -1.23873,1.23753 -3.37251,15.22515 -4.61804,16.48695 -0.15476,0.1568 -0.32084,0.2822 -0.46034,0.4715 -0.59403,0.8059 -0.70613,2.769 -0.87144,4.188 -0.15939,1.3682 -0.20535,1.5202 -0.45962,1.5202 h -0.5659 l -0.84842,4.2421 h -0.84842 v 1.6968 h -0.84842 v 3.3937 h -0.5659 c -0.25427,0 -0.3292,0.1455 -0.74924,1.4553 -0.85606,2.6693 -2.29941,7.6499 -2.92697,7.8774 -0.22993,0.083 -0.47814,0.044 -0.63245,0.2159 -0.24142,0.2688 -0.25298,1.054 -0.49815,1.7034 -0.48174,1.276 -1.239,1.5787 -1.36791,2.7473 -0.0421,0.3815 -0.075,0.4239 -0.32928,0.4239 h -0.56589 v 2.5452 h -0.84842 l -4.24211,11.8779 h -0.84842 l -0.84842,4.2421 h -0.84842 l -0.84843,3.3937 h -0.56589 c -0.25427,0 -0.31282,0.1498 -0.58547,1.4976 -0.69028,3.4124 -1.74662,9.4339 -2.44244,10.1496 -0.15078,0.1551 -0.31432,0.2764 -0.44617,0.4597 -0.87211,1.2126 -0.3582,5.1393 -1.25269,6.3294 -0.13591,0.1809 -0.30434,0.2985 -0.45517,0.4672 -0.75351,0.8431 -1.17951,3.9012 -1.58431,5.899 -0.27328,1.3487 -0.3319,1.4986 -0.58617,1.4986 h -0.5659 v 2.5453 h -0.84842 l -4.2421,13.5747 h -0.84843 v 2.5453 h -0.84842 l -3.72846,10.4397 c -0.46228,1.2943 -0.5419,1.4349 -0.79617,1.4059 -0.18863,-0.022 -0.39926,-0.045 -0.56589,0.032 -0.92847,0.4282 -0.15345,6.0976 -1.05212,7.4082 -0.12973,0.1891 -0.29958,0.2899 -0.45361,0.4658 -0.76023,0.868 -1.17952,3.9011 -1.58431,5.8989 -0.27328,1.3488 -0.3319,1.4954 -0.58617,1.4663 -0.18864,-0.022 -0.40342,-0.043 -0.5659,0.032 -0.79541,0.3712 -0.33756,3.0858 -1.04206,4.0059 -0.13305,0.1738 -0.30756,0.2836 -0.43881,0.4522 -0.20345,0.2614 -0.30294,0.6642 -0.45522,1.0556 -0.57478,1.4769 -1.90168,2.7898 -3.00408,4.0687 -0.8989,1.0428 -1.02003,1.3099 -1.21126,2.671 -10.83265,77.0991 -21.32977,153.1072 -32.87594,231.2435 -8.82947,59.7516 -18.2724,120.7476 -26.30106,175.6232 -10.1205,69.1732 -17.99375,128.6212 -31.39159,222.2864 -13.96661,97.6416 -33.936843,232.4674 -33.936843,232.4674 l 824.665403,4.2421 c 0,0 -0.51517,-1.7539 -1.03639,-3.153 -0.96575,-2.5923 -2.09367,-4.1575 -3.45974,-5.7498 -2.0484,-2.3876 -5.26992,-6.3303 -6.26212,-8.5455 -0.46543,-1.0391 -0.8048,-2.1206 -1.30448,-2.6707 -0.16217,-0.1785 -0.34122,-0.301 -0.49119,-0.464 -0.59362,-0.6449 -0.73146,-1.9228 -1.02082,-3.1728 -0.28317,-1.2233 -12.24755,-17.1289 -14.42316,-19.1743 -5.42138,-5.0971 -17.71783,-18.3559 -19.51369,-21.0409 -2.8394,-4.2452 -5.00806,-8.7809 -8.24106,-13.7027 -1.99825,-3.042 -4.71147,-7.7254 -5.07405,-9.4819 -0.13935,-0.6751 -0.20391,-1.3528 -0.4756,-1.7127 -0.12822,-0.1698 -0.30256,-0.2689 -0.45226,-0.4417 -0.54353,-0.6275 -0.76205,-2.2275 -1.296,-3.3597 -0.46,-0.9754 -1.26795,-1.7378 -1.3827,-2.7781 -0.0421,-0.3814 -0.075,-0.4238 -0.32928,-0.4238 h -0.5659 v -2.5453 h -0.84842 l -1.69684,-7.6358 h -0.84842 v -2.5452 h -0.84842 v -5.0906 h -0.84842 z" /><path
       id="path64"
       style="fill:#ba1e1f;fill-opacity:1;fill-rule:evenodd;stroke:none"
       d="m 688.00652,1586.0604 -2.12105,-749.58017 22.90737,-0.42421 2.54527,943.02018 143.80739,-97.8484 -2.54527,-168.1317 h 27.57369 l 2.58686,180.9417 -171.42267,116.43 v 3.3936 H 688.43073 V 1604.7256 H 577.28756 l -0.42421,-91.2053 h 23.33158 v 72.5401 z" /><path
       id="path66"
       style="fill:#ba1e1f;fill-opacity:1;fill-rule:evenodd;stroke:none"
       d="m 1060.8876,968.83394 h 25.0285 l -2.1211,606.19696 -190.89476,1.6968 0.84842,-66.1768 27.14948,0.4242 -0.42421,44.5421 138.29267,-1.2726 z" /><path
       id="path68"
       style="fill:#ba1e1f;fill-opacity:1;fill-rule:evenodd;stroke:none"
       d="m 838.18776,519.59492 v -19.51369 h 75.4988 v 19.51369 z" /><path
       id="path70"
       style="fill:#ba1e1f;fill-opacity:1;fill-rule:evenodd;stroke:none"
       d="m 775.26341,500.16802 62.92435,-0.0868 v 19.51369 h -0.0107 l -5.51474,950.23179 127.26318,-1.6969 -2.54527,-560.3822 h 23.7558 l 0.84842,582.4412 -212.96501,3.4511 6.3197,-982.50248 -0.0757,-10.96941 z" /><path
       id="path72"
       style="fill:#ba1e1f;fill-opacity:1;fill-rule:evenodd;stroke:none"
       d="m 505.59521,606.73658 v -30.97192 c 0.14118,0.20875 0.32867,0.43683 0.57706,0.7236 0.13527,0.15618 4.84019,6.3474 6.58337,6.69416 0.19943,0.0397 0.29349,-0.0906 0.94061,-1.30322 l 43.65341,-81.79797 h 62.0605 L 548.835,630.73135 596.4558,690.976 h -25.25142 z" /><path
       id="path74"
       style="fill:#ba1e1f;fill-opacity:1;fill-rule:evenodd;stroke:none"
       d="m 505.59521,575.76466 v 30.97192 l -0.002,-0.002 3.39633,863.09252 128.53581,-0.8485 -1.69684,-593.47056 h 19.9379 l 1.69684,615.52956 -204.89372,-0.4242 -4.26708,-990.53174 h 56.8692 c 0,0 0,73.72477 0,73.72477 0,0.9953 0.0525,1.41051 0.42345,1.95866 z" /><path
       id="path76"
       style="fill:#ba1e1f;fill-opacity:1;fill-rule:evenodd;stroke:none"
       d="m 918.35288,871.2655 2.12105,579.0475 h -25.87685 l -2.54526,-579.0475 z" /><path
       id="path78"
       style="fill:#ba1e1f;fill-opacity:1;fill-rule:evenodd;stroke:none"
       d="m 576.43914,1449.0403 -4.66632,-536.20216 h 22.48316 l 4.66632,536.20216 z" /><path
       id="path80"
       style="fill:#ba1e1f;fill-opacity:1;fill-rule:evenodd;stroke:none"
       d="m 876.78024,842.41918 c 0,0 -0.0394,36.35584 0,72.85817 0.12107,112.20245 4.66631,534.18715 4.66631,534.18715 h -22.48316 l -5.09052,-607.04532 z" /><path
       id="path82"
       style="fill:#000000;fill-opacity:1;fill-rule:evenodd;stroke:none"
       d="m 310.11334,568.45993 -26.37952,-6.29972 -0.3849,-14.94969 c -0.0354,-1.37399 -0.0149,-1.67747 0.20434,-3.03486 3.09722,-19.17241 8.55517,-30.16805 25.84531,-39.0039 22.84528,-11.67473 63.1467,-11.28563 84.84212,0.42421 21.19815,11.44145 32.33594,31.33195 30.33105,56.01276 -1.87911,23.13251 -18.12875,40.41819 -37.75474,51.31252 -7.99238,4.43654 -41.01411,17.01694 -49.42054,21.63474 -10.74902,5.90463 -18.81642,13.42026 -17.18052,25.46112 2.31952,17.07261 20.53953,20.06984 36.78754,19.08099 19.25444,-1.17182 31.97452,-8.00181 35.32826,-26.81011 0.35193,-1.97371 0.52198,-3.654 0.42421,-6.27832 -0.18567,-4.98341 -1.3371,-13.37094 -1.3371,-13.37094 l 25.09289,5.18652 c 0,0 -0.46807,9.99228 -1.48474,16.24442 -2.74689,16.89253 -13.64205,28.60394 -29.05842,34.99738 -2.58661,1.07271 -5.04763,1.875 -7.63579,2.54526 -3.18128,0.82386 -23.99127,2.86714 -28.08274,2.75737 -4.01573,-0.10774 -20.06638,-2.59734 -23.24674,-3.60579 -29.74963,-9.43315 -46.6939,-34.01425 -40.51212,-65.96475 3.6647,-18.94095 15.40307,-32.50313 31.17948,-42.20895 11.30207,-6.95315 43.32162,-16.76927 55.35948,-28.63422 7.54272,-7.43436 9.94576,-15.84946 6.36316,-26.30105 -3.83213,-11.17958 -14.01303,-14.52634 -26.07198,-15.69579 -9.57776,-0.92884 -26.26139,0.92801 -34.80224,7.84789 -9.09743,7.37084 -12.12983,20.18504 -11.02947,31.76489 0.62053,6.5303 2.62372,16.88802 2.62372,16.88802 z" /><path
       id="path84"
       style="fill:#000000;fill-opacity:1;fill-rule:evenodd;stroke:none"
       d="m 665.09915,500.08123 h 55.57159 v 70.70742 L 766.90969,690.976 H 745.13072 L 710.0792,598.71267 671.46231,690.976 H 613.76 l 51.33915,-120.46733 z" /><path
       id="path86"
       style="fill:#000000;fill-opacity:1;fill-rule:evenodd;stroke:none"
       d="M 981.13605,500.08123 V 690.976 H 925.98867 V 500.08123 Z" /><path
       id="path88"
       style="fill:#000000;fill-opacity:1;fill-rule:evenodd;stroke:none"
       d="M 1013.3761,690.55179 V 500.08123 h 18.6652 v 121.07943 l 79.9557,-121.07943 h 42.217 V 690.976 h -18.2411 l -0.4275,-130.39377 -87.2398,130.39377 z" /><path
       id="path90"
       style="fill:#000000;fill-opacity:1;fill-rule:evenodd;stroke:none"
       d="m 1299.7182,595.1044 v 19.51369 h -57.6926 v 56.84422 h 68.2979 V 690.976 H 1186.8782 V 500.08123 h 135.3232 v 19.51369 h -80.1758 v 75.50948 z" /><path
       id="path92"
       style="fill:#000000;fill-opacity:1;fill-rule:evenodd;stroke:none"
       d="m 948.47183,338.32443 v -12.48346 c 0,-1.37444 0.0373,-1.57664 0.37277,-2.02198 1.96441,-2.60759 10.44171,-4.29662 12.26871,-4.45148 15.01311,-1.27248 26.27788,12.45614 25.11326,27.9979 -0.36383,4.85533 -2.45826,12.4591 -3.81789,16.12001 -5.45194,14.6797 -19.34349,33.44713 -20.78632,47.25706 -0.39168,3.74895 0.68864,8.42524 3.39368,10.22347 2.94705,1.95911 6.74055,2.77485 9.76533,1.90895 3.08026,-0.88178 8.05152,-3.15507 8.05152,-3.15507 v 13.81818 c 0,0 -2.92762,1.1575 -5.09053,1.8511 -12.22856,3.92147 -23.38388,-2.62483 -27.78579,-12.93842 -3.21767,-7.53893 -2.74673,-15.81532 -0.84842,-22.05895 1.99624,-6.56576 19.52865,-41.54873 21.63474,-48.36001 2.21019,-7.148 2.80683,-14.2898 -4.45421,-18.02895 -4.28761,-2.20795 -9.19856,-1.45987 -13.99895,1.69684 -1.67461,1.10121 -3.8179,2.62481 -3.8179,2.62481 z" /><path
       id="path94"
       style="fill:#000000;fill-opacity:1;fill-rule:evenodd;stroke:none"
       d="m 1342.1393,327.53781 v 13.61788 c 0,0 -5.3292,-4.51107 -8.6964,-6.51659 -8.2355,-4.90523 -16.1251,-0.36754 -19.5136,8.06 -5.3935,13.41394 -4.9952,52.94645 -1.6969,65.32843 2.7595,10.35918 6.8646,15.56448 16.0606,14.84737 1.3693,-0.10678 2.4361,-0.28662 4.0894,-1.06053 3.1665,-1.48221 8.4842,-5.14355 8.4842,-5.14355 v 14.76987 c 0,0 -5.7366,2.69498 -9.3326,3.94842 -11.4871,4.00402 -22.1476,-2.7137 -27.9979,-12.93842 -12.5994,-22.02037 -11.1828,-69.43864 -0.6363,-88.66002 5.0383,-9.18256 13.3008,-15.25967 23.7134,-14.42316 6.4089,0.51488 10.0707,2.31804 14.3275,5.69286 1.0787,0.85525 1.1986,1.103 1.1986,2.47744 z" /><path
       id="path96"
       style="fill:#000000;fill-opacity:1;fill-rule:evenodd;stroke:none"
       d="M 299.85383,434.7528 V 321.06436 c 0,0 9.69313,-0.20419 15.57701,0 15.68425,0.54428 27.75171,7.33155 32.57089,22.48316 4.10077,12.89289 -0.0845,28.74728 -11.24158,35.84579 -1.94074,1.23477 -4.62763,2.7303 -4.62763,2.7303 0,0 3.16282,2.18063 5.26394,3.84497 11.57398,9.16796 11.92184,26.27319 3.8179,37.33053 -5.23653,7.14493 -14.19231,11.03754 -22.95828,11.45369 -6.88068,0.32664 -18.40225,0 -18.40225,0 z m 14.42316,-48.36001 v 34.78527 c 0,0 2.69137,0.11768 4.6748,0 8.37878,-0.49714 13.28225,-8.27449 13.56625,-16.54422 0.22445,-6.53545 -2.32434,-11.23741 -6.36316,-15.05947 -1.15091,-1.08915 -5.45114,-3.06536 -6.92311,-3.18158 -2.12512,-0.1678 -4.95478,0 -4.95478,0 z m 0,-51.75369 v 38.17895 c 0,0 2.96503,0.17251 5.24324,0 15.71315,-1.18982 19.20964,-21.51501 12.12834,-31.22955 -2.96671,-4.06992 -6.23428,-6.69019 -12.12834,-6.9494 -2.27647,-0.10012 -5.24324,0 -5.24324,0 z" /><path
       id="path98"
       style="fill:#000000;fill-opacity:1;fill-rule:evenodd;stroke:none"
       d="m 448.33466,345.34615 0.41709,89.40665 h -14.42316 l -0.41711,-89.68662 c -0.006,-1.37443 -0.0477,-1.67471 -0.41281,-3.00282 -1.84077,-6.69538 -6.09898,-10.26758 -11.90489,-9.12111 -6.02813,1.19036 -7.14067,3.8706 -8.60609,11.35319 -0.26446,1.35036 -0.29384,1.65311 -0.29384,3.02755 v 87.42981 h -14.42316 c 0,0 -0.85903,-81.55758 0,-89.38118 1.58832,-14.46572 10.96807,-27.18392 26.89495,-26.00411 12.09775,0.89617 20.40464,9.58371 22.88305,22.94787 0.25096,1.35327 0.27956,1.65635 0.28597,3.03077 z" /><path
       id="path100"
       style="fill:#000000;fill-opacity:1;fill-rule:evenodd;stroke:none"
       d="M 515.77702,321.06436 V 434.7528 H 501.35386 V 321.06436 Z" /><path
       id="path102"
       style="fill:#000000;fill-opacity:1;fill-rule:evenodd;stroke:none"
       d="m 612.07283,321.06436 v 13.57474 h -27.9979 V 434.7528 H 569.65177 V 321.06436 Z" /><path
       id="path104"
       style="fill:#000000;fill-opacity:1;fill-rule:evenodd;stroke:none"
       d="M 656.19073,434.7528 V 321.06436 c 0,0 12.97958,-0.44168 19.95486,0 30.7378,1.94631 36.47803,36.58128 34.76831,65.64659 -1.5163,25.77695 -10.73298,46.99903 -36.74513,48.04185 -6.44169,0.25824 -17.97804,0 -17.97804,0 z m 14.42316,-100.1137 v 86.53896 c 0,0 3.60436,0.14927 6.09166,0 7.11502,-0.427 12.62241,-4.98143 15.11887,-10.39316 1.49117,-3.23252 2.46367,-6.6336 3.18158,-10.39316 0.6759,-3.53957 1.74881,-26.37711 1.48474,-31.60369 -0.73609,-14.56888 -4.06386,-33.38549 -20.2094,-34.14895 -2.39647,-0.11332 -5.66745,0 -5.66745,0 z" /><path
       id="path106"
       style="fill:#000000;fill-opacity:1;fill-rule:evenodd;stroke:none"
       d="m 799.1497,373.66647 v 13.57474 h -23.75579 v 33.93685 h 25.87684 V 434.7528 H 761.39496 V 321.06436 h 41.57263 v 13.57474 h -27.57368 v 39.02737 z" /><path
       id="path108"
       style="fill:#000000;fill-opacity:1;fill-rule:evenodd;stroke:none"
       d="m 892.90024,321.06436 h 15.24371 c 0,0 -3.80609,18.84505 -7.18371,30.75527 -1.6666,5.87682 -5.17179,17.4006 -8.69631,21.84684 -1.88912,2.38315 -4.86011,5.36926 -4.86011,5.36926 0,0 2.46505,1.71882 4.01168,3.11495 7.27317,6.56543 8.60299,19.96856 6.99948,29.05843 -2.68561,15.22395 -13.03392,22.98761 -27.13251,23.54369 -5.45166,0.21502 -14.01592,0 -14.01592,0 V 321.06436 h 14.42316 v 50.90527 c 0,0 1.73291,0.10929 2.83373,0 4.29823,-0.42673 8.14972,-9.17574 9.04417,-12.30211 3.42342,-11.96588 9.33263,-38.60316 9.33263,-38.60316 z m -21.21053,64.48001 v 35.63369 c 0,0 1.3079,0.0585 2.37558,0 10.01836,-0.54936 11.69669,-16.41195 10.35074,-24.18849 -0.80067,-4.62603 -3.85289,-11.05064 -9.672,-11.4452 -1.32354,-0.0897 -3.05432,0 -3.05432,0 z" /><path
       id="path110"
       style="fill:#000000;fill-opacity:1;fill-rule:evenodd;stroke:none"
       d="m 1166.9403,321.06436 v 13.57474 h -27.9979 v 100.1137 h -14.4232 V 321.06436 Z" /><path
       id="path112"
       style="fill:#000000;fill-opacity:1;fill-rule:evenodd;stroke:none"
       d="m 1254.3277,321.06436 v 13.57474 h -27.9979 v 100.1137 h -14.4232 V 321.06436 Z" /></g></svg>